<?xml version="1.0" encoding="UTF-8"?><svg xmlns="http://www.w3.org/2000/svg" viewBox="0 0 359 352"><defs><style>.d{fill:#faa659;}.e{fill:#ea284c;}.f{fill:#fff;}.g{fill:#ffcf01;}.h{fill:#934a7d;}.i{fill:#333;}.j{fill:#27bdbe;}</style></defs><g id="a"/><g id="b"><g><rect class="g" x="6.9" y="4.36" width="165.87" height="165.87" rx="43.52" ry="43.52"/><g><g><ellipse class="i" cx="53.85" cy="70.58" rx="7.19" ry="12.13"/><ellipse class="i" cx="125.8" cy="70.58" rx="7.19" ry="12.13"/></g><g><path class="f" d="M43.73,113.73c1.05,5.65,6,9.94,11.95,9.94h1.51v-9.94h-13.46Z"/><path class="f" d="M125.37,123.58c5.32-.61,9.6-4.65,10.56-9.86h-10.56v9.86Z"/><path class="f" d="M135.96,109.29c-.88-5.31-5.2-9.46-10.59-10.07v10.07h10.59Z"/><rect class="f" x="109.43" y="99.13" width="11.5" height="10.16"/><rect class="f" x="61.63" y="99.13" width="11.5" height="10.16"/><rect class="f" x="77.56" y="99.13" width="11.5" height="10.16"/><rect class="f" x="93.5" y="99.13" width="11.5" height="10.16"/><path class="f" d="M57.19,99.13h-1.51c-6.02,0-11.02,4.4-11.98,10.16h13.49v-10.16Z"/><rect class="f" x="93.5" y="113.73" width="11.5" height="9.94"/><rect class="f" x="77.56" y="113.73" width="11.5" height="9.94"/><rect class="f" x="61.63" y="113.73" width="11.5" height="9.94"/><rect class="f" x="109.43" y="113.73" width="11.5" height="9.94"/><path class="i" d="M123.98,94.69H55.68c-9.15,0-16.6,7.45-16.6,16.6v.22c0-1.23,.99-2.22,2.22-2.22h.16c.98-6.99,6.96-12.38,14.22-12.38h1.74c.36-.74,1.11-1.25,1.99-1.25s1.63,.51,1.99,1.25h11.96c.36-.74,1.11-1.25,1.99-1.25s1.63,.51,1.99,1.25h11.96c.36-.74,1.11-1.25,1.99-1.25s1.63,.51,1.99,1.25h11.96c.36-.74,1.11-1.25,1.99-1.25s1.63,.51,1.99,1.25h11.96c.36-.74,1.11-1.25,1.99-1.25s1.67,.54,2.02,1.31c6.75,.55,12.16,5.76,13.05,12.4,.94,.26,1.64,1.11,1.64,2.13s-.71,1.9-1.67,2.14c-.97,6.48-6.25,11.54-12.83,12.17-.09,1.14-1.03,2.05-2.2,2.05s-2.07-.87-2.19-1.98h-11.55c-.12,1.11-1.05,1.98-2.19,1.98s-2.07-.87-2.19-1.98h-11.55c-.12,1.11-1.05,1.98-2.19,1.98s-2.07-.87-2.19-1.98h-11.55c-.12,1.11-1.05,1.98-2.19,1.98s-2.07-.87-2.19-1.98h-11.55c-.12,1.11-1.05,1.98-2.19,1.98s-2.07-.87-2.19-1.98h-1.54c-7.18,0-13.12-5.27-14.19-12.16h-.19c-1.23,0-2.22-.99-2.22-2.22,0,9.15,7.45,16.6,16.6,16.6H123.98c9.15,0,16.6-7.45,16.6-16.6v-.22c0-9.15-7.45-16.6-16.6-16.6Z"/><path class="i" d="M104.99,123.67h-11.5v1.98c0,.08-.02,.16-.02,.24h11.55c0-.08-.02-.16-.02-.24v-1.98Z"/><path class="i" d="M57.19,123.67h-1.51c-5.95,0-10.9-4.29-11.95-9.94h-2.24c1.07,6.88,7,12.16,14.19,12.16h1.54c0-.08-.02-.16-.02-.24v-1.98Z"/><path class="i" d="M109.43,99.13h11.5v-1.25c0-.35,.09-.67,.23-.97h-11.96c.14,.29,.23,.62,.23,.97v1.25Z"/><path class="i" d="M89.06,123.67h-11.5v1.98c0,.08-.02,.16-.02,.24h11.55c0-.08-.02-.16-.02-.24v-1.98Z"/><path class="i" d="M55.68,99.13h1.51v-1.25c0-.35,.09-.67,.23-.97h-1.74c-7.26,0-13.25,5.39-14.22,12.38h2.24c.96-5.75,5.96-10.16,11.98-10.16Z"/><path class="i" d="M120.93,123.67h-11.5v1.98c0,.08-.02,.16-.02,.24h11.55c0-.08-.02-.16-.02-.24v-1.98Z"/><path class="i" d="M73.12,123.67h-11.5v1.98c0,.08-.02,.16-.02,.24h11.55c0-.08-.02-.16-.02-.24v-1.98Z"/><path class="i" d="M93.5,99.13h11.5v-1.25c0-.35,.09-.67,.23-.97h-11.96c.14,.29,.23,.62,.23,.97v1.25Z"/><path class="i" d="M77.56,99.13h11.5v-1.25c0-.35,.09-.67,.23-.97h-11.96c.14,.29,.23,.62,.23,.97v1.25Z"/><path class="i" d="M125.37,99.22c5.39,.62,9.71,4.77,10.59,10.07h1.67c.2,0,.4,.04,.58,.09-.89-6.65-6.3-11.85-13.05-12.4,.12,.28,.2,.58,.2,.91v1.34Z"/><path class="i" d="M61.63,99.13h11.5v-1.25c0-.35,.09-.67,.23-.97h-11.96c.14,.29,.23,.62,.23,.97v1.25Z"/><path class="i" d="M135.93,113.73c-.96,5.2-5.24,9.25-10.56,9.86v2.06c0,.06-.01,.11-.02,.17,6.59-.62,11.86-5.69,12.83-12.17-.18,.04-.36,.08-.55,.08h-1.71Z"/><rect class="i" x="77.56" y="111.51" width="11.5" height="2.22"/><rect class="i" x="109.43" y="109.29" width="11.5" height="2.22"/><rect class="i" x="93.5" y="109.29" width="11.5" height="2.22"/><rect class="i" x="93.5" y="111.51" width="11.5" height="2.22"/><path class="i" d="M125.37,111.51h10.77v-.22c0-.68-.07-1.35-.18-2h-10.59v2.22Z"/><rect class="i" x="77.56" y="109.29" width="11.5" height="2.22"/><path class="i" d="M125.37,111.92h10.56c.13-1.08,.21-2.19,.21-3.32h-10.77v3.32Z"/><rect class="i" x="109.43" y="111.51" width="11.5" height="2.22"/><rect class="i" x="61.63" y="109.29" width="11.5" height="2.22"/><path class="i" d="M57.19,109.29h-13.49c-.11,.65-.18,1.32-.18,2v.22h13.67v-2.22Z"/><rect class="i" x="61.63" y="111.51" width="11.5" height="2.22"/><path class="i" d="M57.19,113.73v-2.22h-13.67c0,.76,.08,1.5,.21,2.22h13.46Z"/><path class="i" d="M138.36,111.51c0,.73-.07,1.44-.18,2.14,.96-.24,1.67-1.11,1.67-2.14s-.7-1.87-1.64-2.13c.08,.63,.14,1.26,.14,1.91v.22Z"/><path class="i" d="M41.3,113.73h.19c-.11-.72-.19-1.46-.19-2.22v-.22c0-.68,.06-1.35,.16-2h-.16c-1.23,0-2.22,.99-2.22,2.22s.99,2.22,2.22,2.22Z"/><path class="i" d="M135.96,109.29c.11,.65,.18,1.32,.18,2v.22h0c0,.76-.08,1.5-.21,2.22h1.71c.19,0,.37-.03,.55-.08,.1-.7,.18-1.41,.18-2.14v-.22c0-.65-.06-1.29-.14-1.91-.19-.05-.38-.09-.58-.09h-1.67Z"/><path class="i" d="M41.3,111.51h2.22v-.22c0-.68,.07-1.35,.18-2h-2.24c-.09,.66-.16,1.32-.16,2v.22Z"/><path class="i" d="M43.52,111.51h-2.22c0,.76,.08,1.49,.19,2.22h2.24c-.13-.72-.21-1.46-.21-2.22Z"/><rect class="i" x="57.19" y="99.13" width="2.22" height="10.16"/><rect class="i" x="57.19" y="113.73" width="2.22" height="9.94"/><rect class="i" x="59.41" y="99.13" width="2.22" height="10.16"/><rect class="i" x="59.41" y="113.73" width="2.22" height="9.94"/><path class="i" d="M59.41,127.86c1.14,0,2.07-.87,2.19-1.98h-4.39c.12,1.11,1.05,1.98,2.19,1.98Z"/><path class="i" d="M59.41,95.66c-.88,0-1.63,.51-1.99,1.25h3.98c-.36-.74-1.11-1.25-1.99-1.25Z"/><path class="i" d="M61.63,123.67h-2.22v0h-2.22v1.98c0,.08,.02,.16,.02,.24h4.39c0-.08,.02-.16,.02-.24v-1.98Z"/><path class="i" d="M57.19,99.13h2.22v0h2.22v-1.25c0-.35-.09-.67-.23-.97h-3.98c-.14,.29-.23,.62-.23,.97v1.25Z"/><rect class="i" x="57.19" y="111.51" width="2.22" height="2.22"/><rect class="i" x="57.19" y="109.29" width="2.22" height="2.22"/><rect class="i" x="59.41" y="109.29" width="2.22" height="2.22"/><rect class="i" x="59.41" y="111.51" width="2.22" height="2.22"/><rect class="i" x="75.34" y="113.73" width="2.22" height="9.94"/><rect class="i" x="75.34" y="99.13" width="2.22" height="10.16"/><rect class="i" x="73.12" y="99.13" width="2.22" height="10.16"/><rect class="i" x="73.12" y="113.73" width="2.22" height="9.94"/><path class="i" d="M75.34,95.66c-.88,0-1.63,.51-1.99,1.25h3.98c-.36-.74-1.11-1.25-1.99-1.25Z"/><path class="i" d="M75.34,127.86c1.14,0,2.07-.87,2.19-1.98h-4.39c.12,1.11,1.05,1.98,2.19,1.98Z"/><path class="i" d="M77.56,123.67h-2.22v0h-2.22v1.98c0,.08,.02,.16,.02,.24h4.39c0-.08,.02-.16,.02-.24v-1.98Z"/><path class="i" d="M73.12,99.13h2.22v0h2.22v-1.25c0-.35-.09-.67-.23-.97h-3.98c-.14,.29-.23,.62-.23,.97v1.25Z"/><rect class="i" x="73.12" y="109.29" width="2.22" height="2.22"/><rect class="i" x="73.12" y="111.51" width="2.22" height="2.22"/><rect class="i" x="75.34" y="109.29" width="2.22" height="2.22"/><rect class="i" x="75.34" y="111.51" width="2.22" height="2.22"/><rect class="i" x="91.28" y="99.13" width="2.22" height="10.16"/><rect class="i" x="89.06" y="113.73" width="2.22" height="9.94"/><rect class="i" x="89.06" y="99.13" width="2.22" height="10.16"/><rect class="i" x="91.28" y="113.73" width="2.22" height="9.94"/><path class="i" d="M91.28,127.86c1.14,0,2.07-.87,2.19-1.98h-4.39c.12,1.11,1.05,1.98,2.19,1.98Z"/><path class="i" d="M91.28,95.66c-.88,0-1.63,.51-1.99,1.25h3.98c-.36-.74-1.11-1.25-1.99-1.25Z"/><path class="i" d="M93.5,123.67h-2.22v0h-2.22v1.98c0,.08,.02,.16,.02,.24h4.39c0-.08,.02-.16,.02-.24v-1.98Z"/><path class="i" d="M89.06,99.13h2.22v0h2.22v-1.25c0-.35-.09-.67-.23-.97h-3.98c-.14,.29-.23,.62-.23,.97v1.25Z"/><rect class="i" x="91.28" y="111.51" width="2.22" height="2.22"/><rect class="i" x="89.06" y="111.51" width="2.22" height="2.22"/><rect class="i" x="91.28" y="109.29" width="2.22" height="2.22"/><rect class="i" x="89.06" y="109.29" width="2.22" height="2.22"/><rect class="i" x="104.99" y="113.73" width="2.22" height="9.94"/><rect class="i" x="107.21" y="113.73" width="2.22" height="9.94"/><rect class="i" x="107.21" y="99.13" width="2.22" height="10.16"/><rect class="i" x="104.99" y="99.13" width="2.22" height="10.16"/><path class="i" d="M107.21,127.86c1.14,0,2.07-.87,2.19-1.98h-4.39c.12,1.11,1.05,1.98,2.19,1.98Z"/><path class="i" d="M107.21,95.66c-.88,0-1.63,.51-1.99,1.25h3.98c-.36-.74-1.11-1.25-1.99-1.25Z"/><path class="i" d="M109.43,123.67h-2.22v0h-2.22v1.98c0,.08,.02,.16,.02,.24h4.39c0-.08,.02-.16,.02-.24v-1.98Z"/><path class="i" d="M104.99,99.13h2.22v0h2.22v-1.25c0-.35-.09-.67-.23-.97h-3.98c-.14,.29-.23,.62-.23,.97v1.25Z"/><rect class="i" x="104.99" y="111.51" width="2.22" height="2.22"/><rect class="i" x="107.21" y="109.29" width="2.22" height="2.22"/><rect class="i" x="107.21" y="111.51" width="2.22" height="2.22"/><rect class="i" x="104.99" y="109.29" width="2.22" height="2.22"/><rect class="i" x="120.93" y="99.13" width="2.22" height="10.16"/><path class="i" d="M123.15,113.73v9.94h.83c.47,0,.93-.03,1.39-.09v-9.86h-2.22Z"/><rect class="i" x="120.93" y="113.73" width="2.22" height="9.94"/><path class="i" d="M125.37,109.29v-10.07c-.46-.05-.92-.08-1.39-.08h-.83v10.16h2.22Z"/><path class="i" d="M125.17,96.97c-.35-.77-1.12-1.31-2.02-1.31s-1.63,.51-1.99,1.25h2.82c.4,0,.8,.03,1.19,.06Z"/><path class="i" d="M120.95,125.89c.12,1.11,1.05,1.98,2.19,1.98s2.11-.9,2.2-2.05c-.45,.04-.91,.07-1.37,.07h-3.03Z"/><path class="i" d="M125.37,123.58c-.46,.05-.92,.09-1.39,.09h-.83v0h-2.22v1.98c0,.08,.02,.16,.02,.24h3.03c.46,0,.92-.03,1.37-.07,0-.06,.02-.11,.02-.17v-2.06Z"/><path class="i" d="M120.93,99.13h2.22v0h.83c.47,0,.93,.03,1.39,.08v-1.34c0-.32-.07-.63-.2-.91-.39-.03-.79-.06-1.19-.06h-2.82c-.14,.29-.23,.62-.23,.97v1.25Z"/><rect class="i" x="123.15" y="111.51" width="2.22" height="2.22"/><rect class="i" x="120.93" y="111.51" width="2.22" height="2.22"/><rect class="i" x="123.15" y="109.29" width="2.22" height="2.22"/><rect class="i" x="120.93" y="109.29" width="2.22" height="2.22"/></g></g></g><g><rect class="d" x="186.07" y="4.36" width="165.87" height="165.87" rx="43.52" ry="43.52"/><g><ellipse class="f" cx="241.61" cy="94.09" rx="9.08" ry="15.3"/><ellipse class="f" cx="301.61" cy="94.09" rx="9.08" ry="15.3"/><ellipse class="i" cx="241.61" cy="94.09" rx="6.66" ry="11.23"/><ellipse class="i" cx="301.68" cy="94.09" rx="6.66" ry="11.23"/><path class="f" d="M330.44,60.42c0,7.41-2.97,9.52-7.05,9.52s-7.74-2.11-7.74-9.52,3.04-22.74,7.12-22.74,7.67,15.33,7.67,22.74Z"/><path class="f" d="M283.59,44.46c0,5.77-2.31,7.4-5.49,7.4s-6.02-1.64-6.02-7.4,2.36-17.69,5.54-17.69,5.97,11.92,5.97,17.69Z"/><path class="f" d="M229.75,60.78c0,5.75-2.3,7.39-5.47,7.39s-6.01-1.63-6.01-7.39,2.36-17.65,5.53-17.65,5.95,11.89,5.95,17.65Z"/><path class="f" d="M255.08,52.6c0,3.96-1.58,5.08-3.76,5.08s-4.13-1.12-4.13-5.08,1.62-12.13,3.8-12.13,4.09,8.18,4.09,12.13Z"/><path class="f" d="M299.05,59.81c0,3.96-1.58,5.08-3.76,5.08s-4.13-1.12-4.13-5.08,1.62-12.13,3.8-12.13,4.09,8.18,4.09,12.13Z"/><path class="e" d="M201.4,131.08c-.37,0-.75-.08-1.1-.26-1.22-.61-1.71-2.09-1.1-3.31l6.58-13.15c.61-1.22,2.09-1.71,3.31-1.1,1.22,.61,1.71,2.09,1.1,3.31l-6.58,13.15c-.43,.86-1.3,1.36-2.21,1.36Z"/><path class="e" d="M212.09,131.08c-.37,0-.75-.08-1.1-.26-1.22-.61-1.71-2.09-1.1-3.31l6.57-13.15c.61-1.22,2.09-1.71,3.31-1.1,1.22,.61,1.71,2.09,1.1,3.31l-6.57,13.15c-.43,.86-1.3,1.36-2.21,1.36Z"/><path class="e" d="M222.77,131.08c-.37,0-.75-.08-1.1-.26-1.22-.61-1.71-2.09-1.1-3.31l6.58-13.15c.61-1.22,2.09-1.71,3.31-1.1,1.22,.61,1.71,2.09,1.1,3.31l-6.58,13.15c-.43,.86-1.3,1.36-2.21,1.36Z"/><path class="e" d="M308.66,131.08c-.37,0-.75-.08-1.1-.26-1.22-.61-1.71-2.09-1.1-3.31l6.58-13.15c.61-1.22,2.09-1.71,3.31-1.1,1.22,.61,1.71,2.09,1.1,3.31l-6.58,13.15c-.43,.86-1.3,1.36-2.21,1.36Z"/><path class="e" d="M319.35,131.08c-.37,0-.75-.08-1.1-.26-1.22-.61-1.71-2.09-1.1-3.31l6.58-13.15c.61-1.22,2.09-1.71,3.31-1.1,1.22,.61,1.71,2.09,1.1,3.31l-6.58,13.15c-.43,.86-1.3,1.36-2.21,1.36Z"/><path class="e" d="M330.03,131.08c-.37,0-.75-.08-1.1-.26-1.22-.61-1.71-2.09-1.1-3.31l6.58-13.15c.61-1.22,2.09-1.71,3.31-1.1,1.22,.61,1.71,2.09,1.1,3.31l-6.58,13.15c-.43,.86-1.3,1.36-2.21,1.36Z"/></g></g><g><rect class="h" x="8.35" y="183.53" width="165.87" height="165.87" rx="44.02" ry="44.02"/><g><path class="f" d="M110.16,312.07c4.71,0,7.95-4.88,5.96-9.15-4.04-8.68-13.64-14.79-24.84-14.79s-20.81,6.11-24.84,14.79c-1.99,4.27,1.25,9.15,5.96,9.15h37.76Z"/><g><path class="f" d="M38.13,248.14c.37,.66,1.11,1.23,2.28,1.53,9.72,2.53,28.85-.7,30.41-12.97,.26-2.01-.78-6.91-3.67-4.58-3.04,2.45-5.12,5.86-8.25,8.26-3.08,2.35-6.68,3.66-10.57,3.52-2.53-.09-5.28-.65-7.76,.12-2.23,.69-3.25,2.65-2.44,4.12Z"/><path class="f" d="M144.43,248.14c-.37,.66-1.11,1.23-2.28,1.53-9.72,2.53-28.85-.7-30.41-12.97-.26-2.01,.78-6.91,3.67-4.58,3.04,2.45,5.12,5.86,8.25,8.26,3.08,2.35,6.68,3.66,10.57,3.52,2.53-.09,5.28-.65,7.76,.12,2.23,.69,3.25,2.65,2.44,4.12Z"/></g><path class="f" d="M70,264.71c1.12,.41,2.18,.91,3.13,1.61,4.86,3.64-.42,8-3.82,10.14-3.69,2.32-9.69,6.46-14.29,5.56-.72-.14-1.48-.45-1.85-1.09-1.74-3.03,3.12-4.46,5.08-5.31,1.46-.63,4.32-2.05,4.15-4.01-.05-.58-.41-1.09-.82-1.5-2.88-2.81-9.07-1.99-10.21-6.67-.15-.63-.06-1.34,.37-1.83,.42-.48,1.07-.67,1.69-.77,3.85-.65,7.63,.67,11.16,2.09,1.72,.69,3.63,1.12,5.42,1.77Z"/><path class="f" d="M112.56,264.71c-1.12,.41-2.18,.91-3.13,1.61-4.86,3.64,.42,8,3.82,10.14,3.69,2.32,9.69,6.46,14.29,5.56,.72-.14,1.48-.45,1.85-1.09,1.74-3.03-3.12-4.46-5.08-5.31-1.46-.63-4.32-2.05-4.15-4.01,.05-.58,.41-1.09,.82-1.5,2.88-2.81,9.07-1.99,10.21-6.67,.15-.63,.06-1.34-.37-1.83-.42-.48-1.07-.67-1.69-.77-3.85-.65-7.63,.67-11.16,2.09-1.72,.69-3.63,1.12-5.42,1.77Z"/></g></g><g><rect class="j" x="186.07" y="183.53" width="165.87" height="165.87" rx="43.52" ry="43.52"/><g><g><path class="f" d="M231.71,246.6c-.14-4.68,3.55-8.59,8.24-8.73,4.68-.14,8.59,3.55,8.73,8.24,.14,4.68-3.55,8.59-8.24,8.73-4.68,.14-8.59-3.55-8.73-8.24Z"/><path class="f" d="M291.1,244.89c-.14-4.68,3.55-8.59,8.24-8.73s8.59,3.55,8.73,8.24-3.55,8.59-8.24,8.73c-4.68,.14-8.59-3.55-8.73-8.24Z"/></g><g><path class="f" d="M280.74,271.09c1.18-.86,2.38-1.58,3.59-2.09,5.7-2.37,8.67,3.93,11.17,6.87,1.84,2.16,3.62,4.89,2.53,8.08-2.06,6.04-10.27,11.22-15.08,15.43-4.88,4.27-9.7,8.59-14.47,12.97-3.54,3.25-7.49,7.89-12.32,7.89-2.06,0-3.43-1.44-4.61-2.82-2.05-2.41-4.03-4.89-5.95-7.42-1.88-2.48-1.4-5.33,1.08-8.48,1.62-2.06,3.73-3.75,5.8-5.43,5.91-4.8,11.69-9.74,17.35-14.83,3.25-2.93,6.96-7.31,10.9-10.18Z"/><path class="f" d="M262.17,271.1c-1.18-.86-2.38-1.58-3.59-2.09-5.7-2.38-8.67,3.93-11.17,6.86-1.84,2.16-3.62,4.89-2.53,8.08,2.06,6.04,10.27,11.22,15.08,15.43,4.87,4.27,9.7,8.59,14.46,12.98,3.54,3.25,7.49,7.89,12.31,7.89,2.06,0,3.43-1.44,4.61-2.82,2.05-2.41,4.04-4.89,5.95-7.42,1.88-2.48,1.75-5.65-1.08-8.48-5.38-5.38-3.73-3.75-5.79-5.43-5.9-4.8-11.69-9.75-17.34-14.83-3.25-2.93-6.96-7.31-10.9-10.18Z"/></g><path class="f" d="M249.5,233.6c.61,.29,1.32,.06,1.67-.53,.92-1.59,1.53-3.37,1.77-5.21,.25-1.96-23.16-8.28-25.56-8.89-5.77-1.46-12.09-3.08-18.29-3.83-1.58-.19-2.08,2.15-.56,2.66,5.69,1.89,11.59,3.41,17.11,5.53,8.08,3.1,16.05,6.53,23.87,10.28Z"/><path class="f" d="M289.56,232.44c-.59,.32-1.32,.14-1.7-.43-1.01-1.53-1.72-3.28-2.07-5.1-.37-1.94,22.64-9.61,25.01-10.35,5.67-1.79,11.89-3.77,18.04-4.88,1.57-.28,2.2,2.03,.71,2.62-5.57,2.21-11.38,4.08-16.76,6.51-7.89,3.56-15.64,7.44-23.24,11.64Z"/></g></g></g><g id="c"/></svg>