<?xml version="1.0" encoding="UTF-8"?><svg xmlns="http://www.w3.org/2000/svg" viewBox="0 0 390 844"><defs><style>.d{fill:#fff;}.e{fill:#ffe267;}.f{fill:#fff9e1;}.g{fill:#fff3c2;}.h{fill:#ffe885;}.i{fill:#ffcf01;}</style></defs><g id="a"/><g id="b"/><g id="c"><rect class="f" x="0" y=".5" width="390" height="843"/><g><path class="e" d="M587.6,633.3c-75.38-99.98-208.65-145.93-334.25-104.71-136.61,44.85-219.41,178.13-205.74,315.51l30.3-.12c-13.74-124.63,60.96-246.09,184.83-286.76,113.25-37.17,233.45,4.42,301.21,94.79,17.27,23.03,31.13,49.22,40.61,78.08l28.62-9.4c-10.62-32.34-26.19-61.65-45.59-87.4Z"/><path class="h" d="M563.95,652.01c-67.75-90.37-187.95-131.96-301.21-94.79-123.87,40.67-198.57,162.13-184.83,286.76l30.33-.12c-13.83-111.86,52.77-221.53,163.9-258.02,104.47-34.29,215.6,6.85,274.34,93.59,12.28,18.12,22.27,38.24,29.44,60.07l28.63-9.41c-9.48-28.86-23.34-55.05-40.61-78.08Z"/><path class="g" d="M546.49,679.43c-58.75-86.73-169.87-127.88-274.34-93.59-111.14,36.49-177.74,146.15-163.9,258.02l30.37-.12c-13.97-99.08,44.54-196.97,142.94-229.28,99.11-32.53,205.08,12.55,252.02,101.95,5.4,10.26,10,21.1,13.74,32.47l28.62-9.38c-7.17-21.84-17.16-41.95-29.44-60.07Z"/></g><path class="d" d="M258.79,793.04c-6.07,.02-11.84,1.3-17.08,3.56-4.12-24.74-25.67-43.56-51.56-43.46-11.05,.04-21.27,3.53-29.67,9.43-12.75-22.88-37.22-38.32-65.27-38.21-40.1,.16-72.64,32.05-73.98,71.79-7.21-3.91-15.48-6.12-24.26-6.09-27.91,.11-50.45,22.83-50.33,50.74,.11,27.91,22.83,50.45,50.74,50.33,.1,0,.19,0,.29,0,3.09,31.12,29.39,55.36,61.3,55.24,23.18-.09,43.3-13.03,53.66-32.03,5.23,2.43,11.03,3.81,17.18,3.79,10.27-.04,19.6-3.93,26.71-10.25,8.94,11.02,22.59,18.05,37.88,17.99,26.8-.11,48.44-21.92,48.33-48.72,0-.08-.01-.15-.01-.23,5.08,2.05,10.62,3.19,16.44,3.17,24.04-.1,43.45-19.66,43.35-43.7-.1-24.04-19.66-43.45-43.7-43.35Z"/><path class="d" d="M116.79,329.04c-6.07,.02-11.84,1.3-17.08,3.56-4.12-24.74-25.67-43.56-51.56-43.46-11.05,.04-21.27,3.53-29.67,9.43-12.75-22.88-37.22-38.32-65.27-38.21-40.1,.16-72.64,32.05-73.98,71.79-7.21-3.91-15.48-6.12-24.26-6.09-27.91,.11-50.45,22.83-50.33,50.74,.11,27.91,22.83,50.45,50.74,50.33,.1,0,.19,0,.29,0,3.09,31.12,29.39,55.36,61.3,55.24,23.18-.09,43.3-13.03,53.66-32.03,5.23,2.43,11.03,3.81,17.18,3.79,10.27-.04,19.6-3.93,26.71-10.25,8.94,11.02,22.59,18.05,37.88,17.99,26.8-.11,48.44-21.92,48.33-48.72,0-.08-.01-.15-.01-.23,5.08,2.05,10.62,3.19,16.44,3.17,24.04-.1,43.45-19.66,43.35-43.7-.1-24.04-19.66-43.45-43.7-43.35Z"/><path class="d" d="M551.79,127.04c-6.07,.02-11.84,1.3-17.08,3.56-4.12-24.74-25.67-43.56-51.56-43.46-11.05,.04-21.27,3.53-29.67,9.43-12.75-22.88-37.22-38.32-65.27-38.21-40.1,.16-72.64,32.05-73.98,71.79-7.21-3.91-15.48-6.12-24.26-6.09-27.91,.11-50.45,22.83-50.33,50.74,.11,27.91,22.83,50.45,50.74,50.33,.1,0,.19,0,.29,0,3.09,31.12,29.39,55.36,61.3,55.24,23.18-.09,43.3-13.03,53.66-32.03,5.23,2.43,11.03,3.81,17.18,3.79,10.27-.04,19.6-3.93,26.71-10.25,8.94,11.02,22.59,18.05,37.88,17.99,26.8-.11,48.44-21.92,48.33-48.72,0-.08-.01-.15-.01-.23,5.08,2.05,10.62,3.19,16.44,3.17,24.04-.1,43.45-19.66,43.35-43.7-.1-24.04-19.66-43.45-43.7-43.35Z"/><path class="i" d="M132.95,156.6c-11.43-5.96-20.25-17.17-24.44-30.98-.55-1.83-3.17-1.83-3.72,0-4.18,13.81-13.01,25.02-24.44,30.98-.55,.29-1.28,.61-2.08,.94-2.3,.94-2.3,4.19,0,5.13,.8,.33,1.53,.65,2.08,.94,11.31,5.9,20.08,16.95,24.31,30.57,.6,1.95,3.36,1.95,3.97,0,4.23-13.63,13-24.67,24.31-30.57,.61-.32,1.42-.67,2.31-1.03,2.22-.9,2.22-4.04,0-4.94-.89-.36-1.71-.72-2.31-1.03Z"/><path class="i" d="M82.44,584.23c-11.43-5.96-20.25-17.17-24.44-30.98-.55-1.83-3.17-1.83-3.72,0-4.18,13.81-13.01,25.02-24.44,30.98-.55,.29-1.28,.61-2.08,.94-2.3,.94-2.3,4.19,0,5.13,.8,.33,1.53,.65,2.08,.94,11.31,5.9,20.08,16.95,24.31,30.57,.6,1.95,3.36,1.95,3.97,0,4.23-13.63,13-24.67,24.31-30.57,.61-.32,1.42-.67,2.31-1.03,2.22-.9,2.22-4.04,0-4.94-.89-.36-1.71-.72-2.31-1.03Z"/><path class="i" d="M328.44,352.23c-11.43-5.96-20.25-17.17-24.44-30.98-.55-1.83-3.17-1.83-3.72,0-4.18,13.81-13.01,25.02-24.44,30.98-.55,.29-1.28,.61-2.08,.94-2.3,.94-2.3,4.19,0,5.13,.8,.33,1.53,.65,2.08,.94,11.31,5.9,20.08,16.95,24.31,30.57,.6,1.95,3.36,1.95,3.97,0,4.23-13.63,13-24.67,24.31-30.57,.61-.32,1.42-.67,2.31-1.03,2.22-.9,2.22-4.04,0-4.94-.89-.36-1.71-.72-2.31-1.03Z"/></g></svg>