<?xml version="1.0" encoding="UTF-8"?><svg xmlns="http://www.w3.org/2000/svg" xmlns:xlink="http://www.w3.org/1999/xlink" viewBox="0 0 212 197"><defs><style>.e{fill:none;}.f{fill:#fff;}.g{fill:#7dd7d8;}.h{fill:#a9e5e5;}.i{fill:#bfbfbf;}.j{fill:#d4f2f2;}.k{fill:#969395;}.l{fill:#52cacb;}.m{clip-path:url(#d);}</style><clipPath id="d"><rect class="e" x="-415.48" y="2.48" width="390" height="193"/></clipPath></defs><g id="a"/><g id="b"><path class="f" d="M111.28,42.12l8.59,17.4c.7,1.41,2.04,2.38,3.59,2.61l19.2,2.79c3.91,.57,5.48,5.38,2.64,8.14l-13.89,13.54c-1.12,1.1-1.64,2.68-1.37,4.22l3.28,19.12c.67,3.9-3.42,6.87-6.92,5.03l-17.17-9.03c-1.39-.73-3.05-.73-4.44,0l-17.17,9.03c-3.5,1.84-7.59-1.13-6.92-5.03l3.28-19.12c.27-1.55-.25-3.13-1.37-4.22l-13.89-13.54c-2.83-2.76-1.27-7.57,2.64-8.14l19.2-2.79c1.55-.23,2.9-1.2,3.59-2.61l8.59-17.4c1.75-3.55,6.81-3.55,8.56,0Z"/><path class="k" d="M209.3,109.65c-1.57,47.26-46.19,85.61-103.16,85.61S2.97,156.94,2.97,109.65c0-7.23-.42-22.58-.42-22.58C7.55,48.07,57.87,24.04,106.14,24.04s91.42,26.78,103.42,63.03c0,0,0,15-.25,22.58Z"/><ellipse class="i" cx="106.14" cy="86.93" rx="103.16" ry="85.61"/><path class="k" d="M110.83,42.19l8.59,17.4c.7,1.41,2.04,2.38,3.59,2.61l19.2,2.79c3.91,.57,5.48,5.38,2.64,8.14l-13.89,13.54c-1.12,1.1-1.64,2.68-1.37,4.22l3.28,19.12c.67,3.9-3.42,6.87-6.92,5.03l-17.17-9.03c-1.39-.73-3.05-.73-4.44,0l-17.17,9.03c-3.5,1.84-7.59-1.13-6.92-5.03l3.28-19.12c.27-1.55-.25-3.13-1.37-4.22l-13.89-13.54c-2.83-2.76-1.27-7.57,2.64-8.14l19.2-2.79c1.55-.23,2.9-1.2,3.59-2.61l8.59-17.4c1.75-3.55,6.81-3.55,8.56,0Z"/></g><g id="c"><g class="m"><g><path class="l" d="M52.31,83.39C13.36,31.72-55.51,7.98-120.41,29.28c-70.59,23.18-113.38,92.05-106.31,163.04l15.66-.06c-7.1-64.4,31.5-127.16,95.51-148.18C-57.03,24.86,5.09,46.36,40.1,93.06c8.92,11.9,16.09,25.43,20.98,40.35l14.79-4.86c-5.49-16.71-13.53-31.86-23.56-45.16Z"/><path class="g" d="M40.1,93.06C5.09,46.36-57.03,24.86-115.55,44.07c-64.01,21.02-102.61,83.78-95.51,148.18l15.67-.06c-7.15-57.8,27.27-114.47,84.7-133.33C-56.71,41.14,.71,62.4,31.07,107.22c6.35,9.36,11.51,19.76,15.21,31.04l14.8-4.86c-4.9-14.91-12.06-28.45-20.98-40.35Z"/><path class="h" d="M31.07,107.22C.71,62.4-56.71,41.14-110.69,58.86c-57.43,18.86-91.84,75.52-84.7,133.33l15.69-.06c-7.22-51.2,23.01-101.78,73.86-118.48C-54.62,56.84,.14,80.14,24.39,126.33c2.79,5.3,5.17,10.9,7.1,16.78l14.79-4.85c-3.71-11.28-8.87-21.68-15.21-31.04Z"/></g><path class="j" d="M71.8,100.41c-2.84,.01-5.55,.61-8,1.67-1.93-11.59-12.02-20.4-24.14-20.35-5.17,.02-9.96,1.65-13.89,4.42-5.97-10.71-17.43-17.94-30.56-17.89-18.78,.07-34.01,15-34.64,33.61-3.38-1.83-7.25-2.87-11.36-2.85-13.07,.05-23.62,10.69-23.57,23.76,.05,13.07,10.69,23.62,23.76,23.57,.05,0,.09,0,.13,0,1.45,14.57,13.76,25.92,28.7,25.86,10.85-.04,20.27-6.1,25.13-15,2.45,1.14,5.17,1.78,8.04,1.77,4.81-.02,9.18-1.84,12.51-4.8,4.18,5.16,10.58,8.45,17.74,8.42,12.55-.05,22.68-10.26,22.63-22.81,0-.04,0-.07,0-.11,2.38,.96,4.97,1.49,7.7,1.48,11.25-.04,20.34-9.2,20.3-20.46-.04-11.25-9.2-20.34-20.46-20.3Z"/></g></g></svg>