<?xml version="1.0" encoding="UTF-8"?><svg xmlns="http://www.w3.org/2000/svg" xmlns:xlink="http://www.w3.org/1999/xlink" viewBox="0 0 341.9 280.15"><defs><style>.e{fill:none;}.f{fill:#fff;}.g{fill:#ffcf01;}.h{fill:#a35a23;}.h,.i,.j,.k,.l,.m{fill-rule:evenodd;}.i{fill:#d2fcf4;}.j{fill:#b3672d;}.k{fill:#8f4a15;}.l{fill:#934a7d;}.m{fill:#ba6422;}.n{clip-path:url(#c);}</style><clipPath id="c"><rect class="e" x="-4.24" y="15.33" width="351.38" height="239.05" rx="96.56" ry="96.56"/></clipPath></defs><g id="a"/><g id="b"><g class="n"><circle class="g" cx="175.47" cy="146.85" r="130.94" transform="translate(-52.45 167.09) rotate(-45)"/><g><g><path class="k" d="M70.7,235.88c8.04-32.74,20.43-80.63,27-74.74,8.93,8.01,27.65-107.81,39.43-91.17,11.78,16.64,32.11,84.4,40.18,78.02,8.07-6.38,26.71,37.27,29.69,31.73,2.4-4.48,12.17-35.11,23.55-19.03,8.69,12.27,22.87,80.13,33.14,69.69,2.81-2.86,6.75,2.49,11.74,12.07-26.11,35.78-53.77,47.97-99.95,47.97s-42.23-57.46-104.77-54.54Z"/><path class="m" d="M251.95,194.66c10.73,16.12,5.54,43.81,11.13,38.13,2.81-2.86,6.75,2.49,11.74,12.07-26.11,35.78-61.71,45.56-99.35,45.56s-53.37-7.79-75.25-21.28c3.2-7.43,7.27-15.08,10-21.41,4.64-10.77,11.6-6.92,17.02-16.15,5.42-9.23,10.83-6.15,14.7,0,3.87,6.15,14.7-4.62,23.21-20,19.1,.52,51.85-6.89,86.81-16.91Z"/></g><path class="j" d="M70.7,235.88c8.04-32.74,20.43-80.63,27-74.74,8.93,8.01,27.65-107.81,39.43-91.17,11.78,16.64,32.11,84.4,40.18,78.02,8.07-6.38,26.71,37.27,29.69,31.73,2.4-4.48,12.17-35.11,23.55-19.03,8.69,12.27,19.65,84.35,29.92,73.91,2.81-2.86,6.75,2.49,11.74,12.07-26.11,35.78-50.55,43.75-96.73,43.75s-57.64-69.79-104.77-54.54Z"/><path class="h" d="M98.56,162c7.7,13.03,12.2,32.72,21.08,21.47,8.88-11.25,7.7-15.39,15.99,1.18,8.29,16.58,19.54,0,23.09,7.11,3.55,7.1,17.17-23.09,38.49-2.37,19.24,18.7-45.93,83.71-58.81,96.19-29.39-7.83-75.09-9.64-110.24,0,8.04-32.74,62.97-130.33,69.54-124.44,.17,.15,.34,.24,.52,.31,.11,.18,.23,.36,.34,.54Z"/><path class="k" d="M254.54,202.69c10.73,16.12,2.54,35.18,8.13,29.5,1.61-1.63,6.59,4.36,11.58,12.29-26.12,35.65-61.2,45.94-98.79,45.94s-53.37-7.79-75.25-21.28c3.2-7.43,7.27-15.08,10-21.41,4.64-10.77,11.6-6.92,17.02-16.15,5.42-9.23,10.83-6.15,14.7,0,3.87,6.15,14.22-4.85,22.73-20.24,6.94-5.72,16.93,.29,28.95-11.25,10.24-9.84,45.69,15.8,60.93,2.6Z"/><path class="i" d="M119.4,101.64c6.01-22.21,12.79-38.64,17.73-31.67,11.78,16.64,32.11,84.4,40.18,78.02,8.07-6.38,26.71,37.27,29.69,31.73,2.4-4.48,12.17-35.11,23.55-19.03,29.42,41.54,43.13,71.49,45.89,86.17-20.07-.61-4.15-11.62-13.65-15.31-5.61-2.18,4.14-13.71-3.26-12.66-7.4,1.05-7.47,1.82-14.81-5.78-7.25-7.52-13.1-1.38-19.97-7.2-8.48-7.18-13.06,2.47-18.68,.13-8.64-3.59-11.27-1.24-14.98,7.2-4.39,10.01-7.38,11.18-11.42,1.22-1.27-3.13-7.29-1.58-9.89,.09-5.15,3.31-10.83,6.09-6.49-3.03,3.54-7.44,5.82-5.78,12.69-5.26,6.87,.53,7.99-5.35,11.44-11.04,5.26-8.68,13.19-6.32,18.97-1.98,3.42,2.56,6.4,1.71,11.53,.85,5.12-.85,8.11,3.42,14.94,8.11,6.83,4.7,12.81-1.71,7.69-2.13-5.12-.43-3.84-7.69-7.69-9.39s-2.99-10.25-3.84-6.83c-.85,3.42-7.5,16.79-6.7-1.53,.8-18.32-7.85-8.74-15.13-1.59-2.52,2.48-3.91-1.99-10.06,.3-4.23,1.58-5.82-13.15-11.63-9.46-5.82,3.68-6.35-4.73-6.35-13.67s-4.76,1.58-10.05,13.15c-5.29,11.57-6.35-12.62-5.29-22.61,1.06-9.99-3.17-22.08-9.52-21.56-6.35,.53-2.64-18.4-7.93-18.4s-4.76-9.99-8.99-5.26c-4.23,4.73-12.84,14.97-10.09,2.64,2.76-12.33-.03-9.23-7.87-4.21Z"/></g><path class="f" d="M133.54,37.76c0-1.29,2.27-1.26,2.27,.03l-.03,32.47c0,1.29-2.27,1.25-2.27-.03l.03-32.47Z"/><path class="l" d="M173.86,39.34c-22.66,8.31-29.27-10.54-40.29,1.81l-.02,17.8c11.02-12.35,17.63,6.5,40.29-1.81-5.36-2.71-7.15-4.15-10.14-7.34,3.83-2.89,7.21-5.92,10.16-10.46Z"/></g></g><g id="d"/></svg>