<svg width="278" height="93" viewBox="0 0 278 93" fill="none" xmlns="http://www.w3.org/2000/svg">
<path d="M124.657 68.4736C122.537 57.8722 116.972 46.4666 106.631 41.4299C96.2892 36.3932 71.9264 32.437 65.5737 29.6181C59.221 26.7992 54.7936 25.5157 56.3208 29.3744C56.3208 29.3744 41.3083 26.1899 26.6045 16.3847C11.9007 6.58756 -0.431025 -4.06255 0.917501 3.20812C2.26603 10.4788 17.8147 22.6399 17.8147 22.6399C17.8147 22.6399 12.5749 19.7641 8.85431 19.0899C5.13368 18.4156 4.28882 24.3296 15.9544 31.7628C15.9544 31.7628 7.67638 29.5694 8.68371 33.4525C9.69917 37.3356 19.3338 41.7305 24.5655 42.4129C24.5655 42.4129 13.7529 39.8783 14.7602 43.4283C15.7757 46.9784 18.7245 50.9346 29.9271 55.2889C29.9271 55.2889 20 51.5357 20.1706 55.76C20.3412 59.9843 27.6524 65.2728 36.8403 66.1746C36.8403 66.1746 29.9758 65.8984 26.7588 67.4175C23.55 68.9366 25.7434 71.983 27.9449 73.6727C30.1383 75.3624 42.4781 76.5485 42.4781 76.5485C42.4781 76.5485 31.828 77.5639 30.8207 79.4242C29.8133 81.2846 37.0759 85.5089 46.3693 83.9897C46.3693 83.9897 43.8348 85.1758 46.1987 87.3692C48.5627 89.5626 59.5622 86.7437 59.5622 86.7437C59.5622 86.7437 55.6628 89.5707 60.2202 90.578C64.7857 91.5935 74.924 87.1986 74.924 87.1986C74.924 87.1986 76.11 89.7332 81.3498 91.5935C86.5895 93.4538 97.0772 86.4512 97.0772 86.4512C97.0772 86.4512 99.0919 88.7177 102.975 89.9037C106.858 91.0898 112.61 85.5089 112.61 85.5089C112.61 85.5089 126.225 76.386 124.641 68.4736H124.657Z" fill="white"/>
<path d="M83.3638 92.7065C82.5515 92.7065 81.7797 92.6008 81.0892 92.349C77.1655 90.9599 75.362 89.1564 74.6309 88.1978C72.2994 89.1564 64.2001 92.284 60.0571 91.3579C58.3917 90.9842 57.4494 90.3018 57.2463 89.3189C57.1569 88.8802 57.23 88.4578 57.3925 88.0678C53.7856 88.8315 47.6279 89.7738 45.662 87.946C44.6952 87.0443 44.2809 86.1344 44.419 85.2246C44.4272 85.1515 44.4434 85.0865 44.4597 85.0215C37.5627 85.5739 31.8842 83.1693 30.3814 81.049C29.7071 80.0985 29.9264 79.3674 30.1214 79.0181C30.7307 77.9052 33.379 77.1172 36.1979 76.581C32.6641 76.053 28.7241 75.2731 27.465 74.3064C26.677 73.6971 24.118 71.5362 24.3617 69.2128C24.443 68.4655 24.8654 67.4094 26.4252 66.6701C27.5218 66.1502 28.9841 65.8253 30.4707 65.6303C24.2399 63.5669 19.52 59.6269 19.3657 55.7763C19.317 54.5903 19.8775 53.9323 20.3649 53.5829C20.9904 53.1361 21.8597 52.9493 22.8345 52.9249C16.5224 49.4805 14.7677 46.3448 13.9878 43.6315C13.7766 42.876 13.9228 42.1854 14.4021 41.6737C14.8733 41.1781 15.6694 40.91 16.6199 40.7801C12.4931 38.9441 8.60186 36.312 7.90322 33.6394C7.5864 32.4127 8.00883 31.6572 8.42314 31.2429C9.29237 30.3818 10.9252 30.2274 12.4931 30.333C6.3841 25.7188 4.97871 21.8682 5.78295 19.8129C6.26225 18.5862 7.49704 17.9932 8.99992 18.2613C10.1616 18.4725 11.4451 18.8787 12.6799 19.3499C7.91135 15.1256 1.03061 8.27732 0.120763 3.35438C0.0151559 2.78573 -0.30979 1.06351 0.884387 0.299891C2.97217 -1.04051 7.68389 2.16021 17.286 8.94346C20.2593 11.0394 23.6225 13.4196 27.0588 15.7105C39.0087 23.6798 51.3079 27.2704 55.2154 28.2696C55.1748 27.6116 55.3454 27.0917 55.7434 26.7099C56.962 25.5401 59.7159 26.125 65.898 28.8708C68.4732 30.0081 74.1435 31.3566 80.7155 32.9245C90.1552 35.1666 100.862 37.7174 106.987 40.6988C119.937 47.0028 124.218 62.1128 125.461 68.3111C127.093 76.4673 114.266 85.3708 113.145 86.1425C112.495 86.7599 106.898 91.9347 102.763 90.6755C99.7817 89.7657 97.8483 88.2628 96.9953 87.4829C95.0213 88.7259 88.3274 92.7065 83.3801 92.7065H83.3638ZM75.3377 86.1344L75.6707 86.8493C75.6707 86.8493 76.8487 89.1239 81.6254 90.8218C85.6141 92.2353 93.8109 87.6535 96.6298 85.7689L97.2147 85.3789L97.6858 85.907C97.6858 85.907 99.6193 88.0272 103.218 89.1239C106.029 89.9769 110.546 86.3863 112.048 84.924L112.162 84.8346C112.292 84.7453 125.306 75.923 123.852 68.6361C122.658 62.6733 118.555 48.1563 106.264 42.1611C100.302 39.2528 89.6922 36.7345 80.3337 34.5086C73.6886 32.9245 67.9451 31.5678 65.24 30.3655C58.2942 27.2867 57.0757 27.6929 56.8726 27.8959C56.832 27.9366 56.7508 28.2534 57.0757 29.082L57.6362 30.4874L56.1577 30.1706C56.0034 30.1381 40.8203 26.8399 26.1571 17.059C22.7045 14.76 19.3332 12.3716 16.3518 10.2676C10.4134 6.07581 3.02903 0.860423 1.76174 1.66466C1.68863 1.71341 1.53428 2.0546 1.72112 3.05381C3.00466 9.94267 18.1715 21.8763 18.3259 21.9982L17.4323 23.3467C17.3835 23.3223 12.2656 20.5278 8.72371 19.886C8.30128 19.8129 7.56203 19.7804 7.3102 20.4303C6.70092 21.99 8.61811 26.1087 16.4006 31.0804L20.7955 33.8831L15.7507 32.5508C13.7441 32.0146 10.3891 31.6085 9.5767 32.4208C9.51171 32.4858 9.33299 32.6645 9.47921 33.2494C10.2428 36.1902 17.2048 39.7727 22.3552 41.1294C23.3707 41.3 24.2318 41.4949 24.7598 41.6168L24.4674 43.2172C23.7768 43.1278 22.9888 42.9734 22.144 42.7541C19.1545 42.2504 16.2218 42.1448 15.5801 42.8191C15.5395 42.8597 15.4745 42.9328 15.5557 43.209C16.3924 46.1498 18.8214 50.0979 30.2351 54.5415L35.2149 56.4831L34.6219 57.9941L29.6421 56.0525C26.9532 55.0371 22.5827 54.0135 21.3154 54.9315C21.1448 55.0533 20.9742 55.2483 20.9904 55.7357C21.1367 59.4807 28.1311 64.5093 36.929 65.3785L41.0152 65.7765L40.8528 67.3932L36.7666 66.987C36.7666 66.987 30.1052 66.7433 27.1157 68.1568C26.0515 68.6604 25.9865 69.221 25.9702 69.3997C25.8646 70.3502 26.8638 71.8124 28.4479 73.031C29.9102 74.1602 37.8876 75.2893 42.5669 75.7361V77.3527C37.0753 77.8727 32.0224 79.0018 31.5431 79.8061C31.5431 79.8548 31.6324 80.1229 32.0873 80.5453C33.9883 82.2919 39.6342 84.2579 46.2469 83.1774L52.0553 82.2269L46.7262 84.7128C46.5637 84.794 46.0763 85.1108 46.0194 85.4926C45.9707 85.8176 46.2387 86.2725 46.7668 86.7599C48.1722 88.0678 54.9879 87.0686 59.3747 85.9395L63.4771 84.8834L60.0571 87.3773C59.4234 87.8404 58.7735 88.6284 58.8467 88.9858C58.8873 89.197 59.3259 89.5301 60.4226 89.7657C64.6794 90.7162 74.5253 86.4756 74.6228 86.435L75.3458 86.1182L75.3377 86.1344Z" fill="#27BDBE"/>
<path d="M81.8046 51.089C81.8046 51.089 81.8696 51.1215 81.9021 51.1296C82.1296 51.1946 82.357 51.0565 82.422 50.8371C82.6576 50.0816 83.0963 49.3911 83.6731 48.8387C83.8193 48.8062 83.9493 48.7169 83.998 48.5544C84.193 48.4 84.3961 48.2538 84.6154 48.132C84.8104 48.0182 84.8835 47.7502 84.7698 47.5552C84.656 47.3521 84.3879 47.2871 84.193 47.4008C84.0549 47.4739 83.9249 47.5633 83.7949 47.6527C83.7299 47.5796 83.6325 47.5227 83.5025 47.5227C82.2514 47.4821 81.0166 47.3602 79.7818 47.1409C79.6925 47.1246 79.6031 47.1328 79.5219 47.1571C76.7355 46.4422 74.0222 45.4593 71.4307 44.2245C69.4729 43.2903 67.5882 42.2179 65.7848 41.0075C64.0869 39.8702 62.4378 38.6192 60.9756 37.1813C59.3833 35.6134 58.0104 33.7693 57.2631 31.6409C57.2387 31.5841 57.2062 31.5272 57.1737 31.4866C57.1737 31.4216 57.1575 31.3566 57.1493 31.2997C57.125 31.0723 56.9706 30.8773 56.7269 30.8773C56.5157 30.8773 56.2801 31.0723 56.3045 31.2997C56.7188 35.6703 58.7578 39.7402 61.7311 42.9328C64.9074 46.3529 69.1155 48.6519 73.5754 49.911C76.1831 50.6503 78.8882 51.0402 81.6015 51.1458C81.6828 51.1458 81.7478 51.1296 81.8046 51.1052V51.089Z" fill="#B0D8D8"/>
<path d="M115.639 81.3171C113.608 79.5705 111.87 77.5071 110.497 75.2C110.375 74.9969 110.123 74.9481 109.92 75.0456C107.191 76.4023 103.876 77.9864 100.854 76.5241C100.18 76.1992 99.5707 75.728 99.1402 75.1025C99.0102 74.9156 98.7665 74.8263 98.5634 74.9481C98.4659 75.005 98.4009 75.1025 98.3684 75.2081C97.2392 73.9977 96.695 72.178 96.3538 70.602C96.3294 70.472 96.2563 70.3908 96.1669 70.342C96.2482 69.7734 96.37 69.2128 96.5325 68.6685H96.5406C96.6787 68.6361 96.8006 68.5467 96.8493 68.3761C97.0443 67.6775 97.2717 66.987 97.5236 66.3046C97.5642 66.2315 97.6048 66.1502 97.6535 66.0771C97.7104 65.9877 97.7185 65.8984 97.7104 65.8171C97.8485 65.4597 97.9947 65.1023 98.1491 64.7529C98.2385 64.5417 98.206 64.298 97.9947 64.1762C97.816 64.0706 97.5073 64.1193 97.418 64.3305C97.2636 64.6717 97.1255 65.0129 96.9793 65.3622C94.4447 66.4752 91.7233 67.3281 88.9287 67.2632C86.6704 67.2144 84.3876 66.4752 82.6735 64.9642C81.7637 64.168 81.0326 63.1688 80.6264 62.0234C80.5695 61.8609 80.4314 61.7391 80.2689 61.7147C80.2283 61.4222 80.1877 61.1298 80.1552 60.8373C80.1308 60.6099 79.9765 60.4149 79.7328 60.4149C79.5216 60.4149 79.286 60.6099 79.3103 60.8373C79.6434 63.6969 80.3095 66.8488 82.6735 68.7498C85.1025 70.7076 88.4819 71.0163 91.4633 70.5126C92.8687 70.277 94.2335 69.8302 95.5089 69.2047C95.0052 71.39 95.0783 73.7133 95.8176 75.8174C96.3456 77.3202 97.2392 78.7256 98.5796 79.6274C100.066 80.6266 101.951 80.7728 103.665 80.3991C105.517 79.9929 107.158 78.9775 108.677 77.8726C109.368 79.9361 111.261 81.5445 113.389 81.967C114.071 82.1051 114.754 82.1132 115.444 82.0076C115.753 81.9588 115.859 81.4958 115.631 81.3008L115.639 81.3171Z" fill="#B0D8D8"/>
<path d="M112.626 56.8405C111.472 57.8397 110.31 58.847 109.067 59.7325C108.45 60.1712 107.808 60.5855 107.142 60.9511C106.476 61.3166 105.785 61.6659 105.054 61.8772C104.339 62.0884 103.503 62.1127 102.983 61.4953C102.902 61.3979 102.763 61.3654 102.642 61.3816C102.585 61.1135 102.528 60.8454 102.471 60.5774C102.422 60.3499 102.162 60.228 101.951 60.2849C101.715 60.3499 101.61 60.5774 101.659 60.8048C101.902 62.0071 102.179 63.2257 102.975 64.2005C103.722 65.1185 104.851 65.5734 106.021 65.3135C107.191 65.0616 108.166 64.233 109.019 63.445C109.888 62.6408 110.668 61.739 111.366 60.7805C112.138 59.7163 112.78 58.5627 113.292 57.3523C113.479 56.9217 113.007 56.5074 112.626 56.8405Z" fill="#B0D8D8"/>
<path d="M88.8554 51.5358C89.6922 50.9509 90.5045 50.3416 91.3007 49.7079C91.585 49.4805 91.3494 48.9687 91.0001 48.9849C89.3429 49.0743 87.6938 48.4813 86.4915 47.3358C86.3209 47.1734 86.1178 47.1896 85.9634 47.2952C85.8822 47.1977 85.7522 47.1328 85.6304 47.1328C85.3785 47.1328 85.2323 47.3277 85.2079 47.5552C84.9967 49.5617 86.4102 51.5683 88.3518 52.0963C88.7255 52.2019 88.9448 51.812 88.8554 51.5358Z" fill="#B0D8D8"/>
<path d="M101.61 50.9264C99.8631 51.7794 98.1165 52.6324 96.3618 53.4773C95.5413 53.8753 94.7127 54.2653 93.8191 54.4684C93.0717 54.6389 92.2838 54.6796 91.5201 54.5577C90.6265 54.4115 89.7817 54.0865 89.0424 53.5666C89.018 53.5504 88.9937 53.5341 88.9693 53.526C88.9693 53.4935 88.9612 53.4529 88.9531 53.4204C88.9287 53.1929 88.7743 52.998 88.5306 52.998C88.3194 52.998 88.0838 53.1929 88.1082 53.4204C88.2057 54.4521 88.7418 55.3863 89.5461 56.0362C90.4478 56.7592 91.5851 57.0842 92.7387 57.0517C95.1676 56.9948 97.3042 55.565 99.2132 54.2003C100.277 53.4448 101.293 52.608 102.113 51.5763C102.406 51.2026 102.048 50.6908 101.602 50.9102L101.61 50.9264Z" fill="#B0D8D8"/>
<path d="M114.632 79.7655C112.836 78.3601 111.48 76.451 110.781 74.2739C110.708 74.0383 110.391 73.8515 110.156 74.0221C107.621 75.8336 104.372 77.174 101.252 76.2154C99.9848 75.8255 98.7663 75.07 97.9783 73.9896C97.0685 72.7385 96.8166 71.1788 97.0766 69.6678C97.4015 67.7668 98.3114 66.0284 99.2618 64.3793C99.4812 64.0056 99.0506 63.5994 98.6851 63.8025C96.3861 65.0617 93.949 66.1259 91.3494 66.5321C89.1479 66.8732 86.8327 66.6539 84.8017 65.6953C82.8196 64.753 81.2436 63.1445 80.5774 61.0242C79.8788 58.7821 80.1469 56.3369 81.008 54.1841C81.9179 51.9176 83.4613 49.9517 85.1429 48.2051C85.3379 48.002 85.5329 47.807 85.7278 47.6121C86.1421 48.2701 86.8245 48.7088 87.5394 48.9931C88.3437 49.3099 89.2373 49.4399 90.0984 49.4967C90.3421 49.513 90.5777 49.5211 90.8214 49.5211C90.6264 49.643 90.4314 49.7567 90.2365 49.8786C89.7003 50.2035 89.1479 50.5447 88.7173 51.0077C88.3112 51.4464 87.9943 52.0151 88.0512 52.6244C88.1081 53.258 88.4655 53.7535 88.9773 54.1191C89.481 54.4765 90.0902 54.6634 90.6914 54.7771C91.4144 54.9233 92.1455 54.9721 92.8767 54.9315C94.347 54.8502 95.7768 54.4359 97.1091 53.8185C98.5713 53.1443 99.9036 52.2344 101.179 51.2677C101.358 51.1296 101.455 50.9021 101.333 50.6909C101.228 50.5122 100.935 50.3985 100.757 50.5366C98.6851 52.1207 96.4104 53.5586 93.7946 53.9891C92.5761 54.1922 91.2194 54.1678 90.0496 53.7292C89.6434 53.5748 89.2048 53.323 89.0017 52.9249C88.7986 52.5269 88.9286 52.0963 89.1966 51.7551C89.5541 51.2921 90.074 50.9753 90.5614 50.6747C91.26 50.2522 91.9587 49.8217 92.6573 49.3993C92.6979 49.3993 92.7386 49.3911 92.7792 49.383C94.8182 49.0987 96.7679 48.3919 98.6201 47.5146C98.8232 47.4171 98.88 47.1165 98.7744 46.9378C98.6526 46.7266 98.4007 46.686 98.1976 46.7834C96.4429 47.6121 94.5176 48.3107 92.5517 48.5788C92.4948 48.5788 92.4299 48.5788 92.3649 48.6031C91.1219 48.7494 89.8628 48.725 88.628 48.4407C87.9294 48.2782 87.2145 48.0182 86.7027 47.4983C86.2884 47.0759 86.0365 46.4179 86.2071 45.833C86.3777 45.2481 86.9464 44.9637 87.4907 44.8094C88.2056 44.6063 88.9529 44.5576 89.6759 44.4276C91.6012 44.0864 93.4859 43.5421 95.2975 42.8029C95.5087 42.7135 95.6549 42.5185 95.59 42.2829C95.5331 42.0798 95.2813 41.9011 95.07 41.9905C93.3316 42.6972 91.5281 43.2334 89.6841 43.5746C88.9042 43.7208 88.0918 43.7777 87.3201 43.9808C86.6052 44.1676 85.8903 44.5413 85.541 45.2318C85.281 45.7436 85.2567 46.3204 85.3948 46.8566C85.3379 46.8728 85.2892 46.8972 85.2323 46.9378H85.2161C82.8683 46.9378 80.5287 46.686 78.2378 46.1823C75.9388 45.6705 73.6886 44.9231 71.5439 43.9402C69.3993 42.9572 67.3521 41.7468 65.4593 40.3414C63.5746 38.9441 61.8524 37.3356 60.3171 35.5566C58.6761 33.6556 57.1813 31.5191 56.4827 29.082C56.3933 28.7814 56.3202 28.4727 56.2634 28.1722C56.2227 27.9447 55.9547 27.8228 55.7434 27.8797C55.5079 27.9447 55.4022 28.1722 55.451 28.3996C55.6785 29.5288 56.0684 30.6011 56.5802 31.6166C52.1853 31.5678 47.8066 31.1129 43.493 30.2681C39.0575 29.3988 34.7032 28.1153 30.5114 26.4418C28.1474 25.4995 25.8403 24.4272 23.5981 23.2411C23.1188 22.9893 22.6883 23.7204 23.1676 23.9722C27.2132 26.1169 31.47 27.8716 35.8486 29.2201C40.2191 30.5686 44.7034 31.4947 49.2445 32.0146C51.7953 32.3071 54.3543 32.4533 56.9214 32.4777C56.962 32.4777 56.9945 32.4777 57.027 32.4614C57.6119 33.4769 58.3024 34.4436 59.0416 35.3535C60.5526 37.23 62.283 38.9279 64.1758 40.4226C66.0848 41.9255 68.1483 43.2334 70.3254 44.3057C72.4944 45.3699 74.7772 46.2148 77.1249 46.7997C79.4726 47.3846 81.8853 47.7258 84.2981 47.7827C84.3306 47.7827 84.3631 47.7827 84.3874 47.7827C83.0958 49.1393 81.9016 50.6178 80.9917 52.2507C80.9268 52.2263 80.8455 52.2263 80.7562 52.2507C77.4173 53.2824 74.0704 54.2978 70.691 55.1996C67.3196 56.1013 63.9158 56.8893 60.4714 57.4742C57.157 58.0347 53.8019 58.3921 50.4468 58.4571C47.1974 58.5221 43.9398 58.3272 40.7391 57.7829C37.5546 57.2467 34.4188 56.3694 31.4537 55.0939C31.08 54.9315 30.7063 54.7609 30.3408 54.5903C30.1377 54.4928 29.8858 54.5334 29.764 54.7446C29.6584 54.9315 29.7071 55.2239 29.9183 55.3214C32.8835 56.7187 36.0192 57.7179 39.2362 58.3596C42.4775 59.0095 45.792 59.302 49.0902 59.3101C52.4696 59.3182 55.8328 59.0258 59.1716 58.5303C62.6729 58.0103 66.1336 57.2548 69.5618 56.3694C72.9818 55.492 76.3613 54.4847 79.7407 53.453C80.0007 53.3717 80.2606 53.2905 80.5206 53.2174C79.8057 54.7609 79.3751 56.4343 79.3345 58.1241C79.237 58.0997 79.1314 58.0997 79.0177 58.1647C76.5562 59.5295 74.0054 60.7318 71.3896 61.7553C68.7494 62.787 66.0361 63.6482 63.2822 64.3305C60.5526 65.0048 57.7825 65.5085 54.9879 65.8334C52.1772 66.1502 49.3501 66.2965 46.5312 66.2477C43.7204 66.2071 40.9096 65.9796 38.1314 65.5653C37.782 65.5166 37.4246 65.4597 37.0753 65.3947C36.8478 65.3541 36.6204 65.4516 36.5554 65.6872C36.4985 65.8903 36.6204 66.1665 36.8478 66.2071C39.683 66.6783 42.5506 66.9707 45.4264 67.0601C48.2778 67.1494 51.1292 67.0601 53.9644 66.7758C56.8239 66.4914 59.6753 66.0284 62.478 65.3866C65.2562 64.7448 67.9939 63.9244 70.6585 62.9333C73.3474 61.9259 75.9795 60.748 78.514 59.3995C78.7984 59.2533 79.0746 59.0989 79.3508 58.9446C79.3751 59.4645 79.4401 59.9763 79.5539 60.488C80.0169 62.6652 81.3167 64.5174 83.1364 65.7522C83.0714 65.7847 83.0064 65.8334 82.9577 65.9146C80.7724 69.3834 78.1647 72.576 75.2158 75.4356C72.2751 78.2789 69.0094 80.7728 65.4837 82.8606C63.5097 84.0304 61.4544 85.0702 59.3341 85.9557C59.1229 86.0451 58.9685 86.2319 59.0416 86.4756C59.0985 86.6706 59.3503 86.8574 59.5616 86.7681C63.4203 85.1433 67.0759 83.0718 70.4473 80.5778C73.7942 78.1001 76.8487 75.2406 79.5214 72.048C81.0405 70.2446 82.4296 68.3355 83.6888 66.3371C83.7294 66.264 83.7538 66.199 83.7538 66.134C85.736 67.2551 88.0675 67.6937 90.3177 67.5231C90.8701 67.4825 91.4144 67.4094 91.9506 67.3038C90.6427 70.2608 88.8554 72.9822 86.7758 75.4437C84.6149 78.0027 82.1697 80.3016 79.6026 82.4463C78.1647 83.6486 76.6862 84.794 75.1833 85.9232C75.0046 86.0613 74.9071 86.2888 75.029 86.5C75.1346 86.6787 75.427 86.7924 75.6058 86.6543C78.3353 84.6072 81.0161 82.4707 83.4938 80.1229C85.9309 77.8158 88.1812 75.2893 90.0496 72.4948C91.0976 70.9269 92.0074 69.2697 92.7629 67.5394C92.8198 67.4013 92.8279 67.2551 92.7629 67.1332C94.5176 66.7189 96.2074 66.0284 97.8158 65.2241C96.3861 67.9456 95.265 71.2032 96.9385 74.0221C97.7102 75.33 98.9694 76.2723 100.359 76.841C100.521 76.906 100.683 76.9628 100.846 77.0197C100.318 79.4974 99.3918 81.8695 98.1164 84.0548C97.7427 84.6884 97.3365 85.3058 96.906 85.907C96.776 86.0938 96.8735 86.3781 97.0603 86.4837C97.2716 86.6056 97.5071 86.5162 97.6371 86.3294C99.1887 84.1766 100.375 81.7639 101.155 79.2212C101.358 78.5632 101.528 77.897 101.666 77.2309C102.804 77.4665 103.982 77.4584 105.135 77.2471C106.931 76.9141 108.62 76.1017 110.131 75.0863C110.911 77.1659 112.252 79.0262 114.006 80.3991C114.185 80.5372 114.429 80.5778 114.607 80.3991C114.754 80.2529 114.786 79.9442 114.607 79.798L114.632 79.7655Z" fill="#2E180E"/>
<path d="M111.838 57.198C110.075 58.8389 108.174 60.5936 105.794 61.2517C105.249 61.3979 104.681 61.5035 104.112 61.4872C103.681 61.471 103.186 61.3735 102.869 61.0892C101.927 60.2362 103.356 58.7821 103.884 58.1078C104.932 56.7674 105.98 55.4189 107.028 54.0785C107.166 53.8997 107.207 53.656 107.028 53.4773C106.882 53.3311 106.573 53.2986 106.427 53.4773C105.412 54.7771 104.396 56.0769 103.389 57.3767C102.585 58.4084 101.171 59.83 101.927 61.2517C102.528 62.389 104.055 62.4215 105.152 62.259C106.484 62.064 107.735 61.4791 108.848 60.748C110.14 59.9031 111.293 58.8633 112.422 57.8072C112.82 57.4335 112.219 56.8405 111.821 57.2061L111.838 57.198Z" fill="#2E180E"/>
<path d="M153.316 68.4736C155.437 57.8722 161.001 46.4666 171.343 41.43C181.684 36.3933 206.047 32.4371 212.4 29.6182C218.752 26.7993 223.18 25.5157 221.653 29.3745C221.653 29.3745 236.665 26.19 251.369 16.3847C266.073 6.5795 278.404 -4.06249 277.056 3.20006C275.707 10.4707 260.159 22.6318 260.159 22.6318C260.159 22.6318 265.398 19.7561 269.119 19.0818C272.84 18.4075 273.685 24.3216 262.019 31.7547C262.019 31.7547 270.297 29.5613 269.29 33.4444C268.274 37.3275 258.64 41.7224 253.408 42.4048C253.408 42.4048 264.221 39.8702 263.213 43.4203C262.198 46.9703 259.249 50.9265 248.046 55.2808C248.046 55.2808 257.973 51.5277 257.803 55.752C257.632 59.9763 250.321 65.2648 241.133 66.1665C241.133 66.1665 247.998 65.8903 251.215 67.4094C254.423 68.9285 252.23 71.9749 250.028 73.6646C247.835 75.3543 235.495 76.5404 235.495 76.5404C235.495 76.5404 246.145 77.5559 247.153 79.4162C248.16 81.2765 240.898 85.5008 231.604 83.9817C231.604 83.9817 234.139 85.1677 231.775 87.3611C229.411 89.5545 218.411 86.7356 218.411 86.7356C218.411 86.7356 222.311 89.5626 217.745 90.5699C213.18 91.5854 203.041 87.1905 203.041 87.1905C203.041 87.1905 201.855 89.7251 196.615 91.5854C191.376 93.4457 180.888 86.4431 180.888 86.4431C180.888 86.4431 178.873 88.7096 174.99 89.8957C171.107 91.0817 165.356 85.5008 165.356 85.5008C165.356 85.5008 151.74 76.3779 153.325 68.4655L153.316 68.4736Z" fill="white"/>
<path d="M194.609 92.7065C189.654 92.7065 182.968 88.7259 180.986 87.4829C180.133 88.2628 178.191 89.7738 175.218 90.6755C171.091 91.9347 165.486 86.7518 164.836 86.1425C163.707 85.3789 150.888 76.4673 152.52 68.3111C153.763 62.1128 158.045 47.0028 170.985 40.6988C177.111 37.7174 187.81 35.1747 197.257 32.9245C203.829 31.3647 209.5 30.0162 212.075 28.8708C218.265 26.1331 221.011 25.5482 222.229 26.7099C222.628 27.0917 222.806 27.6116 222.758 28.2696C226.673 27.2623 238.964 23.6716 250.914 15.7105C254.342 13.4196 257.714 11.0475 260.679 8.94346C270.281 2.16021 274.993 -1.04051 277.08 0.299891C278.275 1.06351 277.95 2.78573 277.844 3.35438C276.926 8.27732 270.053 15.1256 265.277 19.3824C266.512 18.9112 267.803 18.505 268.957 18.2938C270.46 18.0176 271.694 18.6106 272.174 19.8454C272.978 21.9007 271.573 25.7513 265.464 30.3655C267.023 30.2599 268.672 30.4061 269.534 31.2754C269.948 31.6897 270.378 32.4371 270.053 33.6719C269.355 36.3445 265.455 38.9766 261.337 40.8125C262.287 40.9344 263.083 41.2106 263.546 41.7062C264.026 42.2098 264.18 42.9085 263.961 43.6639C263.189 46.3773 261.426 49.513 255.114 52.9574C256.089 52.9818 256.958 53.1686 257.584 53.6154C258.063 53.9647 258.632 54.6228 258.583 55.8088C258.429 59.6594 253.709 63.5994 247.478 65.6628C248.964 65.8578 250.435 66.1827 251.532 66.7026C253.091 67.4419 253.514 68.4898 253.595 69.2453C253.847 71.5606 251.288 73.7296 250.492 74.3389C249.233 75.3056 245.293 76.0854 241.759 76.6135C244.578 77.1497 247.234 77.9376 247.835 79.0506C248.03 79.3999 248.25 80.131 247.575 81.0815C246.072 83.2018 240.386 85.6064 233.497 85.054C233.513 85.1189 233.53 85.1921 233.538 85.257C233.676 86.1588 233.261 87.0768 232.295 87.9785C230.329 89.8063 224.171 88.8558 220.564 88.1003C220.727 88.4903 220.8 88.9127 220.71 89.3514C220.507 90.3343 219.557 91.0248 217.9 91.3904C213.765 92.3084 205.665 89.1889 203.326 88.2303C202.595 89.1889 200.791 90.9842 196.867 92.3815C196.177 92.6252 195.405 92.7389 194.593 92.7389L194.609 92.7065ZM180.75 85.3789L181.335 85.7688C184.162 87.6535 192.359 92.2353 196.339 90.8218C201.116 89.1239 202.286 86.8655 202.302 86.8412L202.643 86.1507L203.358 86.4512C203.456 86.4919 213.302 90.7243 217.558 89.7819C218.647 89.5382 219.086 89.2051 219.134 89.0021C219.208 88.6446 218.558 87.8566 217.924 87.3936L214.504 84.8996L218.598 85.9476C222.985 87.0768 229.801 88.076 231.206 86.7681C231.734 86.2806 232.002 85.8257 231.954 85.5008C231.897 85.1189 231.409 84.8021 231.247 84.7209L226.251 82.2919L231.726 83.1855C238.339 84.266 243.985 82.3 245.886 80.5535C246.34 80.131 246.43 79.863 246.43 79.798C245.951 79.01 240.906 77.8808 235.414 77.3609V75.7443C240.093 75.2975 248.063 74.1601 249.533 73.0391C251.117 71.8205 252.108 70.3664 252.011 69.4078C251.995 69.221 251.93 68.6686 250.865 68.1649C247.957 66.7839 241.613 66.987 241.19 66.9951L237.128 67.3931L236.966 65.7765L241.052 65.3785C249.842 64.5092 256.836 59.4807 256.991 55.7357C257.007 55.2402 256.836 55.0533 256.666 54.9315C255.398 54.0135 251.036 55.0371 248.339 56.0606L243.367 57.9941L242.774 56.4831L247.754 54.5415C259.16 50.0979 261.589 46.1579 262.433 43.209C262.515 42.9328 262.442 42.8597 262.409 42.8191C261.767 42.1448 258.835 42.2586 255.845 42.7541C255 42.9734 254.212 43.1278 253.522 43.2171L253.229 41.6168C253.757 41.4949 254.627 41.3 255.634 41.1294C260.792 39.7727 267.746 36.1821 268.51 33.2494C268.664 32.6645 268.486 32.4858 268.412 32.4208C267.6 31.6084 264.245 32.0228 262.23 32.5508L257.186 33.8831L261.58 31.0804C269.371 26.1169 271.288 21.99 270.671 20.4303C270.419 19.7804 269.68 19.8129 269.257 19.886C265.715 20.5278 260.598 23.3223 260.549 23.3467L259.655 21.9982C259.81 21.8763 274.976 9.93454 276.26 3.05381C276.447 2.0546 276.292 1.71341 276.219 1.66466C274.952 0.860423 267.568 6.07581 261.629 10.2676C258.648 12.3716 255.277 14.76 251.824 17.059C237.161 26.8317 221.978 30.1381 221.823 30.1706L220.345 30.4874L220.905 29.082C221.238 28.2453 221.149 27.9284 221.108 27.8959C220.897 27.6928 219.687 27.2948 212.741 30.3655C210.036 31.5678 204.292 32.9326 197.647 34.5086C188.289 36.7345 177.671 39.2528 171.708 42.1611C159.417 48.1482 155.315 62.6652 154.121 68.6361C152.667 75.923 165.681 84.7453 165.811 84.8346L165.924 84.924C167.427 86.3781 171.952 89.9769 174.755 89.1239C178.354 88.0272 180.271 85.9313 180.287 85.9069L180.758 85.387L180.75 85.3789Z" fill="#27BDBE"/>
<path d="M196.161 51.089C196.161 51.089 196.096 51.1215 196.063 51.1296C195.836 51.1946 195.608 51.0565 195.543 50.8371C195.308 50.0816 194.869 49.3911 194.292 48.8387C194.146 48.8062 194.016 48.7169 193.967 48.5544C193.772 48.4 193.569 48.2538 193.35 48.132C193.155 48.0182 193.082 47.7502 193.196 47.5552C193.309 47.3521 193.577 47.2871 193.772 47.4008C193.91 47.4739 194.04 47.5633 194.17 47.6527C194.235 47.5796 194.333 47.5227 194.463 47.5227C195.714 47.4821 196.949 47.3602 198.183 47.1409C198.273 47.1246 198.362 47.1328 198.443 47.1571C201.23 46.4422 203.943 45.4593 206.535 44.2245C208.492 43.2903 210.377 42.2179 212.18 41.0075C213.878 39.8702 215.527 38.6192 216.99 37.1813C218.582 35.6134 219.955 33.7693 220.702 31.6409C220.727 31.5841 220.759 31.5272 220.792 31.4866C220.792 31.4216 220.808 31.3566 220.816 31.2997C220.84 31.0723 220.995 30.8773 221.238 30.8773C221.45 30.8773 221.685 31.0723 221.661 31.2997C221.246 35.6703 219.207 39.7402 216.234 42.9328C213.058 46.3529 208.85 48.6519 204.39 49.911C201.782 50.6503 199.077 51.0402 196.364 51.1458C196.283 51.1458 196.218 51.1296 196.161 51.1052V51.089Z" fill="#B0D8D8"/>
<path d="M162.325 81.3171C164.356 79.5705 166.094 77.5071 167.467 75.2C167.589 74.9969 167.841 74.9481 168.044 75.0456C170.774 76.4023 174.088 77.9864 177.11 76.5241C177.784 76.1992 178.394 75.728 178.824 75.1025C178.954 74.9156 179.198 74.8263 179.401 74.9481C179.498 75.005 179.563 75.1025 179.596 75.2081C180.725 73.9977 181.269 72.178 181.611 70.602C181.635 70.472 181.708 70.3908 181.797 70.342C181.716 69.7734 181.594 69.2128 181.432 68.6685H181.424C181.286 68.6361 181.164 68.5467 181.115 68.3761C180.92 67.6775 180.693 66.987 180.441 66.3046C180.4 66.2315 180.36 66.1502 180.311 66.0771C180.254 65.9877 180.246 65.8984 180.254 65.8171C180.116 65.4597 179.97 65.1023 179.815 64.7529C179.726 64.5417 179.758 64.298 179.97 64.1762C180.148 64.0706 180.457 64.1193 180.546 64.3305C180.701 64.6717 180.839 65.0129 180.985 65.3622C183.52 66.4752 186.241 67.3281 189.036 67.2632C191.294 67.2144 193.577 66.4752 195.291 64.9642C196.201 64.168 196.932 63.1688 197.338 62.0234C197.395 61.8609 197.533 61.7391 197.695 61.7147C197.736 61.4222 197.777 61.1298 197.809 60.8373C197.834 60.6099 197.988 60.4149 198.232 60.4149C198.443 60.4149 198.678 60.6099 198.654 60.8373C198.321 63.6969 197.655 66.8488 195.291 68.7498C192.862 70.7076 189.482 71.0163 186.501 70.5126C185.096 70.277 183.731 69.8302 182.456 69.2047C182.959 71.39 182.886 73.7133 182.147 75.8174C181.619 77.3202 180.725 78.7256 179.385 79.6274C177.898 80.6266 176.013 80.7728 174.299 80.3991C172.447 79.9929 170.806 78.9775 169.287 77.8726C168.597 79.9361 166.704 81.5445 164.575 81.967C163.893 82.1051 163.211 82.1132 162.52 82.0076C162.211 81.9588 162.106 81.4958 162.333 81.3008L162.325 81.3171Z" fill="#B0D8D8"/>
<path d="M165.339 56.8405C166.493 57.8397 167.654 58.847 168.897 59.7325C169.515 60.1712 170.157 60.5855 170.823 60.9511C171.489 61.3166 172.179 61.6659 172.91 61.8772C173.625 62.0884 174.462 62.1127 174.982 61.4953C175.063 61.3979 175.201 61.3654 175.323 61.3816C175.38 61.1135 175.437 60.8454 175.494 60.5774C175.543 60.3499 175.802 60.228 176.014 60.2849C176.249 60.3499 176.355 60.5774 176.306 60.8048C176.062 62.0071 175.786 63.2257 174.99 64.2005C174.243 65.1185 173.114 65.5734 171.944 65.3135C170.774 65.0616 169.799 64.233 168.946 63.445C168.077 62.6408 167.297 61.739 166.598 60.7805C165.827 59.7163 165.185 58.5627 164.673 57.3523C164.486 56.9217 164.957 56.5074 165.339 56.8405Z" fill="#B0D8D8"/>
<path d="M189.117 51.5358C188.28 50.9509 187.468 50.3416 186.672 49.7079C186.387 49.4805 186.623 48.9687 186.972 48.9849C188.629 49.0743 190.278 48.4813 191.481 47.3358C191.651 47.1734 191.854 47.1896 192.009 47.2952C192.09 47.1977 192.22 47.1328 192.342 47.1328C192.594 47.1328 192.74 47.3277 192.764 47.5552C192.976 49.5617 191.562 51.5683 189.62 52.0963C189.247 52.2019 189.027 51.812 189.117 51.5358Z" fill="#B0D8D8"/>
<path d="M176.355 50.9264C178.101 51.7794 179.848 52.6324 181.602 53.4773C182.423 53.8753 183.252 54.2653 184.145 54.4684C184.892 54.6389 185.68 54.6796 186.444 54.5577C187.338 54.4115 188.183 54.0865 188.922 53.5666C188.946 53.5504 188.971 53.5341 188.995 53.526C188.995 53.4935 189.003 53.4529 189.011 53.4204C189.036 53.1929 189.19 52.998 189.434 52.998C189.645 52.998 189.88 53.1929 189.856 53.4204C189.759 54.4521 189.222 55.3863 188.418 56.0362C187.516 56.7592 186.379 57.0842 185.226 57.0517C182.797 56.9948 180.66 55.565 178.751 54.2003C177.687 53.4448 176.671 52.608 175.851 51.5763C175.558 51.2026 175.916 50.6908 176.363 50.9102L176.355 50.9264Z" fill="#B0D8D8"/>
<path d="M163.333 79.7655C165.128 78.3601 166.485 76.451 167.183 74.2739C167.256 74.0383 167.573 73.8515 167.809 74.0221C170.343 75.8336 173.593 77.174 176.712 76.2154C177.98 75.8255 179.198 75.07 179.986 73.9896C180.896 72.7385 181.148 71.1788 180.888 69.6678C180.563 67.7668 179.653 66.0284 178.703 64.3793C178.483 64.0056 178.914 63.5994 179.279 63.8025C181.578 65.0617 184.015 66.1259 186.615 66.5321C188.817 66.8732 191.132 66.6539 193.163 65.6953C195.145 64.753 196.721 63.1445 197.387 61.0242C198.086 58.7821 197.818 56.3369 196.956 54.1841C196.047 51.9176 194.503 49.9517 192.822 48.2051C192.627 48.002 192.432 47.807 192.237 47.6121C191.822 48.2701 191.14 48.7088 190.425 48.9931C189.621 49.3099 188.727 49.4399 187.866 49.4967C187.622 49.513 187.387 49.5211 187.143 49.5211C187.338 49.643 187.533 49.7567 187.728 49.8786C188.264 50.2035 188.817 50.5447 189.247 51.0077C189.653 51.4464 189.97 52.0151 189.913 52.6244C189.856 53.258 189.491 53.7535 188.987 54.1191C188.483 54.4765 187.874 54.6634 187.273 54.7771C186.55 54.9233 185.819 54.9721 185.088 54.9315C183.617 54.8502 182.188 54.4359 180.855 53.8185C179.393 53.1443 178.061 52.2344 176.785 51.2677C176.607 51.1296 176.509 50.9021 176.631 50.6909C176.737 50.5122 177.029 50.3985 177.208 50.5366C179.279 52.1207 181.554 53.5586 184.17 53.9891C185.388 54.1922 186.745 54.1678 187.915 53.7292C188.321 53.5748 188.76 53.323 188.963 52.9249C189.166 52.5269 189.036 52.0963 188.768 51.7551C188.41 51.2921 187.89 50.9753 187.403 50.6747C186.704 50.2522 186.006 49.8217 185.307 49.3993C185.267 49.3993 185.226 49.3911 185.185 49.383C183.146 49.0987 181.197 48.3919 179.344 47.5146C179.141 47.4171 179.084 47.1165 179.19 46.9378C179.312 46.7266 179.564 46.686 179.767 46.7834C181.522 47.6121 183.447 48.3107 185.413 48.5788C185.47 48.5788 185.535 48.5788 185.6 48.6031C186.843 48.7494 188.102 48.725 189.336 48.4407C190.035 48.2782 190.75 48.0182 191.262 47.4983C191.676 47.0759 191.928 46.4179 191.757 45.833C191.587 45.2481 191.018 44.9637 190.474 44.8094C189.759 44.6063 189.012 44.5576 188.289 44.4276C186.363 44.0864 184.479 43.5421 182.667 42.8029C182.456 42.7135 182.31 42.5185 182.374 42.2829C182.431 42.0798 182.683 41.9011 182.894 41.9905C184.633 42.6972 186.436 43.2334 188.28 43.5746C189.06 43.7208 189.873 43.7777 190.644 43.9808C191.359 44.1676 192.074 44.5413 192.423 45.2318C192.683 45.7436 192.708 46.3204 192.57 46.8566C192.627 46.8728 192.675 46.8972 192.732 46.9378H192.748C195.096 46.9378 197.436 46.686 199.727 46.1823C202.026 45.6705 204.276 44.9231 206.421 43.9402C208.565 42.9572 210.612 41.7468 212.505 40.3414C214.39 38.9441 216.112 37.3356 217.647 35.5566C219.288 33.6556 220.783 31.5191 221.482 29.082C221.571 28.7814 221.644 28.4727 221.701 28.1722C221.742 27.9447 222.01 27.8228 222.221 27.8797C222.457 27.9447 222.562 28.1722 222.513 28.3996C222.286 29.5288 221.896 30.6011 221.384 31.6166C225.779 31.5678 230.158 31.1129 234.471 30.2681C238.907 29.3988 243.261 28.1153 247.453 26.4418C249.817 25.4995 252.124 24.4272 254.366 23.2411C254.846 22.9893 255.276 23.7204 254.797 23.9722C250.751 26.1169 246.494 27.8716 242.116 29.2201C237.745 30.5686 233.261 31.4947 228.72 32.0146C226.169 32.3071 223.61 32.4533 221.043 32.4777C221.002 32.4777 220.97 32.4777 220.937 32.4614C220.353 33.4769 219.662 34.4436 218.923 35.3535C217.412 37.23 215.681 38.9279 213.789 40.4226C211.88 41.9255 209.816 43.2334 207.639 44.3057C205.47 45.3699 203.187 46.2148 200.84 46.7997C198.492 47.3846 196.079 47.7258 193.666 47.7827C193.634 47.7827 193.601 47.7827 193.577 47.7827C194.869 49.1393 196.063 50.6178 196.973 52.2507C197.038 52.2263 197.119 52.2263 197.208 52.2507C200.547 53.2824 203.894 54.2978 207.273 55.1996C210.645 56.1013 214.049 56.8893 217.493 57.4742C220.808 58.0347 224.163 58.3921 227.518 58.4571C230.767 58.5221 234.025 58.3272 237.225 57.7829C240.41 57.2467 243.546 56.3694 246.511 55.0939C246.884 54.9315 247.258 54.7609 247.624 54.5903C247.827 54.4928 248.079 54.5334 248.2 54.7446C248.306 54.9315 248.257 55.2239 248.046 55.3214C245.081 56.7187 241.945 57.7179 238.728 58.3596C235.487 59.0095 232.172 59.302 228.874 59.3101C225.495 59.3182 222.132 59.0258 218.793 58.5303C215.292 58.0103 211.831 57.2548 208.403 56.3694C204.983 55.492 201.603 54.4847 198.224 53.453C197.964 53.3717 197.704 53.2905 197.444 53.2174C198.159 54.7609 198.589 56.4343 198.63 58.1241C198.727 58.0997 198.833 58.0997 198.947 58.1647C201.408 59.5295 203.959 60.7318 206.575 61.7553C209.215 62.787 211.928 63.6482 214.682 64.3305C217.412 65.0048 220.182 65.5085 222.977 65.8334C225.787 66.1502 228.614 66.2965 231.433 66.2477C234.244 66.2071 237.055 65.9796 239.833 65.5653C240.182 65.5166 240.54 65.4597 240.889 65.3947C241.117 65.3541 241.344 65.4516 241.409 65.6872C241.466 65.8903 241.344 66.1665 241.117 66.2071C238.281 66.6783 235.414 66.9707 232.538 67.0601C229.687 67.1494 226.835 67.0601 224 66.7758C221.141 66.4914 218.289 66.0284 215.487 65.3866C212.708 64.7448 209.971 63.9244 207.306 62.9333C204.617 61.9259 201.985 60.748 199.45 59.3995C199.166 59.2533 198.89 59.0989 198.614 58.9446C198.589 59.4645 198.524 59.9763 198.411 60.488C197.948 62.6652 196.648 64.5174 194.828 65.7522C194.893 65.7847 194.958 65.8334 195.007 65.9146C197.192 69.3834 199.8 72.576 202.749 75.4356C205.689 78.2789 208.955 80.7728 212.481 82.8606C214.455 84.0304 216.51 85.0702 218.63 85.9557C218.842 86.0451 218.996 86.2319 218.923 86.4756C218.866 86.6706 218.614 86.8574 218.403 86.7681C214.544 85.1433 210.889 83.0718 207.517 80.5778C204.17 78.1001 201.116 75.2406 198.443 72.048C196.924 70.2446 195.535 68.3355 194.276 66.3371C194.235 66.264 194.211 66.199 194.211 66.134C192.228 67.2551 189.897 67.6937 187.647 67.5231C187.094 67.4825 186.55 67.4094 186.014 67.3038C187.322 70.2608 189.109 72.9822 191.189 75.4437C193.35 78.0027 195.795 80.3016 198.362 82.4463C199.8 83.6486 201.278 84.794 202.781 85.9232C202.96 86.0613 203.057 86.2888 202.935 86.5C202.83 86.6787 202.537 86.7924 202.359 86.6543C199.629 84.6072 196.948 82.4707 194.471 80.1229C192.034 77.8158 189.783 75.2893 187.915 72.4948C186.867 70.9269 185.957 69.2697 185.202 67.5394C185.145 67.4013 185.137 67.2551 185.202 67.1332C183.447 66.7189 181.757 66.0284 180.149 65.2241C181.578 67.9456 182.699 71.2032 181.026 74.0221C180.254 75.33 178.995 76.2723 177.606 76.841C177.443 76.906 177.281 76.9628 177.118 77.0197C177.647 79.4974 178.565 81.8695 179.848 84.0548C180.222 84.6884 180.628 85.3058 181.058 85.907C181.188 86.0938 181.091 86.3781 180.904 86.4837C180.693 86.6056 180.457 86.5162 180.327 86.3294C178.776 84.1766 177.59 81.7639 176.81 79.2212C176.607 78.5632 176.436 77.897 176.298 77.2309C175.161 77.4665 173.983 77.4584 172.829 77.2471C171.034 76.9141 169.344 76.1017 167.833 75.0863C167.053 77.1659 165.713 79.0262 163.958 80.3991C163.779 80.5372 163.536 80.5778 163.357 80.3991C163.211 80.2529 163.178 79.9442 163.357 79.798L163.333 79.7655Z" fill="#2E180E"/>
<path d="M166.135 57.198C167.898 58.8389 169.799 60.5936 172.179 61.2517C172.723 61.3979 173.292 61.5035 173.861 61.4872C174.291 61.471 174.787 61.3735 175.104 61.0892C176.046 60.2362 174.616 58.7821 174.088 58.1078C173.04 56.7674 171.992 55.4189 170.944 54.0785C170.806 53.8997 170.766 53.656 170.944 53.4773C171.09 53.3311 171.399 53.2986 171.545 53.4773C172.561 54.7771 173.576 56.0769 174.584 57.3767C175.388 58.4084 176.801 59.83 176.046 61.2517C175.445 62.389 173.918 62.4215 172.821 62.259C171.489 62.064 170.238 61.4791 169.125 60.748C167.833 59.9031 166.679 58.8633 165.55 57.8072C165.152 57.4335 165.753 56.8405 166.151 57.2061L166.135 57.198Z" fill="#2E180E"/>
<path d="M140.936 37.1542C131.334 37.1542 122.292 35.8969 115.446 33.6235C105.756 30.3976 103.724 26.2446 103.724 23.3362C103.724 20.4278 105.756 16.2875 115.446 13.0489C122.279 10.7756 131.334 9.51825 140.936 9.51825C150.537 9.51825 159.58 10.7756 166.425 13.0489C176.116 16.2748 178.148 20.4278 178.148 23.3362C178.148 26.2446 176.116 30.3849 166.425 33.6235C159.592 35.8969 150.537 37.1542 140.936 37.1542ZM140.936 13.7602C131.779 13.7602 123.206 14.9413 116.792 17.075C110.277 19.2467 107.966 21.736 107.966 23.3362C107.966 24.9365 110.29 27.4257 116.792 29.5975C123.206 31.7311 131.779 32.9123 140.936 32.9123C150.093 32.9123 158.665 31.7311 165.079 29.5975C171.493 27.4638 173.906 24.9365 173.906 23.3362C173.906 21.736 171.582 19.2467 165.079 17.075C158.576 14.9032 150.093 13.7602 140.936 13.7602Z" fill="#FFCF01"/>
<path d="M140.936 39.6943C131.08 39.6943 121.745 38.3989 114.646 36.0239C103.52 32.3154 101.184 27.0702 101.184 23.3363C101.184 19.6024 103.52 14.3571 114.646 10.6486C121.733 8.28634 131.08 6.97821 140.936 6.97821C150.791 6.97821 160.126 8.27364 167.225 10.6486C178.351 14.3571 180.688 19.6024 180.688 23.3363C180.688 27.0702 178.351 32.3154 167.225 36.0239C160.139 38.3862 150.804 39.6943 140.936 39.6943ZM110.569 23.3363C111.001 23.984 112.817 25.5969 117.592 27.1845C123.752 29.2419 132.045 30.3722 140.936 30.3722C149.826 30.3722 158.107 29.2419 164.279 27.1845C169.054 25.5969 170.87 23.984 171.302 23.3363C170.87 22.6885 169.054 21.0756 164.279 19.488C158.119 17.4306 149.826 16.3003 140.936 16.3003C132.045 16.3003 123.765 17.4306 117.592 19.488C112.817 21.0756 111.001 22.6885 110.569 23.3363Z" fill="#FFCF01"/>
</svg>
