<?xml version="1.0" encoding="UTF-8"?><svg xmlns="http://www.w3.org/2000/svg" xmlns:xlink="http://www.w3.org/1999/xlink" viewBox="0 0 390 193"><defs><style>.e{fill:none;}.f{fill:#fff;}.g{fill:#ffcf01;}.h{fill:#7dd7d8;}.i{fill:#934a7d;}.j{fill:#a9e5e5;}.k{fill:#be92b1;}.l{fill:#d4f2f2;}.m{fill:#52cacb;}.n{clip-path:url(#d);}</style><clipPath id="d"><rect class="e" x=".52" y=".48" width="390" height="193"/></clipPath></defs><g id="a"/><g id="b"/><g id="c"><g class="n"><rect class="j" x="-.48" y=".48" width="396" height="194"/><g><path class="m" d="M468.31,81.39C429.36,29.72,360.49,5.98,295.59,27.28c-70.59,23.18-113.38,92.05-106.31,163.04l15.66-.06c-7.1-64.4,31.5-127.16,95.51-148.18,58.52-19.21,120.64,2.29,155.65,48.98,8.92,11.9,16.09,25.43,20.98,40.35l14.79-4.86c-5.49-16.71-13.53-31.86-23.56-45.16Z"/><path class="h" d="M456.1,91.06c-35.01-46.7-97.12-68.19-155.65-48.98-64.01,21.02-102.61,83.78-95.51,148.18l15.67-.06c-7.15-57.8,27.27-114.47,84.7-133.33,53.98-17.72,111.41,3.54,141.77,48.36,6.35,9.36,11.51,19.76,15.21,31.04l14.8-4.86c-4.9-14.91-12.06-28.45-20.98-40.35Z"/><path class="j" d="M447.07,105.22c-30.36-44.82-87.78-66.08-141.77-48.36-57.43,18.86-91.84,75.52-84.7,133.33l15.69-.06c-7.22-51.2,23.01-101.78,73.86-118.48,51.22-16.81,105.97,6.48,130.23,52.68,2.79,5.3,5.17,10.9,7.1,16.78l14.79-4.85c-3.71-11.28-8.87-21.68-15.21-31.04Z"/></g><path class="l" d="M274.53,153.21c-2.47,0-4.82,.53-6.95,1.45-1.68-10.06-10.44-17.71-20.96-17.67-4.49,.02-8.65,1.44-12.06,3.84-5.18-9.3-15.13-15.58-26.54-15.54-16.3,.06-29.53,13.03-30.08,29.19-2.93-1.59-6.29-2.49-9.86-2.48-11.35,.05-20.51,9.28-20.47,20.63,.05,11.35,9.28,20.51,20.63,20.47,.04,0,.08,0,.12,0,1.26,12.65,11.95,22.51,24.92,22.46,9.42-.04,17.6-5.3,21.82-13.02,2.13,.99,4.49,1.55,6.98,1.54,4.17-.02,7.97-1.6,10.86-4.17,3.63,4.48,9.18,7.34,15.4,7.32,10.9-.04,19.69-8.91,19.65-19.81,0-.03,0-.06,0-.09,2.07,.83,4.32,1.3,6.68,1.29,9.77-.04,17.66-7.99,17.63-17.77-.04-9.77-7.99-17.66-17.77-17.63Z"/><path class="l" d="M487.8,98.41c-2.84,.01-5.55,.61-8,1.67-1.93-11.59-12.02-20.4-24.14-20.35-5.17,.02-9.96,1.65-13.89,4.42-5.97-10.71-17.43-17.94-30.56-17.89-18.78,.07-34.01,15-34.64,33.61-3.38-1.83-7.25-2.87-11.36-2.85-13.07,.05-23.62,10.69-23.57,23.76,.05,13.07,10.69,23.62,23.76,23.57,.05,0,.09,0,.13,0,1.45,14.57,13.76,25.92,28.7,25.86,10.85-.04,20.27-6.1,25.13-15,2.45,1.14,5.17,1.78,8.04,1.77,4.81-.02,9.18-1.84,12.51-4.8,4.18,5.16,10.58,8.45,17.74,8.42,12.55-.05,22.68-10.26,22.63-22.81,0-.04,0-.07,0-.11,2.38,.96,4.97,1.49,7.7,1.48,11.25-.04,20.34-9.2,20.3-20.46-.04-11.25-9.2-20.34-20.46-20.3Z"/><g><g><g><path class="i" d="M290.32,23.92c-.71,.77-1.65,1.28-2.61,1.72-1.48,.67-3.03,1.17-4.55,1.76-1.08,.42-2.14,.88-3.14,1.47-1.06,.62-1.9,1.58-3.02,2.05-.12,.05-.58,.26-1.11,.48-.78,.33-1.67,.69-1.76,.6-.26-.26-.24-.68-.19-1.04,.02-.13,.04-.26,.05-.38v-.04c.18-1.26,.46-2.56,.87-3.85,1.02-3.24,2.79-6.36,5.51-8.18,1.59-1.07,3.36-2.05,5.25-2.46,1.7-.37,4.61-.18,4.59,2.14,0,.65-.14,1.33,.07,1.95,.19,.53,.61,.95,.78,1.49,.25,.81-.16,1.69-.73,2.32Z"/><path class="k" d="M283.16,27.4c-1.08,.42-2.14,.88-3.14,1.47-1.06,.62-1.9,1.58-3.02,2.05-.12,.05-.58,.26-1.11,.48-.15-.03-.3-.07-.44-.11-.52-.16-1.02-.4-1.47-.71v-.04c.18-1.26,.46-2.56,.87-3.85,1.2-.44,2.54-.46,3.82-.39,1.55,.08,3.17,.31,4.49,1.11Z"/></g><path class="i" d="M337.56,62.82c-3.53-.97-12.01,5.63-10.87,6.29,5.72,3.36,4.97,11.06,8.95,14.35,4.39,3.63,9.88,1.97,14.07,1.74,0,0,4.53,.42,5.88,1.18,1.64,.92,4.3,2.75,6.4-.81,0,0,.4-.73-.61-1.29-.68-.37-3.34-1.55-3.88-2.32-.54-.77-1.54-1.74-2.39-1.29-.85,.45-2.58,.34-3.59-.2-1.01-.55,1.37-11.78-7.1-15.25-2.9-1.19-5.16-1.94-6.87-2.41Z"/><path class="k" d="M361.51,86.19s-.07,.46-.09,.5c-.06,.16-.16,.3-.29,.42-.12,.12-.27,.22-.43,.28-.15,.06-.37,.01-.5,.1-.38,.24-.74,.29-1.19,.26-.46-.03-.92-.15-1.35-.31-.73-.26-1.4-.67-2.07-1.05-1.35-.76-5.88-1.18-5.88-1.18-4.2,.22-9.68,1.89-14.08-1.75-.62-.52-1.13-1.14-1.57-1.85,.39-.79,.75-1.59,.82-2.44,.12-1.44-.61-2.85-.46-4.29,.17-1.65,1.55-3.02,3.15-3.5,.66-.19,1.43-.28,2.2-.23,.77,.06,1.51,.25,2.11,.63,1.31,.82,2.39,1.35,3.95,1.68,1.67,.35,3.34,.66,5.02,.96,.48,3.11,.2,5.79,.68,6.05,1.01,.55,2.73,.66,3.59,.2,.85-.45,1.85,.52,2.39,1.29,.54,.77,3.2,1.94,3.88,2.32,.31,.17,.63,.49,.74,.85,.04,.13,.05,.27,.02,.41-.07,.31-.33,.58-.64,.64Z"/><path class="k" d="M362.13,85.14c-.47,.01-.94,0-1.41-.03-2.77-.23-5.31-1.54-7.95-2.42-3.17-1.05-6.67-1.57-9.21-3.74-2.25-1.92-3.53-4.86-3.79-7.79,.77,.06,1.51,.25,2.11,.63,1.31,.82,2.39,1.35,3.95,1.68,1.67,.35,3.34,.66,5.02,.96,.48,3.11,.2,5.79,.68,6.05,1.01,.55,2.73,.66,3.59,.2,.85-.45,1.85,.52,2.39,1.29,.54,.77,3.2,1.94,3.88,2.32,.31,.17,.63,.49,.74,.85Z"/><path class="i" d="M279.71,77.51h0c-1.99,.52-4.85,.74-7.56,.92-3.84,.25-7.4,.42-7.77,1.2-.63,1.33-2.1,3.06-2.66,3.7-.55,.64-4.22,1.65-6.07,1.82-1.85,.17-2.07-.8-2.07-.8-1.81-5.87,3.59-7.91,4.25-8.19,.65-.28,6.26-3.74,8.99-5.17,.54-.28,1.31-.7,2.22-1.18,3.08-1.64,7.63-4.06,9.27-4.81,.34-.16,.56-.24,.6-.22,4.51,1.74,5.62,11.49,.8,12.74Z"/><path class="k" d="M264.79,79.3c-.21,.09-.35,.2-.41,.33-.1,.21-.21,.42-.33,.62-.37,.62-.81,1.18-1.23,1.77-.51,.71-.76,1.51-1.48,2.09-.53,.42-1.25,.65-1.88,.42-.73,.94-2.11,1.32-3.22,.88-.3,.36-.86,.42-1.31,.26-.61-.22-1.11-.69-1.35-1.29,0,0,0-.01-.01-.02-.81-2.09-.32-4.57,1.2-6.18,.86-.91,1.92-1.51,3.05-2,.35-.15,2.05-1.17,3.99-2.32,.73,.06,1.49,.3,1.77,.95,.31,.73-.14,1.57-.03,2.35,.05,.36,.22,.69,.39,1.01,.2,.37,.41,.75,.73,1.04,.04,.04,.08,.07,.13,.1Z"/><path class="i" d="M279.71,77.51h0c-1.99,.52-4.85,.74-7.56,.92-.73-1.11-1.34-2.29-1.81-3.53-.63-1.64-1.05-3.36-1.29-5.1,3.08-1.64,7.63-4.06,9.27-4.81,.1,.1,.19,.22,.27,.34,.49,.71,.72,1.56,.91,2.4,.59,2.65,.8,5.38,.65,8.09-.02,.38-.05,.76-.16,1.11-.06,.21-.15,.4-.27,.58Z"/><path class="g" d="M338.89,35.08l-39.33,14.18c-.24-1-.86-1.86-1.86-2.59-1.9-.73-4.08,.78-5.47,1.89-.02,.02-.05,.04-.08,.04-.07,0-.12-.06-.15-.12-.5-.95-.78-2-1.06-3.04,1.87-.06,3.54-.5,5.28-1.25,4.27-1.84,8.01-4.84,11.32-8.06,9.66-9.41,18.49-11.15,26.15-6.42,0,0,2.73,1.67,5.2,5.37Z"/><path class="g" d="M273.3,68.16s-3.48-1.44-2.42-5.18c1.07-3.73,7.15-5.19,7.15-5.19l-3.45,10.15-1.28,.22Z"/><path class="i" d="M360.63,36.63c-.15-.06-.33-.06-.54,.04-1.6,.73-.83,4.02-.95,5.36-.18,2.1-.74,4.16-1.6,6.09-1.72,3.84-4.69,7.15-8.44,9.11-2.2,1.15-3.53,2.15-2.13,4.7,.3,.52,4.76-2.04,5.21-2.34,1.62-1.09,3.04-2.46,4.25-3.98,3.03-3.79,4.62-8.45,4.89-13.27,.05-.86,.42-5.24-.7-5.71Z"/><path class="i" d="M292.75,48.7s.78,3.37,7.08,6.11c6.3,2.74,18.6-6.3,40.9-1.75,22.3,4.55,19.07,14.54,17.3,16.69-1.76,2.15-12.4,.58-21.78-.26-16.03-1.43-21.51,11.69-31.37,14.94-5.51,1.82-25.37,5.04-30.38-9.12-3.19-9.01,2.16-11.51,3.06-22.46l15.18-4.16Z"/><path class="i" d="M281.12,51.51c-.77-.08-1.66-1.23-2.51-2.76-1.2-2.15-2.32-5.03-2.91-6.64-.28-.75-.44-1.22-.44-1.22l4.74-1.22,9.3-2.38s0,.05,.01,.07c.09,.44,.54,2.83,.66,3.87,.13,1.15,1.27,5.29,1.49,5.73,.23,.44-7.97,4.81-10.34,4.55Z"/><path class="g" d="M291.45,46.81c-2.21,1.28-4.58,2.29-7.04,2.98-1.99,.56-5.19,.68-6.32,2.77-.19,.36-.33,.77-.25,1.16,.09,.44,.45,.78,.86,.96,.41,.18,.87,.22,1.31,.23,2.95,.09,5.85-.76,8.61-1.81,1.73-.66,3.28-1.65,4.58-2.99,.04-.04,.09-.09,.1-.15,0-.06-.02-.12-.05-.17-.56-1.02-1.11-2.04-1.67-3.07-.05,.03-.09,.05-.14,.08Z"/><path class="k" d="M282.19,43.33c.06-.5,.07-1-.07-1.49-.17-.62-.55-1.12-1.04-1.51-.32-.26-.68-.48-1.07-.67l-4.74,1.22s-8.27,2.75-7.99,3.5c.58,1.61,3.11,5.03,11.33,4.37,1.92-1.16,3.3-3.19,3.58-5.42Z"/><path class="i" d="M275.71,42.11c-.3,.13-.61,.26-.91,.38-2.94,1.18-7,2.57-9.71,.17-.45-.4-.79-1.01-1.11-1.52-.6-.96-1.19-2.01-1.51-3.11-.45-1.54,.07-3.22,.56-3.49,.31-.17,2.98-.34,4.96-.52,1.18-.1,2.11-.2,2.18-.3,.41-.64,.61-1.46,.96-2.14,.53-1.03,1.2-1.75,2.16-2.4,1.9-1.29,4.24-1.93,6.53-1.74,.96,.08,1.91,.29,2.85,.54,2.36,.63,4.52,2.7,5.4,4.93,.54,1.39,1.03,2.89,1.27,4.37,0,.02,0,.05,.01,.07,.03,.21,.03,.35,0,.39-.14,.14-4.66,1.52-8.24,2.59-2.35,.7-4.29,1.28-4.29,1.28-.37,.18-.74,.34-1.09,.5Z"/><path class="k" d="M281.08,40.33c-.32-.26-.68-.48-1.07-.67-.43-.2-.88-.36-1.32-.48-1.28-.36-2.59-.56-3.92-.61-.95-.04-2.02-.03-2.68-.72-.54-.56-.62-1.41-1.01-2.08-.5-.84-1.46-1.3-2.4-1.56-.23-.06-.47-.13-.7-.18-1.29,.11-2.59,.2-3.88,.34-1.08,.12-2.03,.47-2.23,1.7-.11,.69,.07,1.39,.3,2.05,.66,1.88,1.78,3.59,3.22,4.96,1.77,1.68,4.83,.88,6.92,.27,1.16-.34,2.29-.76,3.39-1.25,.35-.16,.71-.32,1.09-.5,0,0,1.94-.57,4.29-1.28Z"/><path class="i" d="M262.82,34.7c.56-.25,1.49-.06,1.95,.07,.69,.2,2.63,1.11,2.06,2.03-.12,.2-.31,.35-.5,.49-.4,.29-.84,.54-1.32,.66s-1.01,.1-1.44-.14c-.61-.33-.95-1.23-1.13-1.87-.08-.3-.12-.64,.02-.91,.08-.15,.21-.26,.36-.33Z"/><path class="k" d="M282.5,32.95c.14-.03,.05-.65,.04-.79-.01-.22-.18-.47-.31-.64-.29-.39-.68-.71-1.1-.95-.41-.23-2.05-1.06-2.31-.27-.08,.24,.12,.47,.33,.61,.38,.26,.83,.4,1.25,.58,.71,.32,1.36,.78,1.89,1.36,.06,.06,.13,.13,.21,.11Z"/><path class="k" d="M274.67,28.99c.21,.13,.39,.35,.36,.62,0,.06-.02,.11-.05,.16-.05,.08-.15,.11-.25,.11-.5,0-.85-.38-1.38-.36-.14,0-.67,.04-.76,.18,.79-1.26,1.7-.93,2.09-.7Z"/><path class="g" d="M350.25,49.1s-17.88-1.01-35.79,6.58c-16.55,7.02-25.37,14.48-35.33,12.59l.89-2.32s7.13-.89,13.61-6.64c4.65-4.13,6.55-7.52,5.93-10.06l39.33-14.18s13.07,2.23,11.36,14.02Z"/><path class="i" d="M296.38,68.89s-7.05-.6-10.93,13.95c0,0-.53,2.78-2.2,4.06-1.68,1.28-5.67,4.3-6.69,5.28s-2.5,3.87-1.19,5.92c.07,.03,.15,.05,.23,.07,1.12,.31,2.31,.39,3.47,.35,1.02-.03,2.03-.17,3.03-.39,.29-.07,.58-.16,.87-.22,.24-.05,.38-.17,.55-.34,.38-.37,.67-.82,.94-1.28,.34-.6,.65-1.22,1.07-1.77,.36-.46,.67-.88,1.21-1.14,1.27-.63,11.85-1.77,16.64-9.38,4.79-7.61,3.91-10.46,3.83-10.93-.07-.47-4.12-4.27-10.82-4.17Z"/><path class="k" d="M287.07,93.25c-.15,.05-.27,.09-.35,.13-.18,.09-.34,.2-.49,.33-.61,.51-1,1.27-1.33,1.97-.47,1.01-.89,1.98-1.85,2.64-.42,.28-.91,.47-1.41,.52-.25,.03-.5,.02-.75-.03-.07-.01-.66-.19-.67-.18-.38,.34-.9,.52-1.41,.49-.51-.03-1-.27-1.34-.65-.34,.26-.79,.37-1.22,.28-.73-.15-1.11-.74-1.28-1.45,0,0,0,0,0,0-.17-.72-.13-1.55,0-2.14,.24-1.07,.78-2.2,1.57-2.97,.96-.92,4.59-3.68,6.4-5.06,.53,.06,1.06,.18,1.58,.42,.56,.26,1.15,.65,1.26,1.26,.19,1.01-1.04,2-.62,2.95,.14,.31,.43,.52,.71,.71,.39,.26,.8,.51,1.19,.79Z"/><path class="i" d="M344.68,56.32c-3.88-.55-7.62,2.06-8.13,5.95-.16,1.24,.03,2.5,.88,3.63,3.02,4,2.06,7.51,6.17,11.19,4.12,3.69,13.79,2.97,18.22,2.16,0,0,3.68-.99,5.22-.37,1.87,.76,4.94,2.33,6.69-1.73,0,0,.32-.83-.82-1.28-.77-.3-3.76-1.19-4.44-1.93-.68-.74-1.87-1.64-2.71-1.05-.84,.6-2.69,.72-3.84,.28s-.15-12.69-9.62-15.23c-3.24-.87-5.74-1.35-7.62-1.62Z"/><path class="i" d="M368.45,79.7c.58,.29,1.22,.46,1.87,.51,.64,.05,1.37-.07,1.75-.58,.06-.07,.1-.15,.18-.21,.09-.07,.21-.08,.33-.11,.69-.17,1.17-.95,1.01-1.65,.62-.66,0-1.53-.68-1.8-.77-.3-3.76-1.19-4.44-1.93-.68-.74-1.87-1.64-2.71-1.05-.84,.6-2.69,.72-3.84,.28-.08-.03-.15-.12-.21-.26-1.95,1.77-4.45,2.93-7.07,3.23-3.25,.38-6.63-.56-9.22-2.55-1.02-.79-1.94-1.74-3.08-2.34-.89-.47-1.79-.7-2.6-.68,.76,2.21,1.41,4.34,3.86,6.53,4.12,3.69,13.79,2.97,18.22,2.16,.71-.19,1.43-.33,2.15-.44,.59-.09,1.18-.15,1.78-.14,.96,.02,1.86,.61,2.69,1.02Z"/><g><g><path class="f" d="M276.66,34.73c-.51,1.31,.24,2.83,1.67,3.38s3-.07,3.51-1.38,.11-2.9-1.32-3.45-3.36,.14-3.86,1.45Z"/><path class="i" d="M277.61,35.32c-.42,1.1,.12,2.34,1.22,2.76s2.34-.12,2.76-1.22-.12-2.34-1.22-2.76-2.34,.12-2.76,1.22Z"/><g><circle class="f" cx="278.59" cy="34.59" r=".53"/><path class="f" d="M280.83,37.91s0-.06,0-.08c-.02-.16-.12-.3-.28-.36-.23-.09-.49,.02-.57,.25-.06,.16-.03,.33,.08,.45,.01,.02,.03,.03,.05,.05l.73-.31Z"/></g></g><g><path class="f" d="M270,32.16c-.51,1.31-.14,2.68,.82,3.05,.39,.15,.83,.11,1.23-.08,.2-.1,.4-.23,.58-.39,.35-.31,.64-.73,.84-1.24,.51-1.31,.02-2.93-.94-3.3s-2.02,.65-2.53,1.97Z"/><path class="i" d="M270.23,32.47c-.42,1.1-.07,2.26,.78,2.59s1.89-.29,2.32-1.39,.07-2.26-.78-2.59-1.89,.29-2.32,1.39Z"/><g><path class="f" d="M270.69,31.54c-.1,.27-.02,.56,.19,.64s.47-.07,.57-.34,.02-.56-.19-.64-.47,.07-.57,.34Z"/><path class="f" d="M271.96,34.63c-.06,.16-.04,.32,.03,.43,.02,.03,.04,.05,.07,.07,.2-.1,.4-.23,.58-.39,0-.02,0-.04,0-.06,0-.15-.08-.28-.2-.33-.18-.07-.39,.06-.48,.29Z"/></g></g></g><path class="k" d="M286.23,93.7c-.61,.51-1,1.27-1.33,1.97-.47,1.01-.89,1.98-1.85,2.64-.42,.28-.91,.47-1.41,.52-.25,.03-.5,.02-.75-.03-.07-.01-.66-.19-.67-.18-.38,.34-.9,.52-1.41,.49-.51-.03-1-.27-1.34-.65-.34,.26-.79,.37-1.22,.28-.73-.15-1.11-.74-1.28-1.45,.23,.29,.63,.43,1.01,.49,.47,.09,1.07,.03,1.27-.41,.31,.46,.83,.77,1.38,.82,.55,.05,1.12-.17,1.5-.56,.39,.32,.96,.27,1.44,.1,.88-.32,1.58-1,2.21-1.7,.62-.7,1.21-1.45,1.96-2.01,.15-.11,.31-.22,.48-.31Z"/><path class="k" d="M264.04,80.25c-.37,.62-.81,1.18-1.23,1.77-.51,.71-.76,1.51-1.48,2.09-.53,.42-1.25,.65-1.88,.42-.73,.94-2.11,1.32-3.22,.88-.3,.36-.86,.42-1.31,.26-.61-.22-1.11-.69-1.35-1.29,0,0,0-.01-.01-.02,.34,.13,.71,.19,1.07,.15,.52-.06,1.02-.34,1.3-.77,.1,.34,.46,.54,.8,.61,.84,.18,2.18-.25,2.36-1.2,.17,.2,.46,.29,.73,.28,.27-.01,.52-.11,.76-.24,1.08-.58,1.77-1.68,2.73-2.44,.23-.18,.47-.35,.73-.49Z"/><g><path class="i" d="M308.2,38.75c-.66,1.15-1.83,1.84-2.91,2.64-.47,.35-.93,.72-1.31,1.16-.42,.47-.74,1.03-1.2,1.47-.46,.44-1.1,.75-1.72,.6-.67-.17-1.09-.82-1.47-1.4-1.76-2.66-4.27-4.7-6.99-6.32-1.38-.82-2.82-1.53-4.28-2.19-.05-.02-.14-.07-.27-.15-.73-.43-2.52-1.59-2.51-1.64,.08-.39,.45-.63,.8-.83,.13-.07,.27-.15,.41-.22,4.29-2.24,10.01-3.7,14.65-1.96,3.27,1.22,9.38,4.34,6.8,8.84Z"/><path class="i" d="M302.28,39.35c.47,.39,.9,.83,1.27,1.31l-.23-.3c.34,.45,.64,.93,.88,1.44,.15,.32,.56,.6,.9,.69,.36,.1,.84,.05,1.16-.15s.6-.51,.69-.9l.05-.4c0-.27-.07-.52-.2-.76-.31-.64-.71-1.22-1.15-1.78-.37-.47-.78-.89-1.24-1.27-.14-.15-.3-.25-.48-.31-.18-.09-.37-.14-.58-.13-.37,0-.81,.16-1.06,.44s-.46,.66-.44,1.06c.02,.37,.14,.81,.44,1.06h0Z"/><path class="k" d="M305.29,41.39c-.47,.35-.93,.72-1.31,1.16-.42,.47-.74,1.03-1.2,1.47-.46,.44-1.1,.75-1.72,.6-.67-.17-1.09-.82-1.47-1.4-1.76-2.66-4.27-4.7-6.99-6.32-1.38-.82-2.82-1.53-4.28-2.19-.05-.02-.14-.07-.27-.15,.72,.07,1.43,.17,2.15,.25,1.07,.12,1.89,.64,2.8,1.22,1.99,1.27,3.78,2.84,5.41,4.55,.62,.65,1.23,1.33,2,1.81,.76,.47,1.73,.71,2.58,.41,.73-.26,1.25-.87,1.87-1.33,.13-.09,.33-.16,.42-.06Z"/></g><path class="i" d="M274.81,29.86c.61-.23,1.22-.42,1.86-.56,.27-.06,.54-.11,.82-.15,.18-.03,.18-.03,.01,0,.09-.01,.18-.02,.28-.03,.14-.01,.28-.03,.41-.04,.6-.04,1.2-.05,1.8,0,.16,.01,.32,.02,.48,.04,.07,0,.55,.07,.22,.02,.32,.05,.64,.11,.95,.18,.76,.17,1.66-.23,1.85-1.05,.17-.76-.23-1.66-1.05-1.85-2.79-.61-5.74-.46-8.42,.55-.73,.28-1.31,1.03-1.05,1.85,.23,.72,1.06,1.34,1.85,1.05h0Z"/></g><path class="i" d="M265.97,43.52s3.26,1.13,6.08-.55,3.5-3.96,3.93-3.01-1.56,3.62-2.74,4.55c-1.37,1.08-3.99,3.7-5.17,1.63s-2.1-2.62-2.1-2.62Z"/></g><path class="f" d="M246.38,22.2c-3.28-1.71-5.82-4.93-7.02-8.9-.16-.53-.91-.53-1.07,0-1.2,3.97-3.74,7.19-7.02,8.9-.16,.08-.37,.18-.6,.27-.66,.27-.66,1.2,0,1.47,.23,.09,.44,.19,.6,.27,3.25,1.7,5.77,4.87,6.99,8.78,.17,.56,.97,.56,1.14,0,1.22-3.92,3.73-7.09,6.99-8.78,.17-.09,.41-.19,.66-.3,.64-.26,.64-1.16,0-1.42-.26-.1-.49-.21-.67-.3Z"/><path class="f" d="M338.38,142.2c-3.28-1.71-5.82-4.93-7.02-8.9-.16-.53-.91-.53-1.07,0-1.2,3.97-3.74,7.19-7.02,8.9-.16,.08-.37,.18-.6,.27-.66,.27-.66,1.2,0,1.47,.23,.09,.44,.19,.6,.27,3.25,1.7,5.77,4.87,6.99,8.78,.17,.56,.97,.56,1.14,0,1.22-3.92,3.73-7.09,6.99-8.78,.17-.09,.41-.19,.66-.3,.64-.26,.64-1.16,0-1.42-.26-.1-.49-.21-.67-.3Z"/></g></g></svg>