<?xml version="1.0" encoding="UTF-8"?><svg xmlns="http://www.w3.org/2000/svg" viewBox="0 0 341.9 280.15"><defs><style>.d{fill:#8a8982;opacity:.4;}.d,.e,.f,.g,.h{mix-blend-mode:screen;}.e{fill:#bda4af;}.e,.f{opacity:.3;}.f{fill:#aca7a8;}.g{fill:#ada99f;opacity:.5;}.i{stroke:#ba5b45;stroke-linecap:round;stroke-linejoin:round;stroke-width:6.64px;}.i,.j,.k,.l{fill:none;}.h{fill:#98a5ac;opacity:.2;}.m{fill:#f39d81;}.n,.o{fill:#eeeded;}.p{fill:#f08a6e;}.q{fill:#e87e67;}.r{fill:#eedaae;}.s{fill:#ffe8bc;}.t{fill:#faeecc;}.u{fill:#ee7e67;}.v{fill:#e67058;}.w{fill:#999fa0;}.x{fill:#934a7d;}.y{fill:#b0b0af;}.a`{fill:#be92b1;}.aa{fill:#cd6d54;}.ab{fill:#d2c19b;}.ac{fill:#c7624a;}.ad{fill:#d47c61;}.ae{fill:#6fa2af;}.af{fill:#524643;}.ag{fill:#79c6c0;}.ah{fill:#baaca9;}.ah,.o,.ai,.aj{mix-blend-mode:multiply;}.ai{fill:#e3dbde;}.j{stroke-width:7.32px;}.j,.k,.l{stroke-miterlimit:10;}.j,.l{stroke:#eedaae;}.k{stroke:#524643;stroke-width:5.73px;}.l{stroke-width:5.49px;}.ak{isolation:isolate;}</style></defs><g class="ak"><g id="a"/><g id="b"><g><path class="ac" d="M313.62,76.68c-3.22-3.05-42.8-11.25-54.29-13.19-26.86-4.54-49.78-8.37-77.03-9.63-28.39-1.32-57.74,1.12-85.99,4.57-22.5,2.74-44.94,7.09-67.13,11.65-6.31,1.3-10.37,1.77-16.61,3.42-3.31,.88-4.65,4.74-4.58,6.88,.16,5.07,.18,9.01,.27,14.09,.08,4.82,.05,9.63,.01,14.45-.02,2.84,.1,5.68,.07,8.52-.02,2.49-.35,5.93,.96,7.71,1.01,1.37,5.48,1.29,7.29,1.29,2.84,0,5.67,0,8.51,0h27.32c5.81,0,11.62,0,17.44,0h39.16c7.05,0,14.1,0,21.15,0h21.83c7.35,0,14.7,0,22.05,0,7.25,0,14.5,0,21.75,0,7.02,0,14.04,0,21.06,0,6.71,0,13.41,0,20.12,0,6.31,0,12.61,0,18.91,0,5.73,0,11.47,0,17.2,0,4.9,0,9.8,0,14.7,0,3.83,0,7.66,0,11.48,0,2.7,0,5.4,0,8.09-.01,1.83,0,3.65-.01,5.48-.02,2.84,0,2.36-2.38,2.36-4.51,0-3.68,.04-7.37,.03-11.05-.03-9.42,0-18.83,.25-28.25,.06-2.25-.03-4.14-1.87-5.9Z"/><g><path class="i" d="M15.9,99.46c-.12,7.12,11.23,7.49,12.01,0"/><path class="i" d="M27.91,99.46c-.12,7.12,11.23,7.49,12,0"/><path class="i" d="M21.9,93.98c-.12,7.12,11.23,7.49,12.01,0"/><path class="i" d="M62.71,100.1c-.12,7.12,11.23,7.49,12.01,0"/><path class="i" d="M74.69,100.1c-.12,7.12,11.23,7.49,12.01,0"/><path class="i" d="M56.71,94.62c-.12,7.12,11.23,7.49,12.01,0"/><path class="i" d="M73.49,82.57c-.12,7.12,11.23,7.49,12,0"/><path class="i" d="M67.49,76.68c-.12,7.12,11.23,7.49,12.01,0"/><path class="i" d="M61.48,71.2c-.12,7.12,11.23,7.49,12,0"/><path class="i" d="M73.49,71.2c-.12,7.12,11.23,7.49,12,0"/><path class="i" d="M28.25,79.41c-.12,7.12,11.23,7.49,12.01,0"/><path class="i" d="M34.26,73.94c-.12,7.12,11.23,7.49,12.01,0"/><path class="i" d="M219.36,99.11c-.12,7.12,11.23,7.49,12,0"/><path class="i" d="M231.37,99.11c-.12,7.12,11.23,7.49,12,0"/><path class="i" d="M225.36,93.64c-.12,7.12,11.23,7.49,12.01,0"/><path class="i" d="M261.56,100.04c-.12,7.12,11.23,7.49,12.01,0"/><path class="i" d="M273.54,100.04c-.12,7.12,11.23,7.49,12.01,0"/><path class="i" d="M255.56,94.56c-.12,7.12,11.23,7.49,12,0"/><path class="i" d="M273.57,83.75c-.12,7.12,11.23,7.49,12,0"/><path class="i" d="M267.57,77.86c-.12,7.12,11.23,7.49,12,0"/><path class="i" d="M273.57,72.39c-.12,7.12,11.23,7.49,12,0"/><path class="i" d="M300.22,99.96c-.12,7.12,11.23,7.49,12,0"/><path class="i" d="M294.22,94.07c-.12,7.12,11.23,7.49,12,0"/><path class="i" d="M300.22,88.59c-.12,7.12,11.23,7.49,12,0"/><path class="i" d="M231.71,79.07c-.12,7.12,11.23,7.49,12.01,0"/><path class="i" d="M237.71,73.6c-.12,7.12,11.23,7.49,12.01,0"/></g><path class="e" d="M315.49,82.59v-.02c.06-2.25-.03-4.14-1.87-5.9-3.22-3.05-42.8-11.25-54.29-13.19-26.86-4.54-49.78-8.37-77.03-9.63-28.39-1.32-57.74,1.12-85.99,4.57-22.5,2.74-44.94,7.09-67.13,11.65-6.31,1.3-10.37,1.77-16.61,3.42-3.31,.88-4.65,4.74-4.58,6.88,.03,1.06,.06,2.07,.08,3.05,3.43-6.96,9.66-8.11,13.82-9.18,13.39-3.46,38.26-8.82,51.95-10.61,17.96-2.35,32.07-3.88,50.15-5.42,25.82-2.2,48.63-1.58,74.49,.25,12.66,.9,20.57,2.42,33.22,3.63,11.67,1.12,33.07,4.92,45.49,7.39,4.7,.94,14.37,2.2,22.8,5.49,3.71,.92,12.78,2.89,15.5,7.62Z"/><path class="p" d="M305.07,126.76c-.7,5.95-1.13,11.94-1.79,17.89-1.33,12.02-2.84,24.02-4.19,36.04-.24,2.18-.49,4.37-.74,6.56-.13,1.17-.26,2.34-.39,3.52-2.39,21.25-4.82,42.5-7.23,63.75-.33,2.86-.58,13.4-2.16,14.76-.07,.07-.14,.13-.23,.18-1.51,1-8.03,1.17-9.76,1.18-8.7,.02-13.48-.42-22.51-.42H44.59c-2.82,0-7.65,.42-9.14-1.46-1.16-1.47-1.46-3.57-1.61-5.32-.27-3.37-.49-6.77-.88-10.12-.69-6.07-1.37-12.14-2.06-18.2-.39-3.41-.78-6.83-1.16-10.25-2.94-25.81-5.84-51.64-8.79-77.45-.69-6.06-1.7-12.69-2.33-18.76-.44-4.2,2.95-8.37,8.5-8.61,7.29-.31,9.42-.05,15.46-.05H252.66c8.65,0,38.45-.77,44.73-.52,6.16,.25,8.36,1.52,7.69,7.27Z"/><path class="v" d="M291.98,243.5c-.28,2.4-.54,4.8-.82,7.19-.13,1.17-.27,2.35-.4,3.52,0,.1-.03,.21-.03,.31-.33,2.86-.58,13.4-2.16,14.76-.07,.07-.14,.13-.23,.18-1.51,1-8.03,1.17-9.76,1.18-8.7,.02-13.48-.42-22.51-.42H44.59c-2.82,0-7.65,.42-9.14-1.46-1.16-1.47-1.46-3.57-1.61-5.32-.02-.22-.03-.44-.05-.66-.09-1.17-.18-2.34-.28-3.51-.15-1.99-.33-3.97-.55-5.95-.37-3.27-.74-6.55-1.11-9.82H291.98Z"/><path class="o" d="M293.2,183.55c0,.35-.23,.62-.89,.63l-30.08,.03c-.66,0-.89-.28-.89-.63v-2.59c0-.35,.23-.63,.89-.63l30.08-.03c.66,0,.89,.28,.89,.63v2.59Z"/><path class="o" d="M254.76,183.14c0,.35-.23,.63-.89,.63l-30.08,.03c-.66,0-.89-.28-.89-.63v-2.59c0-.35,.23-.63,.89-.63l30.08-.03c.66,0,.89,.28,.89,.63v2.59Z"/><path class="o" d="M251.71,236.9c0,.33-.22,.59-.84,.59l-28.41,.03c-.62,0-.84-.26-.84-.59v-2.45c0-.33,.22-.59,.84-.59l28.41-.03c.62,0,.84,.27,.84,.59v2.45Z"/><path class="o" d="M287.93,236.7c0,.33-.22,.59-.84,.59l-28.41,.03c-.62,0-.84-.27-.84-.59v-2.45c0-.33,.22-.59,.84-.59l28.41-.03c.62,0,.84,.27,.84,.59v2.44Z"/><g><path class="ag" d="M266.09,152.98c-.7,.47-.93,2.89-1.08,4.89-.12,1.59-1.34,19.71-1.27,21.83l26.62-.02c.56-7.37,1.67-14.36,2.01-22.01,.05-1.21,.59-4.13-.36-4.92-.64-.53-2.67-.44-3.45-.43-2.39,.03-4.78,.02-7.16,.02-2.76,0-5.51,0-8.27,0-1.38,0-2.75,0-4.13,0-1.01,0-2,.02-2.91,.63Z"/><path class="h" d="M280.16,165.43c-2.87-4.32-5.75-8.64-8.42-13.1,.46,0,.93,0,1.39,0h1.5c1.87,2.9,3.75,5.81,5.64,8.7,3.94,6,6.6,11.82,10.09,18.11,0,.18,0,.35,0,.53h-2.55c-2.67-4.88-4.57-9.6-7.65-14.24Z"/><path class="h" d="M266.12,152.96c.9-.59,1.88-.61,2.88-.62,.29,0,.59,0,.88,0,3.05,5.16,6.41,10.11,9.7,15.11,2.63,4,4.01,8.04,6.4,12.22h-3.89c-5.68-9.03-10.55-17.51-15.97-26.71Z"/><path class="r" d="M262.88,180.53l28.71-.03,.04-.79c.28-5.22,.67-9.95,1.08-14.95,.17-2.05,.34-4.14,.5-6.31,.03-.36,.06-.72,.1-1.09,.21-2.23,.4-4.33-.76-5.28-.84-.68-1.99-.64-2.83-.62h-.27c-1.89,.03-4.12,.03-6.17,.03h-10.68c-1.3,0-2.6,0-3.91,.01-1.08,0-2.3,.01-3.46,.77-1,.65-1.03,2.16-1.06,3.22-.04,1.61-.02,3.21-.09,4.82-.15,3.44-.45,6.88-.65,10.32-.24,4.01-.47,7.8-.51,9.03l-.03,.86Zm14.32-10.46h-12.08c.19-3.18,.39-6.36,.48-8.36h12.1l-.5,8.36Zm-4.62-16.91h5.63l-.44,7.28h-12.12c.02-.49,.05-.91,.07-1.3,.05-.72,.09-1.4,.09-2.41v-.09c0-.8-.02-2.66,.32-2.98,.74-.48,1.61-.48,2.54-.49,1.3,0,2.6,0,3.9,0Zm19.05,4.04c-.04,.37-.07,.75-.1,1.12-.06,.72-.11,1.41-.17,2.11h-12.33l.44-7.27h3.78c2.06,0,4.29,0,6.19-.02h.29c.14,0,.29-.01,.44-.01,.42,0,1.02,.02,1.3,.26,.47,.38,.28,2.45,.15,3.82Zm-.6,7.41c-.15,1.84-.3,3.64-.43,5.44h-12.14l.51-8.36h12.31c-.08,.98-.16,1.95-.24,2.92Zm-1.04,14.21h-12.07l.45-7.5h12.12c-.19,2.44-.36,4.91-.5,7.5Zm-25.39,.02c.08-1.57,.25-4.44,.43-7.51h12.08l-.45,7.5h-12.06Z"/><path class="r" d="M293.2,182.09c0,.35-.23,.63-.89,.63l-30.08,.03c-.66,0-.89-.28-.89-.63v-2.59c0-.35,.23-.63,.89-.63l30.08-.03c.66,0,.89,.28,.89,.63v2.59Z"/><path class="g" d="M261.34,179.76v-.24c0-.35,.23-.63,.89-.63l30.08-.03c.66,0,.89,.28,.89,.63v.27h-31.86Z"/></g><g><path class="ag" d="M226,152.98c-.7,.47-.67,2.35-.67,3.77,0,1.59,.08,1.93,.09,3.52,.03,3.38,.05,6.77,.08,10.15,0,.97,.01,1.94,.03,2.9,.05,2.13,.11,4.25,.19,6.37l26.2-.02c0-7.39-.02-14.79-.25-22.18-.04-1.21,.23-3.96-.71-4.75-.64-.53-1.71-.44-2.49-.43-2.39,.03-4.77,.02-7.16,.02-2.76,0-5.52,0-8.27,0-1.38,0-2.75,0-4.13,0-1.01,0-2,.02-2.91,.63Z"/><path class="h" d="M240.07,165.43c-2.87-4.32-5.75-8.64-8.42-13.1,.47,0,.93,0,1.39,0h1.5c1.87,2.9,3.75,5.81,5.64,8.7,3.94,6,8.25,11.82,11.74,18.11,0,.18,0,.35,0,.53h-2.55c-2.67-4.88-6.22-9.6-9.3-14.24Z"/><path class="h" d="M226.03,152.96c.9-.59,1.88-.61,2.88-.62,.29,0,.58,0,.88,0,3.05,5.16,6.41,10.11,9.7,15.11,2.63,4,5.66,8.04,8.05,12.22h-3.89c-5.68-9.03-12.2-17.51-17.62-26.71Z"/><path class="r" d="M224.06,156.25c0,1.88,.09,3.75,.11,5.63,.02,2.85,.05,5.7,.07,8.55v.69c.01,.74,.02,1.48,.04,2.23,.05,2.13,.11,4.25,.19,6.38l.03,.81,28.7-.03v-.84c0-7.89-.03-15.01-.26-22.2,0-.22,0-.49,0-.8,.02-1.64,.05-3.68-1.05-4.57-.85-.68-1.99-.64-2.83-.62h-.27c-1.9,.03-3.79,.03-5.69,.03h-10.6c-1.3,0-2.6,0-3.91,.01-1.08,0-2.3,.01-3.46,.77-1.19,.78-1.07,2.74-1.07,3.97Zm8.44-3.07h5.68v7.28h-12.34v-.19c-.01-1.53-.12-3.06-.09-4.59,0-.41-.1-1.74,.32-2.01,.74-.48,1.61-.48,2.54-.49,1.3,0,2.6,0,3.9,0Zm-6.66,8.69v-.14h12.34v8.36h-12.27c-.03-2.73-.05-5.47-.07-8.22Zm25.42-5.22c0,.33,0,.63,0,.88,.03,.97,.06,1.95,.08,2.92h-11.9v-7.27h3.66c1.9,0,3.81,0,5.71-.02h.29c.14,0,.29-.01,.44-.01,.42,0,1.01,.02,1.3,.26,.47,.38,.44,2.39,.43,3.25Zm-11.82,5.06h11.93c.06,2.75,.1,5.52,.12,8.36h-12.04v-8.36Zm12.07,17.13h-12.06v-7.5h12.04c.02,2.43,.02,4.93,.02,7.5Zm-25.57-5.53c-.02-.65-.02-1.31-.03-1.96h12.27v7.5h-12.08c-.06-1.84-.12-3.69-.16-5.54Z"/><path class="r" d="M254.75,182.09c0,.35-.23,.63-.89,.63l-30.08,.03c-.66,0-.89-.28-.89-.63v-2.59c0-.35,.23-.63,.89-.63l30.08-.03c.65,0,.89,.28,.89,.63v2.59Z"/><path class="g" d="M222.9,180.01v-.48c0-.35,.23-.63,.89-.63l30.08-.03c.65,0,.89,.28,.89,.63v.51h-31.86Z"/></g><g><path class="ag" d="M224.52,208.4c-.66,.45-.64,2.22-.63,3.56,0,1.5,.07,1.82,.08,3.32,.02,3.19,.05,6.38,.08,9.58,0,.91,.01,1.83,.03,2.74,.05,2,.1,4.01,.18,6.01l24.72-.02c0-6.97-.03-13.95-.24-20.92-.03-1.14,.21-3.74-.67-4.48-.6-.5-1.61-.42-2.34-.41-2.25,.02-4.5,.02-6.75,.02-2.6,0-5.2,0-7.81,0-1.3,0-2.6,0-3.9,.01-.95,0-1.89,.02-2.75,.6Z"/><path class="h" d="M237.8,220.16c-2.71-4.08-5.43-8.15-7.94-12.35,.44,0,.88,0,1.31,0h1.42c1.77,2.74,3.54,5.48,5.32,8.21,3.72,5.66,7.78,11.16,11.07,17.08,0,.17,0,.34,0,.5h-2.41c-2.52-4.61-5.87-9.06-8.78-13.43Z"/><path class="h" d="M224.55,208.39c.85-.56,1.77-.57,2.72-.58,.28,0,.55,0,.83,0,2.87,4.87,6.05,9.53,9.15,14.25,2.48,3.77,5.34,7.59,7.6,11.53h-3.67c-5.36-8.52-11.51-16.52-16.62-25.2Z"/><path class="j" d="M224.14,208.4c-.68,.45-.66,2.22-.65,3.56,0,1.5,.07,1.82,.08,3.32,.03,3.19,.05,6.38,.08,9.58,0,.91,.01,1.83,.03,2.74,.05,2.01,.11,4.01,.18,6.01l25.52-.02c0-6.97-.03-13.95-.24-20.92-.04-1.14,.22-3.74-.7-4.48-.62-.51-1.66-.42-2.42-.41-2.32,.02-4.65,.02-6.97,.02-2.68,0-5.37,0-8.06,0-1.34,0-2.68,0-4.02,.01-.99,0-1.95,.02-2.84,.6Z"/><line class="l" x1="223.89" y1="216.06" x2="249.32" y2="216.03"/><line class="l" x1="223.9" y1="225.14" x2="249.33" y2="225.12"/><line class="l" x1="236.6" y1="207.98" x2="236.62" y2="233.4"/><path class="r" d="M251.65,235.87c0,.33-.22,.59-.84,.59l-28.37,.03c-.62,0-.84-.26-.84-.59v-2.44c0-.33,.22-.59,.84-.59l28.37-.03c.62,0,.84,.27,.84,.59v2.44Z"/><path class="g" d="M221.59,234.08v-.63c0-.33,.22-.59,.84-.59l28.37-.03c.62,0,.84,.27,.84,.59v.65h-30.05Z"/></g><g><path class="ag" d="M262.35,208.2c-.66,.45-.88,2.73-1.02,4.61-.11,1.5-1.27,18.59-1.2,20.59l25.11-.02c.53-6.95,1.58-13.55,1.89-20.76,.05-1.14,.55-3.9-.34-4.64-.61-.5-2.52-.41-3.25-.41-2.25,.02-4.5,.02-6.75,.02-2.6,0-5.2,0-7.8,0-1.3,0-2.6,0-3.9,.01-.95,0-1.89,.02-2.75,.6Z"/><path class="h" d="M275.62,219.95c-2.71-4.08-5.43-8.15-7.94-12.36,.44,0,.87,0,1.31,0h1.42c1.77,2.74,3.54,5.48,5.32,8.21,3.71,5.66,6.22,11.15,9.51,17.08,0,.17,0,.33,0,.5h-2.41c-2.52-4.61-4.31-9.06-7.22-13.43Z"/><path class="h" d="M262.37,208.18c.85-.56,1.78-.58,2.72-.58,.28,0,.55,0,.83,0,2.87,4.87,6.05,9.53,9.15,14.26,2.48,3.77,3.78,7.58,6.04,11.53h-3.67c-5.35-8.52-9.95-16.52-15.06-25.2Z"/><path class="j" d="M261.96,208.2c-.68,.44-.66,2.22-.65,3.56,0,1.5-.1,2.16-.16,3.66-.14,3.49-.95,15.67-1.02,17.99l25.52-.02c.37-6.98,.95-13.08,1.49-20.07,.17-2.17,.58-4.59-.34-5.33-.63-.5-1.66-.42-2.42-.41-2.32,.02-5.18,.02-7.51,.02-2.69,0-5.37,0-8.06,0-1.34,0-2.68,0-4.02,.01-.98,0-1.95,.02-2.84,.6Z"/><line class="l" x1="261.38" y1="215.85" x2="287.14" y2="215.83"/><line class="l" x1="260.17" y1="224.93" x2="285.59" y2="224.91"/><line class="l" x1="274.42" y1="207.77" x2="272.89" y2="233.19"/><path class="r" d="M287.91,235.66c0,.33-.22,.59-.84,.59l-28.37,.02c-.62,0-.84-.26-.84-.59v-2.44c0-.33,.22-.59,.84-.59l28.37-.03c.62,0,.84,.26,.84,.59v2.44Z"/><path class="g" d="M257.86,233.73v-.49c0-.33,.22-.59,.84-.59l28.37-.03c.62,0,.84,.26,.84,.59v.52h-30.05Z"/></g><path class="o" d="M30.04,183.55c0,.35,.23,.62,.89,.63l30.08,.03c.66,0,.89-.28,.89-.63v-2.59c0-.35-.23-.63-.89-.63l-30.08-.03c-.65,0-.89,.28-.89,.63v2.59Z"/><path class="o" d="M68.48,183.14c0,.35,.23,.63,.89,.63l30.08,.03c.66,0,.89-.28,.89-.63v-2.59c0-.35-.23-.63-.89-.63l-30.08-.03c-.65,0-.89,.28-.89,.63v2.59Z"/><path class="o" d="M71.53,236.9c0,.33,.22,.59,.84,.59l28.41,.03c.62,0,.84-.26,.84-.59v-2.45c0-.33-.22-.59-.84-.59l-28.41-.03c-.62,0-.84,.27-.84,.59v2.45Z"/><path class="o" d="M35.31,236.7c0,.33,.22,.59,.84,.59l28.41,.03c.62,0,.84-.27,.84-.59v-2.45c0-.33-.22-.59-.84-.59l-28.41-.03c-.62,0-.84,.27-.84,.59v2.44Z"/><g><path class="ag" d="M57.15,152.98c.7,.47,.93,2.89,1.08,4.89,.12,1.59,1.34,19.71,1.27,21.83l-26.62-.02c-.56-7.37-1.68-14.36-2.01-22.01-.05-1.21-.58-4.13,.36-4.92,.64-.53,2.67-.44,3.45-.43,2.39,.03,4.77,.02,7.16,.02,2.76,0,5.51,0,8.27,0,1.38,0,2.75,0,4.13,0,1.01,0,2,.02,2.91,.63Z"/><path class="h" d="M43.08,165.43c2.87-4.32,5.75-8.64,8.42-13.1-.46,0-.93,0-1.39,0h-1.5c-1.87,2.9-3.75,5.81-5.64,8.7-3.94,6-6.59,11.82-10.09,18.11,0,.18,0,.35,0,.53h2.55c2.67-4.88,4.57-9.6,7.65-14.24Z"/><path class="h" d="M57.12,152.96c-.9-.59-1.88-.61-2.88-.62-.29,0-.58,0-.88,0-3.05,5.16-6.41,10.11-9.7,15.11-2.63,4-4.01,8.04-6.4,12.22h3.89c5.68-9.03,10.55-17.51,15.97-26.71Z"/><path class="r" d="M60.33,179.67c-.03-1.24-.27-5.02-.51-9.03-.21-3.44-.51-6.88-.66-10.32-.07-1.61-.05-3.21-.09-4.82-.03-1.05-.07-2.57-1.06-3.22-1.16-.76-2.38-.76-3.46-.77-1.3,0-2.6-.01-3.91-.01h-10.68c-2.05,0-4.28,0-6.17-.02h-.27c-.84-.02-1.99-.06-2.83,.62-1.17,.94-.97,3.05-.76,5.28,.03,.36,.07,.73,.1,1.09,.17,2.17,.34,4.25,.5,6.31,.41,5,.79,9.73,1.07,14.95l.04,.79,28.71,.03-.02-.86Zm-14.8-17.97h12.1c.1,2.01,.29,5.19,.48,8.38h-12.08l-.5-8.38Zm9.02-8.52c.93,0,1.81,0,2.54,.49,.34,.33,.32,2.19,.32,2.98v.09c0,1.01,.04,1.69,.09,2.41,.03,.39,.05,.8,.07,1.31h-12.12l-.44-7.29h5.64c1.3,0,2.6,0,3.9,0Zm-22.8,.21c.28-.23,.88-.26,1.3-.26,.15,0,.3,0,.44,0h.29c1.9,.03,4.14,.03,6.19,.03h3.78l.44,7.28h-12.33c-.06-.71-.11-1.4-.17-2.12-.03-.37-.06-.74-.1-1.12-.13-1.37-.32-3.44,.15-3.82Zm.21,8.3h12.31l.5,8.38h-12.14c-.14-1.81-.29-3.61-.44-5.45-.08-.97-.16-1.95-.24-2.93Zm.77,9.63h12.12l.45,7.52h-12.07c-.15-2.6-.32-5.07-.5-7.52Zm13.83,7.53l-.45-7.51h12.08c.19,3.08,.36,5.95,.44,7.52h-12.06Z"/><path class="r" d="M30.04,182.09c0,.35,.23,.63,.89,.63l30.08,.03c.66,0,.89-.28,.89-.63v-2.59c0-.35-.23-.63-.89-.63l-30.08-.03c-.65,0-.89,.28-.89,.63v2.59Z"/><path class="g" d="M61.9,179.76v-.24c0-.35-.23-.63-.89-.63l-30.08-.03c-.65,0-.89,.28-.89,.63v.27h31.86Z"/></g><g><path class="ag" d="M97.24,152.98c.7,.47,.67,2.35,.67,3.77,0,1.59-.08,1.93-.09,3.52-.03,3.38-.05,6.77-.08,10.15,0,.97-.01,1.94-.04,2.9-.05,2.13-.11,4.25-.19,6.37l-26.2-.02c0-7.39,.02-14.79,.25-22.18,.04-1.21-.23-3.96,.71-4.75,.64-.53,1.71-.44,2.49-.43,2.39,.03,4.77,.02,7.16,.02,2.76,0,5.51,0,8.27,0,1.38,0,2.75,0,4.13,0,1.01,0,2,.02,2.91,.63Z"/><path class="h" d="M83.17,165.43c2.87-4.32,5.75-8.64,8.42-13.1-.46,0-.93,0-1.39,0h-1.5c-1.87,2.9-3.75,5.81-5.64,8.7-3.94,6-8.25,11.82-11.74,18.11,0,.18,0,.35,0,.53h2.55c2.67-4.88,6.22-9.6,9.3-14.24Z"/><path class="h" d="M97.21,152.96c-.9-.59-1.88-.61-2.88-.62-.29,0-.59,0-.88,0-3.05,5.16-6.41,10.11-9.7,15.11-2.63,4-5.66,8.04-8.05,12.22h3.89c5.67-9.03,12.2-17.51,17.62-26.71Z"/><path class="r" d="M98.11,152.28c-1.16-.76-2.38-.76-3.46-.77-1.3,0-2.6-.01-3.91-.01h-10.6c-1.9,0-3.79,0-5.69-.02h-.27c-.84-.02-1.99-.06-2.83,.62-1.1,.89-1.07,2.93-1.05,4.57,0,.31,0,.58,0,.8-.23,7.2-.25,14.31-.26,22.2v.84l28.7,.03,.03-.81c.08-2.13,.14-4.26,.19-6.38,.02-.74,.02-1.48,.03-2.23v-.69c.03-2.85,.06-5.7,.08-8.55,.01-1.88,.11-3.75,.11-5.63,0-1.23,.12-3.19-1.07-3.97Zm-3.47,.9c.93,0,1.8,0,2.54,.49,.42,.27,.31,1.6,.32,2.01,.03,1.53-.08,3.06-.09,4.59v.2h-12.35v-7.29h5.68c1.3,0,2.6,0,3.9,0Zm2.69,16.91h-12.28v-8.38h12.35v.15c-.02,2.74-.05,5.49-.07,8.23Zm-24.92-16.69c.29-.23,.88-.26,1.3-.26,.15,0,.3,0,.44,0h.29c1.9,.03,3.8,.03,5.71,.03h3.67v7.28h-11.91c.02-.98,.05-1.96,.08-2.93,0-.24,0-.54,0-.88-.01-.86-.04-2.87,.43-3.25Zm11.39,16.68h-12.04c.02-2.85,.06-5.62,.12-8.38h11.93v8.38Zm-12.05,1.25h12.05v7.52h-12.07c0-2.59,0-5.08,.02-7.52Zm25.38,7.53h-12.08v-7.52h12.27c0,.67,0,1.32-.03,1.97-.04,1.85-.1,3.7-.16,5.55Z"/><path class="r" d="M68.48,182.09c0,.35,.23,.63,.89,.63l30.08,.03c.66,0,.89-.28,.89-.63v-2.59c0-.35-.23-.63-.89-.63l-30.08-.03c-.66,0-.89,.28-.89,.63v2.59Z"/><path class="g" d="M100.34,180.01v-.48c0-.35-.23-.63-.89-.63l-30.08-.03c-.66,0-.89,.28-.89,.63v.51h31.86Z"/></g><g><path class="ag" d="M98.72,208.4c.66,.45,.64,2.22,.63,3.56,0,1.5-.07,1.82-.08,3.32-.02,3.19-.05,6.38-.08,9.58,0,.91-.01,1.83-.03,2.74-.05,2-.1,4.01-.17,6.01l-24.72-.02c0-6.97,.02-13.95,.24-20.92,.03-1.14-.21-3.74,.67-4.48,.6-.5,1.61-.42,2.34-.41,2.25,.02,4.5,.02,6.75,.02,2.6,0,5.2,0,7.81,0,1.3,0,2.6,0,3.89,.01,.95,0,1.89,.02,2.75,.6Z"/><path class="h" d="M85.44,220.16c2.71-4.08,5.43-8.15,7.94-12.35-.44,0-.87,0-1.31,0h-1.42c-1.77,2.74-3.54,5.48-5.32,8.21-3.71,5.66-7.78,11.16-11.07,17.08v.5h2.41c2.52-4.61,5.87-9.06,8.78-13.43Z"/><path class="h" d="M98.69,208.39c-.85-.56-1.78-.57-2.72-.58-.28,0-.55,0-.83,0-2.87,4.87-6.05,9.53-9.15,14.25-2.48,3.77-5.34,7.59-7.6,11.53h3.67c5.35-8.52,11.51-16.52,16.62-25.2Z"/><path class="j" d="M99.1,208.4c.68,.45,.66,2.22,.65,3.56,0,1.5-.07,1.82-.09,3.32-.03,3.19-.05,6.38-.08,9.58,0,.91-.01,1.83-.03,2.74-.05,2.01-.11,4.01-.18,6.01l-25.52-.02c0-6.97,.02-13.95,.24-20.92,.03-1.14-.22-3.74,.69-4.48,.63-.51,1.66-.42,2.42-.41,2.32,.02,4.65,.02,6.97,.02,2.69,0,5.37,0,8.06,0,1.34,0,2.68,0,4.02,.01,.99,0,1.95,.02,2.84,.6Z"/><line class="l" x1="99.34" y1="216.06" x2="73.92" y2="216.03"/><line class="l" x1="99.34" y1="225.14" x2="73.91" y2="225.12"/><line class="l" x1="86.64" y1="207.98" x2="86.62" y2="233.4"/><path class="r" d="M71.59,235.87c0,.33,.22,.59,.84,.59l28.37,.03c.62,0,.84-.26,.84-.59v-2.44c0-.33-.22-.59-.84-.59l-28.37-.03c-.62,0-.84,.27-.84,.59v2.44Z"/><path class="g" d="M101.65,234.08v-.63c0-.33-.22-.59-.84-.59l-28.37-.03c-.62,0-.84,.27-.84,.59v.65h30.05Z"/></g><g><path class="ag" d="M60.89,208.2c.66,.45,.88,2.73,1.02,4.61,.11,1.5,1.26,18.59,1.2,20.59l-25.11-.02c-.53-6.95-1.58-13.55-1.89-20.76-.05-1.14-.55-3.9,.34-4.64,.61-.5,2.52-.41,3.25-.41,2.25,.02,4.5,.02,6.76,.02,2.6,0,5.2,0,7.8,0,1.3,0,2.6,0,3.9,.01,.95,0,1.89,.02,2.75,.6Z"/><path class="h" d="M47.62,219.95c2.71-4.08,5.43-8.15,7.94-12.36-.44,0-.87,0-1.31,0h-1.42c-1.77,2.74-3.53,5.48-5.32,8.21-3.71,5.66-6.22,11.15-9.51,17.08,0,.17,0,.33,0,.5h2.41c2.52-4.61,4.31-9.06,7.22-13.43Z"/><path class="h" d="M60.87,208.18c-.85-.56-1.78-.58-2.72-.58-.28,0-.55,0-.83,0-2.87,4.87-6.05,9.53-9.15,14.26-2.48,3.77-3.78,7.58-6.04,11.53h3.67c5.35-8.52,9.95-16.52,15.07-25.2Z"/><path class="j" d="M61.28,208.2c.68,.44,.66,2.22,.65,3.56,0,1.5,.1,2.16,.16,3.66,.13,3.49,.95,15.67,1.02,17.99l-25.52-.02c-.38-6.98-.95-13.08-1.49-20.07-.17-2.17-.58-4.59,.34-5.33,.63-.5,1.66-.42,2.42-.41,2.32,.02,5.18,.02,7.51,.02,2.69,0,5.37,0,8.06,0,1.34,0,2.68,0,4.02,.01,.98,0,1.95,.02,2.84,.6Z"/><line class="l" x1="61.86" y1="215.85" x2="36.1" y2="215.83"/><line class="l" x1="63.07" y1="224.93" x2="37.65" y2="224.91"/><line class="l" x1="48.82" y1="207.77" x2="50.35" y2="233.19"/><path class="r" d="M35.33,235.66c0,.33,.22,.59,.84,.59l28.37,.02c.62,0,.84-.26,.84-.59v-2.44c0-.33-.22-.59-.84-.59l-28.37-.03c-.62,0-.84,.26-.84,.59v2.44Z"/><path class="g" d="M65.38,233.73v-.49c0-.33-.22-.59-.84-.59l-28.37-.03c-.62,0-.84,.26-.84,.59v.52h30.05Z"/></g><g><path class="u" d="M242.24,252.93c0,.32-.27,.57-1.03,.57h-6.79c-.76,0-1.03-.26-1.03-.57v-2.37c0-.32,.27-.58,1.03-.58h6.79c.76,0,1.03,.26,1.03,.58v2.37Z"/><path class="u" d="M233.4,256.44c0,.32-.27,.57-1.03,.57h-6.79c-.76,0-1.03-.26-1.03-.57v-2.37c0-.32,.27-.57,1.03-.57h6.79c.76,0,1.03,.26,1.03,.57v2.37Z"/><path class="u" d="M284.05,262.85c0,.32-.27,.57-1.03,.57h-6.79c-.76,0-1.03-.26-1.03-.57v-2.37c0-.32,.27-.57,1.03-.57h6.79c.76,0,1.03,.26,1.03,.57v2.37Z"/><path class="u" d="M291.16,250.69c-.13,1.17-.27,2.35-.4,3.52h-3.43c-.75,0-1.03-.25-1.03-.57v-2.37c0-.32,.28-.58,1.03-.58h3.83Z"/><path class="u" d="M275.2,266.36c0,.32-.27,.57-1.03,.57h-6.79c-.76,0-1.03-.25-1.03-.57v-2.37c0-.32,.27-.57,1.03-.57h6.79c.76,0,1.03,.26,1.03,.57v2.37Z"/><path class="u" d="M242.24,259.76c0,.32-.27,.58-1.03,.58h-6.79c-.76,0-1.03-.26-1.03-.58v-2.37c0-.32,.27-.57,1.03-.57h6.79c.76,0,1.03,.26,1.03,.57v2.37Z"/><path class="u" d="M93.39,256.12c0,.32-.27,.57-1.03,.57h-6.79c-.76,0-1.03-.26-1.03-.57v-2.37c0-.32,.27-.57,1.03-.57h6.79c.76,0,1.03,.26,1.03,.57v2.37Z"/><path class="u" d="M102.23,259.44c0,.32-.27,.57-1.03,.57h-6.79c-.76,0-1.03-.26-1.03-.57v-2.37c0-.32,.27-.57,1.03-.57h6.79c.76,0,1.03,.26,1.03,.57v2.37Z"/><path class="u" d="M38.52,259.84v2.36c0,.32-.28,.58-1.03,.58h-3.71c-.09-1.17-.18-2.34-.28-3.51h3.99c.75,0,1.03,.26,1.03,.58Z"/><path class="u" d="M56.73,262.21c0,.32-.27,.57-1.03,.57h-6.79c-.76,0-1.03-.26-1.03-.57v-2.37c0-.32,.27-.57,1.03-.57h6.79c.76,0,1.03,.26,1.03,.57v2.37Z"/><path class="u" d="M74.25,253.13c0,.32-.27,.57-1.03,.57h-6.79c-.76,0-1.03-.26-1.03-.57v-2.37c0-.32,.27-.57,1.03-.57h6.79c.76,0,1.03,.26,1.03,.57v2.37Z"/><path class="u" d="M47.37,265.53c0,.32-.27,.57-1.03,.57h-6.79c-.76,0-1.03-.26-1.03-.57v-2.37c0-.32,.27-.57,1.03-.57h6.79c.76,0,1.03,.26,1.03,.57v2.37Z"/></g><g><path class="m" d="M40.52,192.56c0,.32-.27,.58-1.03,.58h-6.79c-.76,0-1.03-.26-1.03-.58v-2.37c0-.32,.27-.58,1.03-.58h6.79c.76,0,1.03,.26,1.03,.58v2.37Z"/><path class="q" d="M59.98,147.02c0,.32-.27,.58-1.03,.58h-6.79c-.76,0-1.03-.26-1.03-.58v-2.37c0-.32,.27-.57,1.03-.57h6.79c.76,0,1.03,.26,1.03,.57v2.37Z"/><path class="m" d="M31.85,143.5c0,.32-.27,.57-1.03,.57h-6.79c-.76,0-1.03-.26-1.03-.57v-2.37c0-.32,.27-.57,1.03-.57h6.79c.76,0,1.03,.26,1.03,.57v2.37Z"/><path class="m" d="M40.7,147.02c0,.32-.27,.58-1.03,.58h-6.79c-.76,0-1.03-.26-1.03-.58v-2.37c0-.32,.27-.57,1.03-.57h6.79c.76,0,1.03,.26,1.03,.57v2.37Z"/><path class="m" d="M68.83,143.5c0,.32-.27,.57-1.03,.57h-6.79c-.76,0-1.03-.26-1.03-.57v-2.37c0-.32,.27-.57,1.03-.57h6.79c.76,0,1.03,.26,1.03,.57v2.37Z"/><path class="q" d="M49.37,196.22c0,.32-.27,.57-1.03,.57h-6.79c-.76,0-1.03-.26-1.03-.57v-2.37c0-.32,.27-.57,1.03-.57h6.79c.76,0,1.03,.26,1.03,.57v2.37Z"/><path class="q" d="M87.96,188.98c0,.32-.27,.57-1.03,.57h-6.79c-.76,0-1.03-.26-1.03-.57v-2.37c0-.32,.27-.57,1.03-.57h6.79c.76,0,1.03,.26,1.03,.57v2.37Z"/><path class="m" d="M103.77,149.27c0,.32-.27,.58-1.03,.58h-6.79c-.76,0-1.03-.26-1.03-.58v-2.37c0-.32,.27-.58,1.03-.58h6.79c.76,0,1.03,.26,1.03,.58v2.37Z"/><path class="m" d="M87.96,196.22c0,.32-.27,.57-1.03,.57h-6.79c-.76,0-1.03-.26-1.03-.57v-2.37c0-.32,.27-.57,1.03-.57h6.79c.76,0,1.03,.26,1.03,.57v2.37Z"/><path class="m" d="M66.33,202.36c0,.32-.27,.57-1.03,.57h-6.79c-.76,0-1.03-.26-1.03-.57v-2.37c0-.32,.27-.57,1.03-.57h6.79c.76,0,1.03,.26,1.03,.57v2.37Z"/><path class="m" d="M96.81,192.63c0,.32-.27,.57-1.03,.57h-6.79c-.76,0-1.03-.26-1.03-.57v-2.37c0-.32,.27-.57,1.03-.57h6.79c.76,0,1.03,.26,1.03,.57v2.37Z"/><path class="q" d="M241.79,146.7c0,.32-.27,.57-1.03,.57h-6.79c-.76,0-1.03-.26-1.03-.57v-2.37c0-.32,.27-.58,1.03-.58h6.79c.76,0,1.03,.26,1.03,.58v2.37Z"/><path class="m" d="M250.63,143.12c0,.32-.27,.57-1.03,.57h-6.79c-.76,0-1.03-.26-1.03-.57v-2.37c0-.32,.27-.57,1.03-.57h6.79c.76,0,1.03,.26,1.03,.57v2.37Z"/><path class="m" d="M259.48,146.7c0,.32-.27,.57-1.03,.57h-6.79c-.76,0-1.03-.26-1.03-.57v-2.37c0-.32,.27-.58,1.03-.58h6.79c.76,0,1.03,.26,1.03,.58v2.37Z"/><path class="m" d="M302.04,143.12c0,.32-.27,.57-1.03,.57h-6.79c-.76,0-1.03-.26-1.03-.57v-2.37c0-.32,.27-.57,1.03-.57h6.79c.76,0,1.03,.26,1.03,.57v2.37Z"/><path class="m" d="M298.35,187.25c-.13,1.17-.26,2.34-.39,3.52h-2.96c-.76,0-1.03-.26-1.03-.58v-2.36c0-.32,.27-.58,1.03-.58h3.36Z"/><path class="q" d="M294.23,193.89c0,.32-.27,.57-1.03,.57h-6.79c-.76,0-1.03-.26-1.03-.57v-2.37c0-.32,.27-.57,1.03-.57h6.79c.76,0,1.03,.26,1.03,.57v2.37Z"/><path class="q" d="M270.55,189.39c0,.32-.27,.57-1.03,.57h-6.79c-.76,0-1.03-.26-1.03-.57v-2.37c0-.32,.27-.57,1.03-.57h6.79c.76,0,1.03,.26,1.03,.57v2.37Z"/><path class="m" d="M261.7,192.9c0,.32-.27,.57-1.03,.57h-6.79c-.76,0-1.03-.26-1.03-.57v-2.37c0-.32,.27-.57,1.03-.57h6.79c.76,0,1.03,.26,1.03,.57v2.37Z"/><path class="m" d="M270.55,196.22c0,.32-.27,.57-1.03,.57h-6.79c-.76,0-1.03-.26-1.03-.57v-2.37c0-.32,.27-.57,1.03-.57h6.79c.76,0,1.03,.26,1.03,.57v2.37Z"/><path class="m" d="M229.85,199.45c0,.32-.27,.57-1.03,.57h-6.79c-.76,0-1.03-.26-1.03-.57v-2.37c0-.32,.27-.57,1.03-.57h6.79c.76,0,1.03,.26,1.03,.57v2.37Z"/><path class="q" d="M238.7,202.77c0,.32-.27,.57-1.03,.57h-6.79c-.76,0-1.03-.26-1.03-.57v-2.37c0-.32,.27-.57,1.03-.57h6.79c.76,0,1.03,.26,1.03,.57v2.37Z"/></g><path class="o" d="M297.39,119.49c-6.28-.26-36.08,.52-44.73,.52H42.57c-6.05,0-8.17-.26-15.47,.05-5.54,.24-8.94,4.42-8.5,8.61,.19,1.82,.42,3.69,.65,5.58H208.16c-.99,16.84-.33,33.84-.81,50.65-.56,19.55-.53,39.1,.6,58.61H31.85c.21,1.81,.41,3.63,.62,5.44H208.29c.49,7.1,1.13,14.2,1.96,21.28h16.98c-.02-7.09-.15-14.19-.33-21.28h64.46c.21-1.81,.41-3.63,.62-5.44h-65.23c-.52-18.44-1.25-36.87-1.17-55.31,.08-17.95,.69-36-.14-53.95h78.86c.23-2.5,.47-4.99,.77-7.48,.67-5.76-1.52-7.03-7.68-7.28Z"/><g><path class="r" d="M317.79,115.47c-1.06-.82-8.65-.16-11-.16H33.58c-5.98,0-11.95,0-17.93-.01-1.53,0-3.06-.03-4.59-.03-1.4,0-3.87-.21-4.6,.43-.94,.82-.78,1.49-.79,2.52-.02,2.53-.36,6.02,.98,7.83,1.03,1.39,5.57,1.31,7.41,1.31,2.88,0,5.77,0,8.65,0h27.8c5.91,0,11.83,0,17.74,0h39.85c7.17,0,14.34,0,21.52,0h22.21c7.48,0,14.96,0,22.44,0h22.13c7.14,0,14.28,0,21.43,0,6.82,0,13.65,0,20.47,0,6.42,0,12.83,0,19.25,0,5.83,0,11.67,0,17.5,0,4.99,0,9.97,0,14.96,0,3.89,0,7.79,0,11.68,0,2.75,0,5.49,0,8.24-.01,1.86,0,3.72-.01,5.58-.02,1.67,0,2.32-.95,2.4-2.48,.1-1.91,.27-3.5,.43-5.41,.07-.91,.34-3.29-.53-3.97Z"/><path class="r" d="M113.09,241.64c-.28-.27-2.28-.05-2.91-.05H38.05c-1.58,0-3.16,0-4.73,0-.4,0-.81-.01-1.21-.01-.37,0-1.02-.07-1.22,.15-.25,.27-.21,.5-.21,.84,0,.85-.09,2.02,.26,2.62,.27,.47,1.47,.44,1.96,.44,.76,0,1.52,0,2.29,0h7.34c1.56,0,3.12,0,4.68,0h10.52c1.89,0,3.79,0,5.68,0h17.63c1.89,0,3.77,0,5.66,0h10.49c1.54,0,3.08,0,4.62,0h7.03c.72,0,1.45,0,2.17,0,.49,0,.98,0,1.47,0,.44,0,.61-.32,.63-.83,.03-.64,.07-1.17,.11-1.81,.02-.31,.09-1.1-.14-1.33Z"/><path class="r" d="M210.94,241.64c.28-.27,2.28-.05,2.9-.05h72.13c1.58,0,3.15,0,4.73,0,.4,0,.81-.01,1.21-.01,.37,0,1.02-.07,1.22,.15,.25,.27,.21,.5,.21,.84,0,.85,.09,2.02-.26,2.62-.27,.47-1.47,.44-1.96,.44-.76,0-1.52,0-2.28,0h-7.34c-1.56,0-3.12,0-4.68,0h-10.52c-1.89,0-3.79,0-5.68,0h-17.63c-1.89,0-3.77,0-5.66,0h-10.49c-1.54,0-3.08,0-4.62,0h-7.03c-.73,0-1.45,0-2.17,0-.49,0-.98,0-1.47,0-.44,0-.61-.32-.63-.83-.02-.64-.07-1.17-.11-1.81-.02-.31-.09-1.1,.14-1.33Z"/><path class="o" d="M5.88,124.19c.16,.71,.39,1.35,.76,1.85,1.03,1.39,5.57,1.31,7.41,1.31,2.88,0,5.77,0,8.65,0H108.09c7.17,0,14.34,0,21.52,0h22.21c7.48,0,14.96,0,22.44,0h22.13c7.14,0,14.28,0,21.43,0,6.82,0,13.65,0,20.47,0,6.42,0,12.83,0,19.25,0,5.83,0,11.67,0,17.5,0,4.99,0,9.97,0,14.96,0,3.89,0,7.79,0,11.68,0,2.75,0,5.49,0,8.24-.01,1.86,0,3.72-.01,5.58-.02,1.67,0,2.32-.95,2.4-2.48,.01-.23,.03-.43,.04-.65H5.88Z"/><polygon class="p" points="216.91 61.06 216.91 270.22 106.85 270.22 106.85 61.06 161.88 25.96 216.91 61.06"/><path class="o" d="M161.05,56.82c.94-.72,2.35-1.23,3.43-.44,17.84,12.97,34.75,23.11,52.43,36.28v-31.54l-55.04-35.16-55.04,35.16v33.77c17.06-12.49,34.72-23.18,54.21-38.07Z"/><path class="ad" d="M161.88,43.95c4.39,.12,46.92,29.92,55.04,34.19l9.95,.73L161.88,29.34l-64.98,49.54h9.95c4.33-2.74,50.99-35.03,55.04-34.92Z"/><path class="r" d="M109.41,69.88c5.62-3.7,46.6-30.56,52.32-31.01,5.49-.43,57.01,35.73,65.13,40.01v-11.47L161.88,21.78l-64.98,45.62v11.47c4.33-2.74,8.4-6.28,12.52-8.99Z"/><path class="f" d="M128.08,47.49c5.85-4.59,12.4-8.5,18.51-12.77,2.92-2.04,13.25-8.91,15.52-8.96,2.53-.06,12.39,7.9,15.92,10.18,6.5,4.19,31.01,22.4,37.29,26.65,3.89,2.63,7.81,5.22,11.54,8.05v-3.23L161.88,21.78l-64.98,45.62v3.12c4.07-3.82,25.35-18.46,31.18-23.04Z"/><path class="aa" d="M195,264.74c.99-13.49,.77-42.05,1.23-53.78,1.86-48.02,0-75.85-34.11-75.85s-34.85,27.83-34.11,75.85c.21,13.58,.16,39.27,1.21,53.78h65.78Z"/><path class="ah" d="M162.1,132.47c-35.24,0-38.6,26.81-38.05,73.35,.02,1.83,.04,3.69,.07,5.59,.13,7.61,.17,18.86,.36,29.98,.16,9.55,.44,19.01,.98,25.99h73.25c1.01-12.83,.89-38.78,1.25-52.46,.03-1.29,.08-2.46,.12-3.51,.07-1.89,.15-3.75,.22-5.59,1.64-46.54-1.66-73.35-38.2-73.35Zm34.13,78.49c-.03,.85-.06,1.79-.08,2.8-.34,12.98-.23,38.46-1.14,50.97h-65.78c-.57-7.93-.82-19.21-.95-30.02h0c-.12-8.97-.16-17.61-.25-23.76-.03-1.74-.05-3.46-.07-5.14-.5-44.87,2.47-70.71,34.17-70.71s35.79,25.85,34.29,70.71c-.05,1.68-.12,3.4-.19,5.14Z"/><g><g><path class="r" d="M202.44,264.18c0,.57-.2,1.03-1.87,1.03H123.18c-1.67,0-1.86-.46-1.86-1.03v-4.25c0-.57,.19-1.03,1.86-1.03h77.39c1.67,0,1.87,.46,1.87,1.03v4.25Z"/><path class="o" d="M202.44,262.55v-2.62c0-.57-.2-1.03-1.87-1.03H123.18c-1.67,0-1.86,.46-1.86,1.03v2.62h81.12Z"/><path class="s" d="M202.44,260.68v-.75c0-.57-.2-1.03-1.87-1.03H123.18c-1.67,0-1.86,.46-1.86,1.03v.75h81.12Z"/></g><g><path class="r" d="M206.99,270.49c0,.57-.23,1.03-2.08,1.03H118.83c-1.85,0-2.07-.46-2.07-1.03v-4.25c0-.57,.21-1.03,2.07-1.03h86.08c1.85,0,2.08,.46,2.08,1.03v4.25Z"/><path class="o" d="M206.99,268.83v-2.58c0-.57-.23-1.03-2.08-1.03H118.83c-1.85,0-2.07,.46-2.07,1.03v2.58h90.23Z"/><path class="s" d="M206.99,266.99v-.75c0-.57-.23-1.03-2.08-1.03H118.83c-1.85,0-2.07,.46-2.07,1.03v.75h90.23Z"/></g><g><path class="r" d="M210.77,276.8c0,.57-.24,1.03-2.25,1.03H115.22c-2.01,0-2.24-.46-2.24-1.03v-4.25c0-.57,.23-1.03,2.24-1.03h93.3c2.01,0,2.25,.46,2.25,1.03v4.25Z"/><path class="o" d="M210.77,275.18v-2.62c0-.57-.24-1.03-2.25-1.03H115.22c-2.01,0-2.24,.46-2.24,1.03v2.62h97.79Z"/><path class="s" d="M210.77,273.3v-.75c0-.57-.24-1.03-2.25-1.03H115.22c-2.01,0-2.24,.46-2.24,1.03v.75h97.79Z"/></g></g><g><polygon class="x" points="176.88 213.42 146.62 213.42 149.69 258.9 173.81 258.9 176.88 213.42"/><polygon class="o" points="172.16 255.89 173.21 237.47 172.68 237.47 171.27 237.47 163.89 237.47 164.01 238.88 171.26 238.88 171.13 255.89 163.95 255.89 163.95 257.3 172.06 257.3 172.11 256.6 172.12 256.6 172.16 255.97 172.17 255.89 172.16 255.89"/><polygon class="o" points="173.59 233.49 174.8 215.07 174.19 215.07 172.55 215.07 163.95 215.07 163.95 216.48 172.54 216.48 172.39 233.49 164 233.49 164 234.9 173.46 234.9 173.53 234.19 173.54 234.19 173.58 233.55 173.59 233.49 173.59 233.49"/><polygon class="o" points="160.82 215.07 160.41 215.07 158.66 215.07 149.45 215.07 149.45 216.48 158.64 216.48 158.48 233.49 150.53 233.49 150.63 234.9 160.55 234.9 160.55 233.49 160.55 233.49 160.82 215.07"/><polygon class="o" points="160.81 255.89 160.67 237.47 160.11 237.47 159.41 237.47 150.75 237.47 150.89 238.88 159.41 238.88 159.41 255.89 151.9 255.89 151.9 257.3 160.82 257.3 160.82 255.89 160.81 255.89"/><g><polygon class="a`" points="160.11 234.24 160.11 215.73 149.45 215.73 150.58 234.24 160.11 234.24"/><polygon class="a`" points="163.95 234.24 172.92 234.24 174.05 215.73 163.95 215.73 163.95 234.24"/><polygon class="a`" points="163.95 238.08 163.95 256.6 171.55 256.6 172.68 238.08 163.95 238.08"/><polygon class="a`" points="160.11 238.08 150.82 238.08 151.95 256.6 160.11 256.6 160.11 238.08"/></g></g><path class="o" d="M200.3,205.82c-.07,2.57-.14,5.17-.22,7.82-.04,1.46-.09,3.11-.12,4.91-.8-.39-33,.93-50.51,10.57-13.36,7.36-23.89,23.28-24.97,26.5-.19-15.57-.23-31.32-.36-41.98-.03-2.65-.06-5.26-.07-7.82h76.25Z"/><g><path class="ab" d="M206.93,200.21s-.02,.11-.06,.22c-.34,.68-2,1.65-2.81,2.76-.4,.55-.72,1-.98,1.42-.27,.44-1.03,1.9-1.2,2.13-.44,.59-1.56,.34-2.19,.34-.79,0-1.59,0-2.38,0h-3.33c-1.38,0-2.76,0-4.14,0h-15.28c-1.89,0-3.78,0-5.68,0h-11.7c-1.92,0-3.83,0-5.75,0h-29.78c-.99,0-1.12-.71-1.43-1.54-.13-.33-.18-.61-.27-.94-.22-.77-.67-1.82-2.88-4.44-.5-.59,2.27-1.53,4.09-1.69,.18-.01,.34-.02,.49-.02h80.48c1.75,0,4.81,.96,4.81,1.74Z"/><path class="o" d="M206.93,200.21s-.02,.11-.06,.22c-.34,.68-2,1.65-2.81,2.76-.4,.55-.72,1-.98,1.42H119.94c-.22-.77-.67-1.82-2.88-4.44-.5-.59,2.27-1.53,4.09-1.69,.18-.01,.34-.02,.49-.02h80.48c1.75,0,4.81,.96,4.81,1.74Z"/><path class="r" d="M206.97,199.91c0,.78-.67,1.41-2.52,1.41H119.31c-1.85,0-2.52-.63-2.52-1.41v-5.8c0-.78,.67-1.41,2.52-1.41h85.14c1.85,0,2.52,.63,2.52,1.41v5.8Z"/><path class="f" d="M206.97,194.24v-.14c0-.78-.67-1.41-2.52-1.41H119.31c-1.85,0-2.52,.63-2.52,1.41v.14h90.18Z"/></g><g><path class="ae" d="M190.13,186.71c-.3-27.49-5.42-42.98-27.96-42.98s-26.76,15.49-27.55,42.98h55.51Z"/><path class="h" d="M159.5,169.37c-7.89,1.33-15.82,3.5-23.84,3.93-.13,.97-.24,1.96-.34,2.98,17.69-3.06,35.48-5.47,53.23-8.12-.19-1.02-.4-2-.63-2.95-9.51,1.09-18.97,2.57-28.41,4.16Z"/><path class="h" d="M135.05,178.15c-.2,2.71-.34,5.55-.43,8.55h55.51c-.07-6.24-.39-11.85-1.1-16.81-18,2.69-36.05,5.13-53.98,8.26Z"/><path class="r" d="M162.17,142.47c-22.94,0-28.02,16.91-28.8,44.2,0,.34,.12,.67,.36,.91,.24,.24,.56,.38,.9,.38h55.51c.34,0,.66-.13,.89-.37,.24-.24,.37-.56,.36-.9-.3-27.3-5.29-44.22-29.21-44.22Zm0,2.51c16.79,0,23.35,8.96,25.63,25h-16.18c-.06,0-.13-.02-.19-.02s-.13,0-.19,.02h-18.46c-.06,0-.12-.02-.19-.02s-.13,0-.19,.02h-15.19c2.48-16.04,8.91-25,24.96-25Zm8,40.47h-16.33v-13h16.33v13Zm-33.31-13h14.47v13h-15.41c.16-4.71,.45-9.05,.95-13Zm35.82,13v-13h15.43c.44,3.95,.66,8.29,.74,13h-16.17Z"/></g><path class="o" d="M195.77,152.58c-5.09-13.09-15.06-20.11-33.67-20.11-24.52,0-33.58,13.11-36.64,36.91,18.57-16.36,46.17-21.71,70.31-16.8Z"/><g><path class="ai" d="M134.16,95.14c.27,10.67,5.74,20.55,16.52,24.57,3.09,1.15,6.85,1.94,10.16,1.91,12.28-.13,24.58-9.58,26.04-22.12,1.49-12.67-4.9-26.01-17.63-30.04-3.02-.96-6.81-1.53-9.99-1.21-10.09,1-20.17,7.28-23.75,17.09-1.11,3.03-1.44,6.6-1.36,9.81Z"/><path class="t" d="M136.1,95.13c.25,9.88,5.32,19.03,15.3,22.75,2.86,1.07,6.35,1.8,9.41,1.77,11.38-.12,22.76-8.87,24.12-20.49,1.38-11.74-4.54-24.09-16.33-27.83-2.8-.89-6.31-1.41-9.25-1.12-9.34,.92-18.68,6.74-21.99,15.83-1.03,2.81-1.34,6.11-1.26,9.09Z"/><g><line class="k" x1="144.47" y1="111.57" x2="147.58" y2="108.4"/><line class="k" x1="173.65" y1="81.79" x2="176.76" y2="78.61"/></g><g><g><line class="k" x1="160.38" y1="72.02" x2="160.42" y2="76.46"/><line class="k" x1="160.81" y1="113.72" x2="160.85" y2="118.16"/></g><g><line class="k" x1="183.69" y1="94.86" x2="179.24" y2="94.9"/><line class="k" x1="141.98" y1="95.28" x2="137.54" y2="95.33"/></g><g><line class="k" x1="177.09" y1="111.24" x2="173.92" y2="108.13"/><line class="k" x1="147.31" y1="82.05" x2="144.13" y2="78.95"/></g><path class="af" d="M159.01,94.9c.02,.65,.35,1.25,1,1.49,.19,.07,.42,.12,.62,.11,.74,0,1.49-.58,1.58-1.34,.09-.77-.3-1.57-1.07-1.82-.19-.06-.41-.09-.61-.07-.61,.06-1.22,.44-1.44,1.04-.07,.18-.09,.4-.08,.59Z"/><path class="af" d="M161.41,95.62l-8.4,7.96c-.1,.1-.26,.09-.36,0-.09-.09-.09-.23-.01-.33l7.17-9.08c.37-.47,1.05-.55,1.53-.18,.47,.37,.55,1.06,.18,1.53-.03,.04-.07,.08-.11,.12Z"/><path class="af" d="M159.53,94.9l.69-17.36c0-.14,.12-.25,.26-.24,.13,0,.23,.11,.24,.24l.98,17.34c.03,.6-.42,1.11-1.02,1.14-.6,.03-1.11-.42-1.14-1.02,0-.03,0-.07,0-.1Z"/></g><path class="d" d="M151.13,112.98c-1.86-2.42-3.99-4.77-5.33-7.55-2.56-5.32-2.69-11.82-1.16-17.46,1.41-5.21,4.4-10.52,8.97-13.6,2.24-1.51-9.61,3.8-12.66,12.14-.96,2.63-1.25,5.73-1.18,8.52,.24,9.26,4.99,17.84,14.34,21.32,.01,0,.02,0,.03,.01-1.14-.94-2.06-2.15-3.01-3.39Z"/></g><path class="m" d="M132.26,132.24c0,.32-.27,.57-1.03,.57h-6.79c-.76,0-1.03-.26-1.03-.57v-2.37c0-.32,.27-.57,1.03-.57h6.79c.76,0,1.03,.26,1.03,.57v2.37Z"/><path class="q" d="M127.84,96.04c0,.32-.27,.57-1.03,.57h-6.79c-.76,0-1.03-.26-1.03-.57v-2.37c0-.32,.27-.57,1.03-.57h6.79c.76,0,1.03,.26,1.03,.57v2.37Z"/><path class="q" d="M123.41,135.75c0,.32-.27,.57-1.03,.57h-6.79c-.76,0-1.03-.26-1.03-.57v-2.37c0-.32,.27-.57,1.03-.57h6.79c.76,0,1.03,.26,1.03,.57v2.37Z"/><path class="q" d="M216.91,181.85v3.52h-4.21c-.75,0-1.02-.26-1.02-.57v-2.37c0-.32,.27-.58,1.02-.58h4.21Z"/><path class="m" d="M211.67,188.31c0,.32-.27,.57-1.03,.57h-6.79c-.76,0-1.03-.26-1.03-.57v-2.37c0-.32,.27-.57,1.03-.57h6.79c.76,0,1.03,.26,1.03,.57v2.37Z"/><path class="m" d="M204.28,215.75v2.37c0,.32-.27,.58-1.02,.58h-3.37c.03-1.24,.05-2.42,.08-3.52h3.3c.75,0,1.02,.25,1.02,.57Z"/><path class="m" d="M213.13,221.64c0,.32-.27,.57-1.03,.57h-6.79c-.76,0-1.03-.26-1.03-.57v-2.37c0-.32,.27-.57,1.03-.57h6.79c.76,0,1.03,.26,1.03,.57v2.37Z"/><path class="m" d="M203.85,243.22v2.37c0,.32-.28,.57-1.03,.57h-3.31c.02-1.16,.04-2.34,.06-3.52h3.25c.75,0,1.03,.26,1.03,.58Z"/><path class="q" d="M212.69,249.41c0,.32-.27,.57-1.03,.57h-6.79c-.76,0-1.03-.26-1.03-.57v-2.37c0-.32,.27-.58,1.03-.58h6.79c.76,0,1.03,.26,1.03,.58v2.37Z"/><path class="m" d="M216.91,242.65v3.52h-3.39c-.76,0-1.03-.25-1.03-.57v-2.37c0-.32,.27-.58,1.03-.58h3.39Z"/><path class="q" d="M216.91,229.32v3.51h-3.39c-.76,0-1.03-.26-1.03-.58v-2.36c0-.32,.27-.58,1.03-.58h3.39Z"/><path class="m" d="M208.07,100.5c0,.32-.27,.57-1.03,.57h-6.79c-.76,0-1.03-.26-1.03-.57v-2.37c0-.32,.27-.57,1.03-.57h6.79c.76,0,1.03,.26,1.03,.57v2.37Z"/><path class="m" d="M199.22,104.02c0,.32-.27,.57-1.03,.57h-6.79c-.76,0-1.03-.26-1.03-.57v-2.37c0-.32,.27-.57,1.03-.57h6.79c.76,0,1.03,.26,1.03,.57v2.37Z"/><path class="q" d="M193.98,125.2c0,.32-.27,.58-1.03,.58h-6.79c-.76,0-1.03-.26-1.03-.58v-2.37c0-.32,.27-.57,1.03-.57h6.79c.76,0,1.03,.26,1.03,.57v2.37Z"/><path class="m" d="M216.91,104.02c0,.32-.27,.57-1.03,.57h-6.79c-.76,0-1.03-.26-1.03-.57v-2.37c0-.32,.27-.57,1.03-.57h6.79c.76,0,1.03,.26,1.03,.57v2.37Z"/><path class="m" d="M185.14,128.72c0,.32-.27,.57-1.03,.57h-6.79c-.76,0-1.03-.26-1.03-.57v-2.37c0-.32,.27-.57,1.03-.57h6.79c.76,0,1.03,.26,1.03,.57v2.37Z"/><path class="m" d="M132.26,139.07c0,.32-.27,.58-1.03,.58h-6.79c-.76,0-1.03-.26-1.03-.58v-2.37c0-.32,.27-.57,1.03-.57h6.79c.76,0,1.03,.26,1.03,.57v2.37Z"/><path class="m" d="M120.11,216.57c0,.32-.27,.57-1.03,.57h-6.79c-.76,0-1.03-.26-1.03-.57v-2.37c0-.32,.27-.58,1.03-.58h6.79c.76,0,1.03,.26,1.03,.58v2.37Z"/><path class="m" d="M111.27,217.71v2.37c0,.32-.28,.58-1.03,.58h-3.39v-3.52h3.39c.75,0,1.03,.25,1.03,.57Z"/><path class="q" d="M120.11,223.4c0,.32-.27,.58-1.03,.58h-6.79c-.76,0-1.03-.26-1.03-.58v-2.37c0-.32,.27-.58,1.03-.58h6.79c.76,0,1.03,.26,1.03,.58v2.37Z"/><path class="m" d="M120.11,176.2c0,.32-.27,.58-1.03,.58h-6.79c-.76,0-1.03-.26-1.03-.58v-2.37c0-.32,.27-.57,1.03-.57h6.79c.76,0,1.03,.26,1.03,.57v2.37Z"/><path class="m" d="M124.42,237.31c.02,1.17,.03,2.34,.06,3.52h-3.87c-.76,0-1.03-.25-1.03-.57v-2.37c0-.32,.27-.58,1.03-.58h3.81Z"/><path class="m" d="M121.14,176.58h3.53c-.09,1.15-.17,2.32-.23,3.52h-3.3c-.75,0-1.03-.26-1.03-.58v-2.37c0-.31,.28-.57,1.03-.57Z"/><path class="f" d="M109.05,109.99c-.5-7.31-.13-25.85-2.21-30.57v190.81h4.17c-.36-38.03-.61-73.53-1.12-112.96-.06-4.73,.04-34.74-.83-47.28Z"/></g><g><path class="x" d="M339,18.7c-.65,0-10.31-10.66-22.63-7.28-5.21,1.43-9.6,4.95-14.71,6.74-2.97,1.04-5.63,1.21-8.72,1.36-8.38,.4-15.28-7.39-15.89-8.41,2.92,6.17,5.56,10.19,4.42,14.67-.82,3.18-2.06,5.38-4.47,7.32-.25,.2,7.12,8.76,15.87,7.7,8.75,.28,19.14-8.95,25.67-12.87,4.67-3.07,13.83,.58,19.3,2.81-.37-4.79,.33-8.06,1.15-12.04Z"/><g class="aj"><path class="n" d="M320.67,10.77c-1.39,.04-2.82,.25-4.3,.65-2.84,.78-5.43,2.18-8.03,3.58,1.18,6.48,.88,12.94,.36,19.56,3.69-2.42,7.11-4.99,9.85-6.64,.22-.14,.45-.25,.69-.37-.36-5.69,.05-11.37,1.43-16.78Z"/></g><polygon class="w" points="274.57 278.39 275.75 9.37 278.26 9.37 279.45 278.39 274.57 278.39"/><path class="y" d="M280.56,6.29c0,1.96-1.59,3.56-3.56,3.56s-3.56-1.59-3.56-3.56,1.59-3.56,3.56-3.56,3.56,1.59,3.56,3.56Z"/></g></g></g><g id="c"/></g></svg>