<?xml version="1.0" encoding="UTF-8"?><svg xmlns="http://www.w3.org/2000/svg" viewBox="0 0 277.61 280.27"><defs><style>.d{fill:#bfbfbf;opacity:.39;}</style></defs><g id="a"/><g id="b"><path class="d" d="M137.38,276c-35.55,0-69.07-13.66-94.38-38.47C17.06,212.09,2.76,178.04,2.76,141.66S17.06,71.23,43.01,45.79C68.32,20.98,101.83,7.32,137.38,7.32s69.07,13.66,94.38,38.47c25.95,25.44,40.24,59.48,40.24,95.87s-14.29,70.43-40.24,95.87c-25.31,24.81-58.83,38.47-94.38,38.47Zm0-240.61c-61.12,0-110.85,47.67-110.85,106.27s49.73,106.27,110.85,106.27,110.85-47.67,110.85-106.27-49.73-106.27-110.85-106.27Z"/></g><g id="c"><g/></g></svg>