<?xml version="1.0" encoding="UTF-8"?><svg xmlns="http://www.w3.org/2000/svg" xmlns:xlink="http://www.w3.org/1999/xlink" viewBox="0 0 341.9 280.15"><defs><style>.g{fill:none;}.h{opacity:.71;}.h,.i,.j{mix-blend-mode:screen;}.h,.k,.l{fill:#cf1e58;}.i{opacity:.55;}.i,.m{fill:#fca4c2;}.n{fill:#ec372f;}.o{fill:#ff5560;}.p{fill:#fff;}.q{fill:#ffbb9a;}.r{fill:#934a7d;}.s,.t{fill:#c4311d;}.u{fill:#b22e2e;}.v{fill:#b24d39;}.w{fill:#e0ecff;}.x{fill:#424094;}.y,.a`{fill:#611b20;}.aa,.ab{fill:#7636d8;}.a`,.ac,.l,.t,.ad{mix-blend-mode:multiply;}.ac{fill:#acceff;}.j{fill:#a96e97;}.ae{opacity:.2;}.af{clip-path:url(#c);}.ag{clip-path:url(#e);}.ah{clip-path:url(#d);}.ai{isolation:isolate;}.ad{opacity:.32;}.ab{opacity:.49;}</style><clipPath id="c"><rect class="g" x="-7.17" y="9.82" width="351.38" height="239.05" rx="96.56" ry="96.56"/></clipPath><clipPath id="d"><path class="q" d="M223.49,136.16l2.37,11.34s2.09,4.06,13.32,1.74c10.7-2.21,9.95-7.7,9.95-7.7l-2.06-9.01-23.57,3.62Z"/></clipPath><clipPath id="e"><path class="v" d="M106.71,137.41l-3.07,11.15s-2.42,3.9-14.18,.76c-11.2-2.99-10.13-8.4-10.13-8.4l2.64-8.84,24.75,5.33Z"/></clipPath></defs><g class="ai"><g id="a"/><g id="b"><g class="af"><g><g><path class="m" d="M237.26,149.5c1.51-2.13,20.99-5.77,40.18-4.94,19.2,.83,24.17,15.89,25,28.22,.84,12.33,5.81,41.21,0,45.92-5.81,4.72-57.84,8.59-64.57,3.44s-11.77-56.96-.62-72.64Z"/><path class="i" d="M287.61,146.76c-1.37,.94-2.52,2.2-3.4,3.67-2.07,3.46-2.56,7.5-2.67,11.46-.26,9.11-.02,18.29,.49,27.38,.26,4.69,.69,9.36,1.28,14.02,.36,2.8,.78,5.59,1.51,8.32,.71,2.66,1.71,5.21,3.44,7.38,1,1.25,2.24,2.16,3.63,2.78,5.28-.91,9.2-1.97,10.56-3.08,5.81-4.72,.84-33.59,0-45.92-.67-9.78-3.94-21.26-14.83-26.02Z"/></g><g><path d="M203.37,213.17c-.02,20.95,.97,41.03,2.2,49.68,.99,6.91,2.18,16.69,3.31,26.49,.03,.2,.05,.4,.07,.6,2.09,18.06,3.97,36,3.97,36h23.18c-.04-6.88-.51-20.94-1.01-35.87,0-.25-.02-.49-.03-.73-.83-24.79-1.71-51.67-.79-51.85,.26-.05,.52-.09,.81-.11h0c.14,0,.3-.02,.45-.02h.02c1.13,0,2.54,.31,4.47,1.26h0c.25,.13,.5,.26,.77,.41t.02,.02h0s.02,0,.03,.01c.07,.04,.15,.1,.22,.18,.01,0,.01,.01,.01,.01,.03,.03,.05,.06,.09,.1,0,0,0,.01,0,.02,2.43,3.15,7.38,26.65,11.56,48.38,.02,.15,.05,.3,.08,.45,3.78,19.67,6.9,37.74,6.9,37.74h22.96c-.82-7.83-2.67-21.96-4.79-37.48-.03-.22-.06-.45-.09-.68-3.97-29.09-8.8-62.84-9.4-69.27-.1-1.07-.14-2.65-.14-4.62-.88,.11-1.76,.21-2.64,.29-.23,.03-.45,.06-.68,.07-.38,.05-.76,.08-1.15,.12-.23,.03-.46,.05-.7,.07-11,1.06-22.13,1.32-33.16,1.06-6.58-.16-13.17-.63-19.7-1.47-2.26-.29-4.58-.52-6.88-.86Z"/><g><path class="x" d="M264.96,214.25c.38,3.2,.76,6.39,1.15,9.58,2.16,17.74,4.4,35.46,6.72,53.18,2.13,16.32,4.29,32.64,6.63,48.93h.45c-1.14-8.62-2.3-17.24-3.45-25.85-2.36-17.71-4.64-35.43-6.84-53.16-1.11-8.86-2.19-17.72-3.26-26.59-.25-2.05-.48-4.11-.72-6.16-.23,.03-.45,.06-.68,.07Z"/><path class="x" d="M241.15,239.29s-.03-.03-.05-.04c.03,.03,.05,.06,.09,.1,0-.03-.02-.05-.04-.06Z"/><path class="x" d="M223.21,235.23c2.64,.44,5.3,.66,7.94,1.11-1.24,6.77-1.58,13.72-1.63,20.59-.09,12.63,.97,25.24,1.62,37.85,.33,6.41,.54,12.81,.67,19.22,.07,3.19,.14,6.38,.16,9.56,0,.79,0,1.59,0,2.38h.74c0-1.21,0-2.42,0-3.62,.03-3.56,.05-7.11,0-10.67-.23-12.7-1.14-25.34-1.79-38.01-.33-6.31-.52-12.61-.45-18.92,.06-6.12,.52-12.21,1.12-18.3,.26,.04,.53,.08,.79,.14,1.07,.21,2.13,.48,3.17,.8h.02c1.13,0,2.54,.31,4.47,1.26h0c.25,.13,.5,.26,.77,.41-1.07-.8-2.42-1.32-3.65-1.78-1.46-.56-2.97-.98-4.5-1.32-3.07-.67-6.26-1.07-9.4-1.05-.2,0-.25,.32-.05,.35Z"/></g></g><g><path class="w" d="M273.82,223.26c-5.35,.66-41.49,4.97-74.02-1.91,0-2.99,.09-6.12,.23-9.33,.13-3.25,.33-6.59,.58-9.95,.28-3.69,.61-7.4,1-11.05,.43-4.07,.93-8.06,1.47-11.86,.56-3.89,1.16-7.59,1.8-10.97,.68-3.6,1.4-6.85,2.13-9.59,1.01-3.78,2.06-6.59,3.09-8.07,.44-.64,1.89-1.44,4.02-2.29,6.9-2.75,21.01-5.99,31.65-5.74,12.25,.29,21.02,2.65,23.74,5.51,.38,.39,.64,.79,.78,1.19,.25,.72,.63,4.76,1.05,10.67,.19,2.68,.39,5.76,.58,9.09,.23,3.76,.45,7.84,.66,12.05,.18,3.68,.36,7.45,.51,11.19,.18,4.13,.34,8.22,.46,12.08,.1,3.23,.18,6.3,.23,9.12,.07,3.85,.09,7.22,.04,9.86Z"/><path class="r" d="M210.5,148.16c.92-.98,5.17-2.41,10.8-3.7,.22-.06,.45-.1,.68-.16,7.32-1.64,16.77-3.01,24.3-2.9,2.72,.04,5.28,.24,7.65,.57,.29,.04,.59,.08,.87,.13,9.09,1.38,15.19,4.55,16.32,6.75,1.49,2.89,6.35,67.93,8.66,80.77,.16,.87,.4,2.1,.72,3.66-8.63,1.19-21.37,1.81-30.16,2.14-4.52,.17-9.06,.29-13.61,.31,.02-1.03-.05-2.06-.13-3.09-.33-4.36-.59-17.96-.4-22.34,.2-4.34,.63-8.68,1.28-12.98,.64-4.28,1.49-8.53,2.43-12.76,.93-4.2,1.9-8.38,3.06-12.53,1.17-4.17,2.48-8.31,3.8-12.45,.52-1.64,1.05-3.24,1.73-4.82,.62-1.43,1.25-2.89,1.48-4.42,.19-1.34-.02-2.61-.89-3.71-.69-.87-1.63-1.51-2.7-1.92-2.39-.91-5.15-.74-7.66-.38-2.67,.38-5.27,1.09-7.83,1.88-2.58,.8-5.05,1.72-7.16,3.39-4.61,3.64-5.62,9.56-6.27,14.86-1.05,8.6-1.02,17.26-.72,25.9,.3,8.78,.91,26.74,1.58,35.5,.24,3.12,.47,6.24,.7,9.36-5.53-.38-17.29-1.51-21.66-3.58,1.13-40.48,6.76-76.78,13.14-83.5Z"/><g><path class="q" d="M223.49,136.16l2.37,11.34s2.09,4.06,13.32,1.74c10.7-2.21,9.95-7.7,9.95-7.7l-2.06-9.01-23.57,3.62Z"/><g class="ah"><path class="u" d="M227.28,144.05c2.89,.5,5.9,.25,8.82-.21,3.56-.57,7.11-1.49,10.16-3.15s5.58-4.14,6.52-7.07c.32-.99,.43-2.12-.24-2.97-.6-.78-1.72-1.16-2.81-1.38-2.03-.41-4.16-.41-6.26-.28-6.35,.39-12.55,1.89-18.61,3.6-1.48,.42-3.06,.92-3.89,2.03-1.04,1.38-1.44,4.42-.54,5.92,1.16,1.94,4.45,3.09,6.84,3.5Z"/></g></g><g><path class="ac" d="M254.02,145.2c.44-.95-2.74-8.92-5.39-6.9-2.65,2.02-8.95,9.62-19.94,8.84-2.56-.18-3.54-3.2-4.04-4.52-.1-.27-.45-.31-.58-.07-.9,1.61-2.72,5.74-2.75,6.76-.05,1.73,1.43,7.67,2.45,7.8,1.01,.13,5.17-6.23,5.17-6.23,0,0,4.36,8.1,5.76,7.69,2.3-.68,13.6-.99,19.34-13.38Z"/><path class="w" d="M254.6,143.87c.45-.94-2.79-8.93-5.49-6.93s-9.11,9.58-20.29,8.74c-2.61-.2-3.6-3.22-4.11-4.54-.1-.27-.46-.31-.59-.07-.92,1.6-2.77,5.72-2.8,6.75-.05,1.73,1.46,7.68,2.49,7.82,1.03,.14,5.26-6.2,5.26-6.2,0,0,4.43,8.13,5.86,7.72,2.34-.67,13.84-.92,19.68-13.27Z"/></g><g><path class="r" d="M228.89,149.71c1.16,.07,4.72,6.71,4.21,7.41s-2.93,2.43-5.17,2.17c-2.24-.26-3.73-2.07-3.65-2.7s2.37-7.02,4.61-6.89Z"/><path class="r" d="M229.27,153.47c-.28,3.06,1.32,5.92,2.68,8.67,1.65,3.33,3.02,6.87,3.36,10.57,.34,3.7-.45,7.61-2.74,10.54-1.77-.66-3.77-1.13-5.65-1.28,1.9-1.91,6.16-9.06,2.21-18.14,.29,3.81,0,8.58-2.58,13.99-.53,1.11-1.13,2.18-1.54,3.34-.41,1.15-.62,2.43-.3,3.61-2.22-.81-4.16-2.11-5.41-4.11-.93-1.48,.61-3.29,1.66-4.69,1.05-1.4,2.34-2.62,3.29-4.09,2.12-3.26,2.34-7.36,2.37-11.25,.02-2.2,.03-4.5,1.08-6.42,.3-.54,1.01-.98,1.57-.72Z"/></g><path class="y" d="M254.59,142.52c-.22-.03-.37,.16-.54,.39-8.65,12.32-8.95,28.85-6.11,41.54,2.63,11.78,11.89,22.5,19.8,27.83,.92,.62,2.21,.39,2.79-.65,.69-1.25,0-2.87-.77-4.07-2.12-3.31-9.8-13.21-11.57-26.09-1.82-13.22,1.16-24.67,6.16-35.04,.22-.46,.09-.75-.26-.97-2.3-1.45-7.05-2.6-9.5-2.94Z"/><path class="y" d="M209.77,147.57c-.96,.66-5.05,5.1-7.78,12.65-7.24,20.03-4.8,40.2-4.51,41.43,.38,1.65,1.82,1.34,2.08-.82,2.8-23.31,7.75-36.64,10.96-42.93,1.44-2.82,3.11-5.48,5.03-7.94,.97-1.24,2.01-2.42,3.03-3.62,.32-.37,1.26-1.17,1.21-1.78-.11-1.29-9.05,2.35-10.01,3.01Z"/></g><g><path class="q" d="M204.18,155.23c-.89,1.72-1.3,3.43-.34,2.77,.97-.66,9.87-7.32,12.74-2.01,.31,.57,.59,1.27,.86,2.06,.16,.87,.21,1.76,.09,2.63-.17,1.3-.46,2.46-.09,3.76,.3,1.1,.8,1.86,.31,2.93-.39,.87-.85,1.66-.86,2.64,0,1.24,.54,2.22,.24,3.47-.05,.2-.12,.4-.19,.59-.04,.03-.08,.06-.12,.09-.27,.18-.54,.34-.82,.5-2.52,1.5-5.61,1.89-8.29,2.81-4.03,1.39-7.6,3.37-10.99,5.42l-7.28-12.83c6.14-5.33,8.48-15.05,14.72-14.85Z"/><path class="k" d="M190.77,164.56c-6.03,6.08-19.99,20.82-12.44,29.79,8.73,10.36,23.98-10.74,23.98-10.74l-11.54-19.05Z"/></g><g><path class="q" d="M278.99,248.13c-.24,4.29,.51,15.56-.81,15.66-1.32,.1-2.61-7.35-2.61-7.35,0,0-.6,12.24-2.37,12.19s-2.77-11.38-2.77-11.38c0,0-1.95,13-4.33,12.49-2.38-.52-.32-13.3-.32-13.3,0,0-2.97,9.72-4.9,8.89-1.93-.83,.71-14.45,.71-14.45,0,0-4.79,5.69-6.28,4.53-1.49-1.16,7.29-13.27,8.52-15.96,1.23-2.69,2.75-9.46,2.75-9.46l14.23,3.93s-1.57,9.93-1.81,14.22Z"/><path class="r" d="M263.68,178c-3.99-13.45-.9-25.69,.92-30.56,.51-1.36,2.1-1.95,3.38-1.28,4.82,2.5,10.25,8.46,13.06,13.77,3.96,7.49,6.35,15.73,7.71,24.08,2.33,14.24,2.75,37.11-6.24,57.72-2.77-1.05-18.43-4.85-19.38-5.5,6.3-26.9,6.01-43.19,.54-58.23Z"/><path class="a`" d="M263.15,236.23c1.36-4.91,2.5-9.88,3.38-14.91,.88-5.03,1.43-10.12,1.64-15.23,.13-5.11-.09-10.25-.92-15.3l-.73-3.77-.94-3.72-1.19-3.64-1.42-3.55c1.67,4.81,2.85,9.77,3.52,14.79,.67,5.02,.89,10.09,.68,15.15-.13,5.07-.69,10.11-1.4,15.14-.72,5.03-1.66,10.03-2.62,15.03Z"/></g><g><path d="M208.33,46.31c-6.39,4.23-17.86,18.21-17.5,49.66,.36,31.45-11.89,48.55-11.89,48.55,0,0,58.03-2.98,77.89-18.82,19.86-15.84,20.9-56.73,1.19-75.14-18.05-16.86-41.19-9.88-49.69-4.25Z"/><g><path class="q" d="M201.14,130.02c4.83,5.44,12.55,9.32,24.65,11,1.12,.16,2.28,.29,3.48,.42,16.09,1.6,30.69-6.1,39.06-19.25,3.89-6.11,6.45-13.42,7.18-21.54,2.37-26.5-15.88-50.88-40.75-53.51-24.77-2.63-38.48,14.84-40.7,44.78-.34,4.63-.56,9.11-.5,13.34,.16,9.84,1.92,18.4,7.56,24.77Z"/><path class="o" d="M235.46,76.19s0-.03,.02-.04c.05-.07,.07-.1-.02,.04Z"/><path class="q" d="M287.06,98.96c1.57,.9,2.85,2.34,3.6,4.49,.82,2.36,.66,4.87,.06,7.12-1.31,4.86-4.7,8.74-9.11,10.73-3.66,1.65-9.76,2.83-13.1-1.26-1.49-1.82-1.67-4.29-1.45-6.47,.48-4.76,1.87-10.49,5.78-13.12,3.48-2.34,9.91-3.96,14.22-1.49Z"/><path class="s" d="M273.65,112.03c.59-1.56,1.27-2.97,2.43-4.2,1.16-1.22,2.53-2.21,4.08-2.89,1.62-.7,3.49-1,5.22-.46,.76,.24,1.48,.61,2.07,1.16,.54,.5,1.28,1.42,1.09,2.2-.11,.46-.56,.72-1.01,.53-.53-.23-.86-.86-1.3-1.24-.45-.39-1.02-.69-1.58-.86-.35-.1-.71-.16-1.06-.18,.55,1,.8,2.13,.67,3.28-.08,.7-.29,1.4-.62,2.02-.18,.34-.4,.66-.65,.95-.11,.13-.23,.25-.36,.37-.21,.19-.41,.25-.68,.3-.38,.08-.79-.38-.69-.75,.05-.18,.09-.36,.2-.51,.09-.13,.2-.24,.3-.37,.15-.2,.28-.41,.4-.63,.28-.5,.47-1.03,.55-1.6,.14-.98-.05-2.04-.52-2.94-.68,.14-1.35,.37-1.97,.66-2.34,1.09-4.57,3.23-5.67,5.58-.27,.58-1.13,.17-.9-.43Z"/><g class="ae"><path class="n" d="M225.26,139.57c.15,.5,.33,.98,.54,1.46,1.12,.16,2.28,.29,3.48,.42,16.09,1.6,30.69-6.1,39.06-19.25-.5-1.03-1.13-2-1.85-2.89-3.34-4.05-8.57-6.24-13.72-6.51-5.14-.27-10.18,1.24-14.65,3.56-4.29,2.23-8.22,5.27-10.76,9.34-2.52,4.05-3.55,9.19-2.1,13.88Z"/><path class="n" d="M201.14,130.02c-.23-4.29-.67-8.61-1.81-12.86-1.13-4.22-3.01-8.42-5.76-11.91,.16,9.84,1.92,18.4,7.56,24.77Z"/></g><g><path class="p" d="M224.73,108.28c-1.79-2.02-4.45,.23-9.75,.39-4.94,.15-7.12-1.81-8.65-.57-2.24,1.81-.08,8.98,8.38,9.54,8.04,.53,12.47-6.6,10.02-9.36Z"/><g><path d="M226.81,97.06c-.08,2.35,1.09,4.3,2.62,4.35,1.53,.05,2.83-1.81,2.91-4.16,.08-2.35-1.09-4.3-2.62-4.35-1.53-.05-2.83,1.81-2.91,4.16Z"/><path d="M201.15,95.74c-.07,1.97,.86,3.6,2.08,3.64,1.22,.04,2.26-1.52,2.33-3.49,.07-1.97-.86-3.6-2.08-3.64s-2.26,1.52-2.33,3.49Z"/></g><path d="M222.43,81.33l.02-.03c.19-.24,.46-.39,.74-.51,.94-.4,1.9-.6,2.91-.66,1.22-.07,2.46,.09,3.63,.44,1.86,.55,3.57,1.77,4.49,3.48,.43,.79,.05,.91-.65,.68-1.83-.59-3.73-.97-5.64-1.13-1.1-.09-2.2,.12-3.3,.01-.53-.05-1.07-.17-1.52-.47-.56-.37-1.16-1.16-.68-1.81Z"/><path d="M199.92,82.88c.68-1.67,1.92-2.83,3.28-3.32,.93-.33,1.96-.42,2.93-.23,.71,.13,1.5,.37,2.06,.85,.24,.21,.42,.49,.46,.8,.1,.94-.87,1.62-1.68,1.74-.82,.11-1.63-.1-2.45-.05-1.4,.09-2.78,.4-4.12,.92-.51,.2-.79,.07-.47-.7Z"/><path class="s" d="M209.01,99.59c.78,.03,1.56,.17,2.33,.25,.39,.04,.53,.02,.63-.38,.09-.38,.12-.78,.14-1.17,.09-1.7-.22-3.38-.21-5.07,0-.39,.52-.42,.64-.09,.53,1.41,.83,2.99,.86,4.5,.02,1.09,.07,3.08-1.27,3.46-.65,.18-1.43-.05-2.08-.15-.45-.06-1.46-.38-1.87-.06-.46,.36,.17,1.53,.36,1.92,.33,.67,.75,1.29,1.25,1.85,.35,.4-.21,.97-.59,.59-.95-.95-1.87-2.22-2.19-3.55-.32-1.36,.7-2.15,1.98-2.09Z"/></g><path d="M191.28,75.15c9.3-2.69,21.72-3.28,30.41-2.15,1.24,.16,2.48,.35,3.71,.57,.01-.82-.05-1.61-.1-2.27-.18-3.03,.19-6.08,1.05-8.98-.28,1.96-.31,3.96-.09,5.93,.21,1.85,.66,3.63,1.36,5.35,.07,.18,.34,.11,.28-.08-1.23-3.88-1.55-8.06-.8-12.08,.2-1.07,.48-2.13,.82-3.16,.21-.45,.43-.89,.67-1.32-1.05,3.52-1.92,12.56,.53,17.32,2.17,.48,4.32,1.04,6.45,1.69,.77-1.46,.59-2.64,.06-4.18-1.37-3.99-2.02-7.89-1.32-12.13,.33-2.06,.96-4.05,1.8-5.94,.1-.19,.19-.36,.28-.53-.23,1.29-.54,2.59-.71,3.92-.24,1.72-.32,3.45-.32,5.18,.01,3.27,.53,6.66,1.89,9.61,1.77,3.87,7.28,7.76,15.05,9.02,7.03,20.9,.09,51.94-9.92,63.4,6.53-.99,13.05-1.98,19.58-2.97,11.79-1.79,24.7-3.41,34.23-10.58,6.77-16.85,9.99-48.07-3.87-71.1-3.81-6.36-8.92-12.09-15.62-16.71-.33-.24-.66-.46-.99-.68-12.77-8.43-28.92-11.15-43.98-8.28-.2,.03-.39,.07-.59,.11-6.28,1.23-12.38,3.48-17.97,6.7-.82,.46-1.52,1.17-2.42,1.47-20.59,6.77-23.02,28.68-19.47,32.87Z"/><path class="ab" d="M206.17,50.5c.42,2.18,3.43,2.5,5.54,2.03,6.9-1.62,12.96-5.74,19.86-7.12,2.93-.58,6.26-.58,8.63,1.32,2.41,1.9,4.04,5.69,7.05,5.41,1.04-.11,1.93-.74,2.97-.87,2.16-.31,4.12,1.63,4.9,3.74,.81,2.08,.84,4.37,1.4,6.53,1.04,3.94,3.96,7.29,7.65,8.79,2.46,1,5.54,1.07,7.44-.81,2.83-2.77,1.63-8.11,4.39-10.95,2.3-2.37,6.25-1.75,9.12-.21,2.11,1.13,4.49,2.72,6.64,1.68,.2-.1,.39-.22,.56-.36-3.81-6.36-8.92-12.09-15.62-16.71-2.03,1.64-3.33,4.49-5.87,4.89-1.77,.27-3.5-.85-4.82-2.14-1.33-1.3-2.44-2.84-4.02-3.83-3.04-1.87-6.92-1.09-10.16,.25-1.9,.77-4.32,1.65-5.84,.17-.58-.55-.87-1.35-1.27-2.02-1.23-2.05-3.69-3.23-5.98-2.86-1.39,.21-2.68,.96-4.08,1.08-3.61,.29-2.61-2.41-2.93-4.5-.2,.03-.39,.07-.59,.11-6.28,1.23-12.38,3.48-17.97,6.7-.82,.46-1.63,.95-2.42,1.47-1.48,1.68-2.77,3.53-3.87,5.51-.47,.83-.92,1.75-.71,2.7Z"/></g></g></g><g><g><g><path class="k" d="M169.15,292.53c-.38,.17-2.79,.96-6.22,2.03-5.87,1.85-14.73,4.55-21.62,6.58-5.31,1.57-9.45,2.73-10.16,2.79h-.04c-2.21,.16-8.93-1.45-11.31-3.37-2.39-1.93-5.9-37.18-4.42-39.5,.02-.04,.04-.06,.07-.09,2.49-2.95,37.45-9.84,39.83-9.67,2.4,.16,9.2,1.23,10.75,3.24,.02,.02,.04,.06,.07,.1,.25,.47,.55,1.8,.85,3.69h.01c1.57,9.59,3.47,33.61,2.19,34.2Z"/><path class="aa" d="M162.93,294.56c-5.87,1.85-14.73,4.55-21.62,6.58-.69-7-2.36-24.78-1.77-25.89,.73-1.39,18.62-7.14,19.93-5.69,.94,1.06,2.61,16.51,3.46,25Z"/><path class="h" d="M166.35,255.34c-2.28,.42-4.55,.87-6.81,1.35-4.17,.89-8.36,1.76-12.48,2.78-4.04,.99-7.96,2.25-11.91,3.44-2.02,.61-4.32,1.17-6.25,2.17-.05-.23-.09-.4-.13-.5-.49-1.25-10.42-3.95-13.32-3.61,2.49-2.95,37.45-9.84,39.83-9.67,2.4,.16,9.2,1.23,10.75,3.24,.02,.02,.04,.06,.07,.1,.08,.15,.16,.39,.25,.7Z"/><path class="l" d="M131.11,303.92c-2.21,.16-8.93-1.45-11.31-3.37-2.4-1.93-5.91-37.18-4.43-39.5,.02-.03,.04-.06,.07-.09,2.9-.34,12.83,2.36,13.32,3.61,.8,2.03,2.09,32.89,2.34,39.35Z"/><path class="aa" d="M150.38,243.13c-2.76-1.2-7.63,.13-12.36,1.06-4.57,.89-9.57,2.13-11.2,4.03-1.64,1.91,.04,11.38,.62,11.7,1.26,.7,4.41,.41,5.1-.61,.44-.64-1.29-6.45-.47-7.6,.83-1.15,5.3-2.44,7.24-2.82,1.94-.39,7.01-1.67,7.6-.8,.6,.87,.61,5.42,.85,6.05,.24,.62,2.62,1.77,5.04,.47,.57-.31-.37-10.59-2.42-11.48Z"/></g><g><path class="v" d="M128.53,247.73c2.85-1.92,2.45-2.02,2.7-.98,.25,1.04,2.08,10.57,6.78,8.94,.51-.18,1.08-.45,1.69-.79,.6-.46,1.13-.99,1.57-1.61,.66-.93,1.16-1.85,2.15-2.47,.83-.53,1.58-.73,1.93-1.72,.28-.81,.48-1.62,1.08-2.28,.75-.84,1.69-1.16,2.28-2.19,.1-.17,.17-.35,.25-.53,0-.05,0-.09-.02-.14-.05-.29-.12-.58-.19-.86-.61-2.67-2.29-4.98-3.4-7.44-1.71-3.78-2.77-7.79-3.7-11.85l-14.35,5.3c3.46,7.9-2.92,14.9,1.23,18.63Z"/><path class="w" d="M127.49,240.64s-.4-1.93-1.11-5.29c-.04-.16-.06-.31-.1-.47-1.48-6.92-4.16-19.36-7.4-33.29-4.94-21.27-10.95-27.15-11.27-36.92-.32-9.78,5.24-23.23,11.74-15.41,5.31,6.39,20.49,42.33,27.18,81.95,.05,.25,.08,.49,.13,.74,.21,1.29,.42,2.59,.61,3.88,.49,3.28-13.87,4.96-19.77,4.81Z"/><path class="ac" d="M146.64,231.95c-6.51,2.02-13.41,3.31-20.27,3.41-.04-.16-.06-.31-.1-.47,1.18-.06,2.35-.14,3.54-.25,4.12-.38,8.2-1.08,12.21-2.11,1.52-.38,3.02-.84,4.49-1.32,.05,.25,.08,.49,.13,.74Z"/></g></g><g><path class="r" d="M98.79,142.71c-1.51-2.13-20.99-5.77-40.18-4.94-19.2,.83-24.17,15.89-25,28.22-.84,12.33-5.81,41.21,0,45.92,5.81,4.72,57.84,8.59,64.57,3.44s11.77-56.96,.62-72.64Z"/><path class="j" d="M48.44,139.98c1.37,.94,2.52,2.2,3.4,3.67,2.07,3.46,2.56,7.5,2.67,11.46,.26,9.11,.02,18.29-.49,27.38-.26,4.69-.69,9.36-1.28,14.02-.36,2.8-.78,5.59-1.51,8.32-.71,2.66-1.71,5.21-3.44,7.38-1,1.25-2.24,2.16-3.63,2.78-5.28-.91-9.2-1.97-10.56-3.08-5.81-4.72-.84-33.59,0-45.92,.67-9.78,3.94-21.26,14.83-26.02Z"/></g><g><g><path class="v" d="M60.15,224.13c13.38,1.54,26.91,1.7,40.35,.97,7.79-.43,15.78-1.24,23.42-3.24-.21,17.64-1.09,33.54-2.15,40.98-2.82,19.78-7.35,63.1-7.35,63.1h-23.19c.11-18.39,3.31-88.16,1.84-88.45-1.47-.29-3.37-.2-6.61,1.57-4.28,2.34-18.86,86.89-18.86,86.89h-22.96c2.1-20.14,11.06-81.81,13.64-102.03,.63,.07,1.25,.15,1.87,.22Z"/><path class="t" d="M93.07,237.49c.63,.12,.4,13.07-.07,29.25,2.97-.03,5.93-.06,8.9-.1,6.52-.1,13.06-.38,19.52-1.29,.12-.87,.24-1.71,.35-2.5,1.06-7.44,1.94-23.34,2.15-40.98-7.63,1.99-15.62,2.81-23.42,3.24-13.44,.74-26.97,.57-40.35-.97-.62-.07-1.25-.15-1.87-.22-1.09,8.51-3.3,24.37-5.66,41.38,.39,.1,.77,.2,1.16,.29,5.43,1.25,10.98,1.98,16.55,2.17,2.76,.09,5.53,.05,8.29-.18,3.19-15.2,6.24-27.64,7.85-28.52,3.23-1.77,5.14-1.86,6.61-1.57Z"/></g><g><path d="M46.88,259.12s1.26,1.99,5.32,3.64c.2,.09,.41,.17,.63,.25,2.67,1,6.44,1.81,11.65,1.9,14.1,.25,22.02-2.12,22.02-2.12,0,0,2.92-13.84,4.82-16.29h0c.19-.26,.37-.39,.55-.37,.07,0,.13,.04,.18,.1,1.3,1.39-2.68,16.9-2.68,16.9,0,0,7.81,1.29,17.91,.48,10.1-.82,21.82-2.79,21.82-2.79,0,0,.61-2.97,1.21-14.27,.3-5.79,0-15.05-.35-22.68,0-.29-.03-.56-.04-.85h0c-.33-6.85-.7-12.2-.7-12.2h-1.17c-.18,0-1.95,.04-4.83,.12-.22,0-.45,0-.68,0-4.99,.13-12.85,.34-21.41,.56-.17,0-.34,0-.52,0-.81,.03-1.63,.04-2.45,.07-.2,0-.4,0-.6,.02-7.1,.19-14.47,.38-20.95,.56-.25,0-.5,0-.75,.02-6.6,.18-12.2,.33-15.51,.41-.31,0-.59,.02-.86,.03-1.52,.04-2.37,.06-2.37,.06-1.95,5.18-10.25,46.43-10.25,46.43Z"/><g><path class="x" d="M52.2,262.76c.2,.09,.41,.17,.63,.25,.18-1.01,.33-2.04,.52-3.03,.38-2.15,.76-4.3,1.12-6.47,1.14-6.7,2.16-13.42,3.12-20.15,2.77-.86,5.36-2.15,7.68-3.78,6.05-4.24,10.14-10.6,11.35-17.41-.25,0-.5,0-.75,.02-.86,4.63-2.98,9.02-6.22,12.65-3.23,3.61-7.39,6.33-12.02,8.2,.13-.92,.28-1.83,.41-2.76,.55-3.9,1.06-7.8,1.56-11.7,.26-1.96,.5-3.91,.74-5.87,0-.04,0-.08,.02-.11-.31,0-.59,.02-.86,.03-.03,.25-.06,.49-.09,.74-.27,2.17-.54,4.34-.81,6.51-1,7.85-2.1,15.68-3.29,23.51-.59,3.9-1.21,7.79-1.84,11.68-.31,1.94-.63,3.89-.95,5.83-.11,.62-.22,1.24-.33,1.87Z"/><path class="x" d="M97.96,232.51c-.02,.16,.15,.26,.3,.27,.93,.11,1.86,.21,2.79,.33,.17,.02,.27-.14,.29-.27,.52-4.15,.72-8.33,.57-12.5-.1-2.95-.33-5.9-.77-8.82-.17,0-.34,0-.52,0,.39,3,.69,6,.77,9.02,.11,4-.11,8.02-.6,12-.74-.09-1.48-.18-2.23-.26,.27-2.14,.45-4.3,.53-6.46,.13-3.94-.06-7.9-.56-11.82-.11-.8-.22-1.61-.35-2.41-.2,0-.4,0-.6,.02,1.15,6.91,1.29,13.95,.39,20.89Z"/><path class="x" d="M122.55,210.95c1.25,4.79,3.81,9.28,7.41,12.91,0-.29-.03-.56-.04-.85h0c-.34-.36-.67-.73-.99-1.1-2.62-3.1-4.53-6.71-5.6-10.51-.04-.15-.09-.31-.11-.46-.22,0-.45,0-.68,0Z"/><path class="x" d="M90.48,246.47c4.12-1.91,8.63-3.24,13.2-3.82,.19-.02,.28,.23,.08,.27-4.51,.94-8.88,2.2-13.15,3.84-.18,.07-.31-.21-.14-.3Z"/></g></g></g><g><path class="w" d="M58.63,213.81c.51,.26,1.03,.51,1.56,.72,4.83,1.95,10.14,2.3,15.28,2.7,5.6,.44,11.16,1.1,16.78,1.35,5.92,.27,17.58,.89,23.34-.67,3.81-1.03,7.68-2.26,10.94-4.56,2.18-1.54,4.04-3.6,4.98-6.1,1.6-4.25,.21-8.39-.67-12.6-.72-3.44-1.64-6.89-2.26-10.36-.68-3.8-1.32-7.59-2.17-11.37-1.31-5.87-2.74-11.77-4.82-17.43-.96-2.62-2.05-5.47-3.92-7.59-.94-1.06-5.27-2.59-11-3.96-.22-.06-.46-.11-.69-.17-7.46-1.74-17.09-3.18-24.76-3.02-2.77,.06-5.38,.29-7.79,.66-.3,.04-.6,.09-.89,.15-9.26,1.55-15.48,5.02-16.63,7.41-.93,1.93-5.04,34.34-5.98,55.37-.05,1.04,1.04,2.09,1.59,2.87,.76,1.08,1.48,2.13,2.4,3.08,1.37,1.41,2.97,2.61,4.72,3.52Z"/><g><path class="v" d="M106.71,137.41l-3.07,11.15s-2.42,3.9-14.18,.76c-11.2-2.99-10.13-8.4-10.13-8.4l2.64-8.84,24.75,5.33Z"/><g class="ag"><path class="t" d="M102.84,142.72c-2.72,.39-5.53,.1-8.23-.39-3.3-.6-6.58-1.52-9.36-3.12-2.78-1.6-5.03-3.94-5.78-6.65-.25-.92-.3-1.96,.35-2.73,.6-.7,1.66-1.03,2.68-1.21,1.92-.33,3.91-.28,5.86-.12,5.92,.5,11.65,2.02,17.23,3.73,1.36,.42,2.82,.92,3.55,1.95,.91,1.3,1.15,4.1,.24,5.47-1.17,1.76-4.3,2.75-6.55,3.08Z"/></g></g><g><path class="r" d="M101.24,156.01c-1.24-.05-6.46,52.49-5.59,54.37,.87,1.88,6.11,8.93,8.24,9.17,2.13,.23,6.49-8.6,6.44-10.6s-6.23-52.83-9.09-52.94Z"/><path class="r" d="M100.74,149.95c-1.16,.07-4.72,6.71-4.21,7.41,.51,.71,2.93,2.43,5.17,2.17s3.73-2.07,3.65-2.7-2.37-7.02-4.61-6.89Z"/></g><g><path class="ac" d="M76.29,145.36c-.44-.95,2.74-8.92,5.39-6.9,2.65,2.02,8.95,9.62,19.94,8.84,2.56-.18,3.54-3.2,4.04-4.52,.1-.27,.45-.31,.58-.07,.9,1.61,2.72,5.74,2.75,6.76,.05,1.73-1.43,7.67-2.45,7.8-1.01,.13-5.17-6.23-5.17-6.23,0,0-4.36,8.1-5.76,7.69-2.3-.68-13.6-.99-19.34-13.38Z"/><path class="w" d="M75.71,144.03c-.45-.94,2.79-8.93,5.49-6.93,2.7,2,9.11,9.58,20.29,8.74,2.61-.2,3.6-3.22,4.11-4.54,.1-.27,.46-.31,.59-.07,.92,1.6,2.77,5.72,2.8,6.75,.05,1.73-1.46,7.68-2.49,7.82-1.03,.14-5.26-6.2-5.26-6.2,0,0-4.43,8.13-5.86,7.72-2.34-.67-13.84-.92-19.68-13.27Z"/></g><g><path d="M76.26,140.63c.22-.02,.42,.1,.52,.3,5.56,11.28,5.57,26.02,2.04,39.06-3.64,13.43-12.26,25.53-23.32,32.7-1.32,.85-3.02,.54-3.62-.9-.71-1.7,.46-3.88,1.66-5.47,3.22-4.3,11.68-15.78,15.37-30.02s.12-25.7-2.45-32.32c-.15-.38-.08-.83,.29-1,2.41-1.14,7.05-2.09,9.51-2.36Z"/><path d="M114.81,145.05c3.77,1.69,7.06,4.3,9.22,8.18,13.79,24.79,10.71,49.52,9.98,50.51-.92,1.24-2.33-1.85-2.42-2.37-4.21-24.07-9.55-37.24-13.24-43.73-1.65-2.91-3.53-5.65-5.64-8.18-1.07-1.28-2.2-2.5-3.31-3.74-.35-.39-1.35-1.21-1.34-1.83,.01-1.33,5.02,.47,5.61,.69,.39,.14,.76,.3,1.13,.47Z"/></g></g><g><path class="v" d="M29.2,240.36c-1.47,4.04-6.59,14.1-5.42,14.72,1.17,.61,5.3-5.73,5.3-5.73,0,0-4.27,11.49-2.61,12.14,1.66,.65,7.02-9.37,7.02-9.37,0,0-3.32,12.72-.93,13.18,2.39,.46,5.53-12.1,5.53-12.1,0,0-1.09,10.1,1.01,10.1,2.1,0,5.03-13.56,5.03-13.56,0,0,2.17,7.11,3.99,6.63s-1.48-15.07-1.55-18.03c-.07-2.96,1.19-9.78,1.19-9.78l-14.63-1.99s-2.46,9.75-3.93,13.78Z"/><path class="w" d="M68.09,166.36c.02,10.4-6.36,16.66-10.98,39.3-3.16,15.51-5.74,29.27-7.05,36.41-.03,.19-.06,.38-.1,.57-.53,2.93-.83,4.59-.83,4.59-6.46,.15-22.28-1.63-21.86-5.13,.16-1.38,.34-2.76,.52-4.13,.05-.33,.09-.65,.14-.97,5.85-42.09,21.11-80.25,26.69-87.04,6.85-8.32,13.45,6,13.47,16.4Z"/><path class="ac" d="M50.06,242.07c-.03,.19-.06,.38-.1,.57-1.91-.04-3.82-.22-5.71-.46-5.02-.64-9.95-1.85-14.71-3.56-.58-.21-1.17-.43-1.75-.65,.05-.33,.09-.65,.14-.97,3.25,1.33,6.6,2.4,10.02,3.22,4,.96,8.03,1.49,12.11,1.85Z"/><path class="ac" d="M52.09,231.22c1.08-4.67,2.07-9.36,3.05-14.05,1-4.68,1.86-9.41,2.9-14.07,1.01-4.67,2.28-9.29,3.75-13.84,1.44-4.56,3.26-9.01,4.65-13.6-.83,2.25-1.74,4.46-2.65,6.68-.89,2.23-1.75,4.47-2.55,6.73-1.59,4.53-2.86,9.18-3.94,13.86-.51,2.35-.95,4.71-1.4,7.06-.45,2.36-.92,4.71-1.33,7.07-.87,4.72-1.72,9.43-2.49,14.17Z"/></g><g><path d="M124.83,48.25c8.66,6.63,12.63,18.84,9.54,29.33-.52,1.76-1.24,3.5-2.46,4.87-1.22,1.37-3,2.32-4.82,2.17-3.28-.26-5.27-3.67-6.67-6.66-2.39-5.13-4.75-10.34-6.01-15.87-.94-4.09-2.15-11.07,.11-14.95,2.13-3.67,7.86-.77,10.31,1.11Z"/><path class="v" d="M137.04,95.25c.04,3.76-.09,7.4-.45,10.85,0,.06,0,.12-.02,.18-.1,1.07-.25,2.12-.41,3.16-1.36,8.92-4.48,16.48-10.41,21.84-.03,.03-.07,.06-.1,.1-1.04,.93-2.17,1.8-3.39,2.6h0c-5.13,3.32-11.91,5.41-20.84,5.88-.4,.02-.81,.04-1.22,.05-.45,.02-.91,.03-1.38,.04-1.04,.02-2.04,0-3.07-.08-12.67-.85-24.02-8.57-30.89-20.28-.05-.11-.11-.21-.17-.31-.56-.96-1.08-1.95-1.57-2.96-2.53-5.16-4.25-11.02-4.93-17.38-2.84-26.27,13.42-50.59,36.88-52.08,23.85-1.52,41.63,17.49,41.97,48.4Z"/><path d="M147.05,44.62c-.7-1.97-2.07-3.65-3.82-4.78-1.99-1.3-4.38-1.74-6.71-1.8-2.72-.08-5.49,.19-8.17,.65,.25-1.3,.15-2.64-.5-3.95-1.7-3.44-5.91-4.11-9.35-3.87-3.75,.25-7.48,1.11-10.97,2.51-1.96,.79-3.85,1.74-5.64,2.86-.88,.55-1.74,1.13-2.55,1.77-.25,.19-.49,.39-.72,.6-3.76-.14-8.08-.17-12.61,.04-3.95,.16-8.04,.53-12.07,1.15-5.46,.86-10.8,2.2-15.39,4.28-.2,.09-.4,.19-.6,.29-.26-.4-.53-.8-.81-1.18-.96-1.33-2.11-2.87-3.62-3.61-1.24-.61-2.95-.54-3.8,.69-.94,1.36-.07,3.32,.57,4.63,.39,.8,.88,1.54,1.43,2.22-1.18-.39-2.38-.67-3.63-.7-1.36-.03-5,.5-3.46,2.63,.95,1.32,2.43,2.25,4.04,2.68-3.96,5.04-5.69,11.24-6.21,17.3-.58,7.35,.64,14.49,1.95,19.13,.55,1.95,1.47,3.63,2.63,5.06,.47,.4,.99,.75,1.56,1.02,2.47,1.16,5.23,1.51,7.92,1.55,1.14,.01,2.29,.01,3.33,.53,1.78,.88,2.49,3.02,4.09,4.15,.22,.16,.46,.3,.72,.38,.2,.06,.42,.08,.63,.09,1.65,.04,3.21-.86,4.02-2.3,.99-1.77,1.16-4.05,1-6.04-.11-1.32-.38-2.6-.76-3.86,0-.04,0-.08,0-.12,.95-.01,1.89-.35,2.76-.77,1.25-.61,2.58-1.3,3.54-2.32,1.64-1.75,2.17-4.23,2.17-6.57,0-2.96-.91-5.84-.84-8.81,.07-2.68,1.2-5.11,2.7-7.28,.44-.64,.93-1.25,1.42-1.85,.44,.4,.89,.76,1.33,1.08,1.91,1.4,4.16,2.34,6.5,2.68,2.19,.32,4.54,.14,6.5-.95,1.44-.8,2.46-2.06,3.02-3.54,1.68,1.26,3.62,2.13,5.72,2.38,2.39,.28,5.45-.43,7.3-2.08,.79,.82,1.62,1.59,2.53,2.27,2.71,2.01,5.97,3.23,9.35,3.4,2.24,.11,4.97-.22,7.06-1.41,.9,.05,1.79,.06,2.66-.01,2.22-.19,4.42-.92,6.01-2.53,1.16-1.17,1.82-2.69,1.85-4.28,.77-.48,1.51-.99,2.18-1.58,3.25-2.83,5.22-7.57,3.72-11.79Z"/><path class="ab" d="M86.23,41.09c-.66,2.61-3.7,3.95-6.46,4.63-.48,.12-.96,.25-1.33,.54-.69,.54-.73,1.56-.54,2.39,.19,.84,.56,1.65,.46,2.51-.21,1.77-2.35,2.82-4.26,2.86-1.91,.02-3.76-.62-5.67-.76-1.91-.14-4.13,.49-4.84,2.14-.79,1.83,.6,4.14-.54,5.82-.87,1.3-2.91,1.48-4.47,.93-1.54-.56-2.8-1.63-4.22-2.43-.64-.37-1.39-.68-2.12-.56-1.29,.23-1.87,1.63-2.22,2.82-.52,1.75-1.04,3.52-1.56,5.27-.48,1.58-1.29,3.46-3.01,3.66-1.1,.14-2.18-.54-2.74-1.42-.1-.16-.19-.31-.25-.49,.52-6.15,2.28-12.45,6.38-17.53,.66,.06,1.33,.19,1.95,.37,2.93,.8,4.84,.76,6.75-1.75,.87-1.15,1.6-2.45,2.78-3.35,3.22-2.39,8.56-.95,11.47-3.68,.98-.89,1.5-2.14,2.14-3.29,4.03-.62,8.12-.99,12.07-1.15,.33,.78,.44,1.61,.23,2.45Z"/><path class="v" d="M48.03,89.71c-1.91,.35-3.67,1.36-5.05,3.29-1.53,2.12-2.05,4.76-2.03,7.3,.05,5.52,2.61,10.82,6.81,14.54,2.6,2.3,5.96,4.36,9.52,4.68,4,.36,7.24-2.13,8.13-5.96,.45-1.94,.33-3.97,.05-5.94-1.23-8.35-7.08-19.83-17.44-17.92Z"/><path class="t" d="M49.31,97.46c1.88-.04,3.53,1.16,4.72,2.51,2.74,3.13,3.92,7.15,3.48,11.27-.06,.59-.99,.62-.95,0,.2-3.27-.9-6.68-2.87-9.29-.44-.58-.94-1.17-1.52-1.67-.57,.68-.97,1.47-1.15,2.34-.1,.49-.13,.94-.1,1.48,0,.13,.02,.26,.03,.4-.01-.09,.02,.13,.02,.13,.01,.07,.03,.13,.04,.19,.07,.31,.15,.58,.14,.91-.02,.49-.61,.77-.99,.42-.51-.49-.61-1.28-.68-1.96-.06-.64,0-1.31,.17-1.92,.27-1.02,.79-1.94,1.53-2.67-.31-.17-.64-.32-.98-.41-.62-.17-1.3-.14-1.89,.12-.61,.28-.91,.88-1.47,1.19-.32,.18-.83,.05-.91-.36-.33-1.71,2.03-2.64,3.37-2.68Z"/><path class="p" d="M101.86,108.53c2.95-1.04,5.18,.94,10.37,1.34,5.19,.4,8.58-.81,9.21,.22,1.46,2.37-3.61,7.99-10.95,7.99-7.34,0-11.58-8.51-8.63-9.55Z"/><g class="ad"><path class="n" d="M102.1,136.62c-.47,1.18-1.12,2.29-1.91,3.27-.45,.02-.91,.03-1.38,.04-1.04,.02-2.04,0-3.07-.08-12.67-.85-24.02-8.57-30.89-20.28-.05-.11-.11-.21-.17-.31-.56-.96-1.08-1.95-1.57-2.96,.66-1.27,1.51-2.42,2.54-3.4,3.41-3.27,8.36-4.64,13.07-4.28s9.2,2.31,13.11,4.94c3.78,2.53,7.19,5.79,9.25,9.85,2.06,4.04,2.67,8.98,1,13.2Z"/><path class="n" d="M136.58,106.1c0,.06,0,.12-.02,.18-.1,1.07-.25,2.12-.41,3.16-1.36,8.92-4.48,16.48-10.41,21.84-.03,.03-.07,.06-.1,.1,.43-4.35,1.07-8.67,2.45-12.8,1.63-4.84,4.41-9.44,8.49-12.47Z"/></g><g><path d="M101.46,96.49c.08,2.35-1.09,4.3-2.62,4.35-1.53,.05-2.83-1.81-2.91-4.16-.08-2.35,1.09-4.3,2.62-4.35,1.53-.05,2.83,1.81,2.91,4.16Z"/><path d="M127.12,95.16c.07,1.97-.86,3.6-2.08,3.64-1.22,.04-2.26-1.52-2.33-3.49-.07-1.97,.86-3.6,2.08-3.64,1.22-.04,2.26,1.52,2.33,3.49Z"/></g><g><path d="M93.13,82.29c-.18,.32-.35,.65-.38,1.01-.19,2.52,4.27-.54,5.01-.9,1.29-.64,2.59-1.23,3.95-1.72,2.11-.76,4.51-1.68,4.98-4.15,.2-1.05-.08-2.21-.88-2.94-.95-.87-2.26-.86-3.42-.47-3.22,1.08-5.98,4.08-7.96,7.05-.48,.72-.91,1.44-1.3,2.12Z"/><path d="M128.65,76.71c-1.51-2.31-3.74-4.55-6.59-5.09-1.03-.2-2.23-.05-3.2,.81-.81,.72-1.19,1.74-1.12,2.62,.17,2.05,2.29,2.56,4.15,2.96,1.2,.26,2.33,.61,3.46,1,.64,.22,4.42,2.31,4.52,.18,.01-.31-.11-.57-.24-.82-.28-.54-.6-1.1-.97-1.66Z"/></g><path class="t" d="M115.42,99.06c.05-.96,.2-1.92,.45-2.85,.25-.93,.6-1.83,1.03-2.69,.22-.43,.46-.83,.74-1.22,.3-.4,.59-.95,1.07-1.15,.46-.2,.9,.12,.81,.63-.08,.5-.5,.95-.75,1.4-.23,.42-.47,.84-.68,1.28-.42,.88-.72,1.81-.92,2.75-.22,1.01-.32,2.06-.26,3.09,.02,.42,.05,.88,.56,.9,.5,.03,.98-.33,1.41-.54,1.6-.75,3.56-.36,4.52,1.22,.9,1.48,.33,3.37-1.08,4.27-.35,.22-.74-.29-.44-.57,1.31-1.25,.8-3.65-1.13-3.86-.94-.1-1.66,.6-2.52,.85-.88,.25-1.9,.07-2.41-.75-.49-.78-.43-1.87-.39-2.76Z"/></g></g></g></g><g id="f"/></g></svg>