<?xml version="1.0" encoding="UTF-8"?><svg xmlns="http://www.w3.org/2000/svg" viewBox="0 0 212 197"><defs><style>.d{fill:#fff;}.e{fill:#934a7d;}.f{fill:#a96e97;}</style></defs><g id="a"/><g id="b"><g><path class="e" d="M202.86,182.13c-.27,2.45-2.35,4.2-4.86,4.2H17.64c-2.7,0-4.79-1.89-4.79-4.59V86.47c4-1.83,9.51-2.66,14.84-3.11,.1,0,.18-.02,.29-.03-1.65,.14,3.81,10.6,8.22,18.01,.32,.54,.63,1.06,.93,1.56,1.76,2.88,3.22,5.05,3.81,5.57,17.38,15.17,43.51,9.69,64.33,14.8,12.96,3.18,25.73,9.8,34.54,20.02,3.83,4.44,6.48,9.91,9.37,15.17,.29,.52,.57,1.04,.87,1.56,2.94,5.2,6.26,10.09,11.37,13.41,2.27,1.47,4.65,2.58,7.11,3.42,1.95,.67,3.95,1.17,5.98,1.56,7.7,1.49,15.86,1.34,23.53,2.72,1.62,.29,3.24,.56,4.82,1Z"/><g><g><path class="e" d="M203.71,38.17l-.21-2.18-.16-1.72-.2-2.1-1.73-18.38c-.25-2.69-2.68-4.67-5.41-4.42l-18.85,1.72-37.17,3.39-28.55,2.6-5.02,.46-60.7,5.54-32.22,2.94c-1.36,.12-2.55,.78-3.36,1.74-.82,.97-1.26,2.23-1.13,3.58l2.09,22.2c.25,2.69,2.68,4.67,5.41,4.42l52.55-4.79,12.37-1.13,28.55-2.6,37.17-3.39,28.55-2.6,25.54-2.33c1.51-.14,2.62-1.45,2.48-2.94Z"/><path class="e" d="M197.9,58.85H14.6c-2.74,0-4.75,2.43-4.75,5.13v120.11c0,2.7,2.01,4.91,4.75,4.91H197.9c2.56,0,4.6-1.92,4.87-4.36,.02-.18-.04-.37-.04-.55V63.98c0-2.7-2.09-5.13-4.83-5.13Z"/></g><path class="e" d="M9.03,30.18s.49-4.83,7.02-6.44c-3.94,4.94-7.02,6.44-7.02,6.44Z"/></g><g><path class="d" d="M196.13,7.02L16.55,23.66c-1.34,.12-2.51,.78-3.31,1.74-.8,.97-1.24,2.23-1.11,3.58l2.06,22.2c.25,2.69,2.63,4.67,5.32,4.42l179.58-16.64c2.69-.25,4.67-2.63,4.42-5.32l-2.06-22.2c-.25-2.69-2.63-4.67-5.32-4.42Z"/><path class="e" d="M83.39,49.69l-36.58,3.39L13.24,25.41c.8-.96,1.97-1.62,3.31-1.74l31.71-2.94,35.13,28.96Z"/><polygon class="e" points="148.05 43.69 112.92 14.73 76.34 18.12 111.48 47.08 148.05 43.69"/><polygon class="e" points="203.96 38.51 203.16 29.82 177.59 8.74 141.01 12.13 176.14 41.09 203.96 38.51"/></g><g><path class="d" d="M190.72,104.27c0-1.68-1.36-3.04-3.04-3.04H28.24c-1.68,0-3.04,1.36-3.04,3.04v71.01c0,1.68,1.36,3.04,3.04,3.04H187.68c1.68,0,3.04-1.36,3.04-3.04V104.27Zm-2,71.24c0,.81-.66,1.47-1.47,1.47H27.68c-.81,0-1.47-.66-1.47-1.47V104.38c0-.81,.66-1.47,1.47-1.47H187.25c.81,0,1.47,.66,1.47,1.47v71.13Z"/><rect class="d" x="25.54" y="158.63" width="164.19" height="1.33"/><rect class="d" x="106.96" y="158.97" width="1.67" height="18.69"/></g><g><path class="d" d="M198,56.85H17.64c-2.7,0-4.79,2.09-4.79,4.79v27.25H202.74v-27.25c0-2.7-2.04-4.79-4.74-4.79Z"/><polygon class="e" points="81.8 56.85 49.48 88.89 12.75 88.89 45.06 56.85 81.8 56.85"/><polygon class="e" points="146.74 56.85 114.43 88.89 77.7 88.89 110.01 56.85 146.74 56.85"/><path class="e" d="M202.74,61.63v3.84l-23.37,23.41h-36.73l32.31-32.04h23.05c2.7,0,4.74,2.09,4.74,4.79Z"/></g><g><path class="f" d="M51.2,63.93l-24.78-24.78c-.78-.78-1.9-1.02-2.93-.59-1.02,.42-1.63,1.42-1.63,2.53v25.02c0,.73,.24,1.43,.76,1.95,.52,.51,1.19,.8,1.93,.79l24.76-.25c1.1-.01,2.08-.68,2.5-1.7,.42-1.02,.17-2.19-.61-2.97Z"/><g><circle class="d" cx="25.57" cy="45.2" r="2.05"/><circle class="d" cx="25.57" cy="63.98" r="2.05"/><circle class="d" cx="45.13" cy="63.98" r="2.05"/></g></g></g></g><g id="c"/></svg>