<?xml version="1.0" encoding="UTF-8"?><svg xmlns="http://www.w3.org/2000/svg" xmlns:xlink="http://www.w3.org/1999/xlink" viewBox="0 0 390 193"><defs><style>.e{fill:none;}.f{fill:#fff;}.g{fill:#ffcf01;}.h{fill:#7dd7d8;}.i{fill:#934a7d;}.j{fill:#a9e5e5;}.k{fill:#be92b1;}.l{fill:#d4f2f2;}.m{fill:#52cacb;}.n{clip-path:url(#c);}</style><clipPath id="c"><rect class="e" x="0" y="0" width="390" height="193"/></clipPath></defs><g id="a"/><g id="b"><g class="n"><rect class="j" x="-1" width="396" height="194"/><g><path class="m" d="M467.79,80.91C428.84,29.24,359.97,5.5,295.07,26.8c-70.59,23.18-113.38,92.05-106.31,163.04l15.66-.06c-7.1-64.4,31.5-127.16,95.51-148.18,58.52-19.21,120.64,2.29,155.65,48.98,8.92,11.9,16.09,25.43,20.98,40.35l14.79-4.86c-5.49-16.71-13.53-31.86-23.56-45.16Z"/><path class="h" d="M455.57,90.58c-35.01-46.7-97.12-68.19-155.65-48.98-64.01,21.02-102.61,83.78-95.51,148.18l15.67-.06c-7.15-57.8,27.27-114.47,84.7-133.33,53.98-17.72,111.41,3.54,141.77,48.36,6.35,9.36,11.51,19.76,15.21,31.04l14.8-4.86c-4.9-14.91-12.06-28.45-20.98-40.35Z"/><path class="j" d="M446.55,104.74c-30.36-44.82-87.78-66.08-141.77-48.36-57.43,18.86-91.84,75.52-84.7,133.33l15.69-.06c-7.22-51.2,23.01-101.78,73.86-118.48,51.22-16.81,105.97,6.48,130.23,52.68,2.79,5.3,5.17,10.9,7.1,16.78l14.79-4.85c-3.71-11.28-8.87-21.68-15.21-31.04Z"/></g><path class="l" d="M274.01,152.73c-2.47,0-4.82,.53-6.95,1.45-1.68-10.06-10.44-17.71-20.96-17.67-4.49,.02-8.65,1.44-12.06,3.84-5.18-9.3-15.13-15.58-26.54-15.54-16.3,.06-29.53,13.03-30.08,29.19-2.93-1.59-6.29-2.49-9.86-2.48-11.35,.05-20.51,9.28-20.47,20.63,.05,11.35,9.28,20.51,20.63,20.47,.04,0,.08,0,.12,0,1.26,12.65,11.95,22.51,24.92,22.46,9.42-.04,17.6-5.3,21.82-13.02,2.13,.99,4.49,1.55,6.98,1.54,4.17-.02,7.97-1.6,10.86-4.17,3.63,4.48,9.18,7.34,15.4,7.32,10.9-.04,19.69-8.91,19.65-19.81,0-.03,0-.06,0-.09,2.07,.83,4.32,1.3,6.68,1.29,9.77-.04,17.66-7.99,17.63-17.77-.04-9.77-7.99-17.66-17.77-17.63Z"/><path class="l" d="M487.28,97.93c-2.84,.01-5.55,.61-8,1.67-1.93-11.59-12.02-20.4-24.14-20.35-5.17,.02-9.96,1.65-13.89,4.42-5.97-10.71-17.43-17.94-30.56-17.89-18.78,.07-34.01,15-34.64,33.61-3.38-1.83-7.25-2.87-11.36-2.85-13.07,.05-23.62,10.69-23.57,23.76,.05,13.07,10.69,23.62,23.76,23.57,.05,0,.09,0,.13,0,1.45,14.57,13.76,25.92,28.7,25.86,10.85-.04,20.27-6.1,25.13-15,2.45,1.14,5.17,1.78,8.04,1.77,4.81-.02,9.18-1.84,12.51-4.8,4.18,5.16,10.58,8.45,17.74,8.42,12.55-.05,22.68-10.26,22.63-22.81,0-.04,0-.07,0-.11,2.38,.96,4.97,1.49,7.7,1.48,11.25-.04,20.34-9.2,20.3-20.46-.04-11.25-9.2-20.34-20.46-20.3Z"/><g><g><g><path class="i" d="M220.58,45.18c-.65,1.65-1.83,3.03-3.07,4.29-1.92,1.95-4.07,3.7-6.1,5.55-1.45,1.32-2.85,2.69-4.07,4.23-1.3,1.62-2.03,3.65-3.52,5.07-.15,.15-.76,.76-1.46,1.43-1.02,1-2.22,2.11-2.42,2.02-.57-.26-.79-.93-.94-1.53-.05-.21-.1-.42-.15-.63l-.02-.07c-.49-2.09-.84-4.32-.98-6.61-.37-5.73,.54-11.73,3.71-16.26,1.85-2.66,4.06-5.27,6.78-7.07,2.46-1.62,7.16-3.09,8.54,.58,.39,1.03,.58,2.18,1.29,3.03,.62,.73,1.54,1.13,2.13,1.88,.89,1.13,.78,2.76,.26,4.1Z"/><path class="k" d="M211.41,55.02c-1.45,1.32-2.85,2.69-4.07,4.23-1.3,1.62-2.03,3.65-3.52,5.07-.15,.15-.76,.76-1.46,1.43-.25,.04-.51,.07-.76,.09-.92,.06-1.86-.01-2.75-.23l-.02-.07c-.49-2.09-.84-4.32-.98-6.61,1.62-1.42,3.72-2.26,5.79-2.93,2.5-.81,5.2-1.44,7.76-.97Z"/></g><path class="i" d="M318.74,77.79c-6.16,.62-15.52,16.18-13.32,16.54,11.07,1.82,14.57,14.42,22.84,17.18,9.14,3.05,16.78-2.9,23.26-5.81,0,0,7.4-2.09,9.99-1.71,3.15,.46,8.46,1.72,9.61-5.17,0,0,.18-1.4-1.74-1.66-1.3-.18-6.21-.41-7.53-1.29-1.32-.89-3.48-1.82-4.55-.59-1.07,1.23-3.86,2.11-5.78,1.86-1.92-.25-5-19.41-20.47-19.74-5.3-.11-9.31,.08-12.3,.38Z"/><path class="k" d="M370.72,100.1s.17,.77,.17,.84c0,.29-.07,.58-.2,.84-.12,.26-.29,.5-.5,.69-.21,.18-.57,.25-.73,.46-.46,.6-.99,.9-1.72,1.13-.74,.23-1.54,.31-2.32,.34-1.32,.04-2.61-.2-3.91-.39-2.6-.38-9.99,1.71-9.99,1.71-6.48,2.9-14.12,8.86-23.26,5.81-1.3-.44-2.48-1.11-3.6-1.96,.14-1.48,.22-2.96-.18-4.34-.68-2.34-2.69-4.13-3.33-6.48-.73-2.71,.61-5.71,2.84-7.43,.92-.7,2.09-1.32,3.33-1.69,1.24-.38,2.54-.52,3.71-.3,2.57,.5,4.59,.68,7.25,.25,2.84-.47,5.68-.98,8.5-1.54,2.65,4.61,3.83,9.01,4.75,9.13,1.92,.25,4.7-.63,5.78-1.86,1.07-1.23,3.23-.3,4.55,.59,1.32,.89,6.23,1.11,7.53,1.29,.59,.08,1.29,.38,1.69,.89,.15,.18,.25,.4,.28,.64,.08,.54-.17,1.11-.63,1.4Z"/><path class="k" d="M371.06,98.05c-.73,.31-1.48,.58-2.24,.81-4.51,1.32-9.31,.8-14,1.02-5.63,.27-11.47,1.58-16.79-.3-4.71-1.67-8.53-5.52-10.71-9.98,1.24-.38,2.54-.52,3.71-.3,2.57,.5,4.59,.68,7.25,.25,2.84-.47,5.68-.98,8.5-1.54,2.65,4.61,3.83,9.01,4.75,9.13,1.92,.25,4.7-.63,5.78-1.86,1.07-1.23,3.23-.3,4.55,.59,1.32,.89,6.23,1.11,7.53,1.29,.59,.08,1.29,.38,1.69,.89Z"/><path class="i" d="M236.42,136.15s0,0,0,0c-2.83,2.03-7.2,4.11-11.36,6.05-5.91,2.74-11.41,5.15-11.53,6.61-.19,2.48-1.45,6.11-1.94,7.45-.49,1.35-5.65,5.17-8.47,6.57-2.82,1.4-3.76,0-3.76,0-6.43-8.15,.86-14.66,1.72-15.5,.86-.84,7.6-9.71,11.04-13.63,.68-.77,1.65-1.9,2.79-3.22,3.86-4.45,9.57-11.05,11.69-13.23,.45-.46,.74-.72,.81-.72,8.17,0,15.85,14.71,9.01,19.61Z"/><path class="k" d="M213.98,148.04c-.28,.28-.44,.54-.45,.77-.03,.4-.08,.79-.15,1.18-.21,1.2-.56,2.36-.87,3.54-.38,1.43-.28,2.84-1.06,4.19-.57,.98-1.57,1.78-2.7,1.81-.58,1.93-2.52,3.36-4.54,3.34-.26,.76-1.11,1.18-1.91,1.2-1.09,.02-2.18-.41-2.91-1.21,0-.01-.02-.02-.03-.03-2.55-2.8-3.28-7.01-1.87-10.48,.8-1.95,2.11-3.55,3.59-5.01,.46-.44,2.53-3.09,4.89-6.08,1.19-.36,2.53-.43,3.36,.43,.93,.96,.73,2.56,1.38,3.73,.3,.54,.76,.95,1.22,1.36,.54,.47,1.11,.93,1.78,1.19,.09,.03,.17,.06,.26,.08Z"/><path class="i" d="M236.42,136.15s0,0,0,0c-2.83,2.03-7.2,4.11-11.36,6.05-1.83-1.3-3.51-2.8-5.01-4.47-2-2.2-3.7-4.66-5.14-7.25,3.86-4.45,9.57-11.05,11.69-13.23,.22,.1,.43,.23,.63,.37,1.21,.82,2.09,2.02,2.9,3.23,2.53,3.82,4.54,8,5.94,12.36,.2,.61,.38,1.22,.42,1.86,.02,.36,0,.72-.07,1.07Z"/><path class="g" d="M303.97,33.25l-53.41,46.28c-.98-1.43-2.49-2.41-4.5-2.96-3.44,0-5.96,3.71-7.48,6.3-.03,.04-.05,.09-.1,.12-.1,.06-.22-.02-.31-.1-1.37-1.2-2.45-2.68-3.53-4.15,2.91-1.23,5.28-2.95,7.56-5.18,5.62-5.5,9.69-12.5,12.95-19.59,9.51-20.71,22.38-28.82,37.35-26.03,0,0,5.31,.98,11.47,5.31Z"/><path class="g" d="M220.63,125.29s-6.37-.16-6.96-6.7c-.59-6.53,8.11-12.53,8.11-12.53l.72,18.1-1.88,1.12Z"/><path class="i" d="M339.19,22.47c-.28,0-.55,.11-.83,.39-2.07,2.13,1.13,6.85,1.77,9.03,.99,3.42,1.37,7.01,1.18,10.57-.38,7.11-3.05,14.13-7.77,19.5-2.77,3.16-4.26,5.54-.5,8.71,.79,.63,6.26-6.1,6.79-6.85,1.89-2.7,3.29-5.72,4.29-8.86,2.48-7.82,2.16-16.13-.35-23.9-.45-1.38-2.52-8.52-4.58-8.59Z"/><path class="i" d="M239.47,82.78s3.27,4.84,14.88,5.33c11.61,.49,25.51-21.25,63.44-27.63,37.93-6.38,38.91,11.34,37.44,15.81-1.47,4.47-19.21,8.46-34.5,12.84-26.16,7.49-26.81,31.52-40.38,42.64-7.59,6.22-36.95,23.38-53.46,4.09-10.51-12.28-3.6-19.46-8.83-37.28l21.42-15.79Z"/><path class="i" d="M222.85,94.28c-1.26,.34-3.37-.94-5.64-2.82-3.2-2.66-6.73-6.53-8.63-8.71-.9-1.01-1.43-1.66-1.43-1.66l6.74-4.8,13.21-9.41s.04,.07,.06,.1c.4,.64,2.58,4.13,3.39,5.7,.91,1.73,5.21,7.57,5.83,8.13,.62,.55-9.65,12.43-13.54,13.47Z"/><path class="g" d="M236.28,80.59c-2.7,3.37-5.83,6.39-9.29,8.98-2.8,2.1-7.77,4.23-8.27,8.21-.09,.68-.06,1.41,.31,1.98,.41,.63,1.19,.96,1.95,.99,.76,.03,1.5-.19,2.21-.44,4.71-1.65,8.75-4.76,12.47-8.08,2.34-2.09,4.18-4.6,5.41-7.5,.04-.1,.08-.2,.06-.3-.02-.1-.11-.17-.19-.24-1.5-1.27-3-2.55-4.49-3.82-.06,.07-.11,.14-.17,.21Z"/><path class="k" d="M219.56,80.73c-.2-.82-.5-1.62-1.01-2.3-.65-.87-1.55-1.43-2.56-1.75-.66-.22-1.37-.35-2.1-.4l-6.74,4.8s-11.37,9.37-10.47,10.38c1.9,2.18,7.95,6.04,20.53,0,2.32-2.99,3.27-7.04,2.35-10.72Z"/><path class="i" d="M208.59,82.74c-.4,.4-.8,.78-1.21,1.16-3.91,3.65-9.47,8.32-15.22,6.18-.96-.36-1.86-1.11-2.68-1.73-1.52-1.16-3.1-2.45-4.27-3.98-1.64-2.15-1.84-5.12-1.23-5.84,.39-.45,4.49-2.35,7.51-3.83,1.8-.88,3.21-1.6,3.25-1.8,.25-1.26,.07-2.68,.21-3.96,.21-1.95,.82-3.48,1.94-5.1,2.21-3.18,5.51-5.61,9.24-6.72,1.57-.46,3.19-.7,4.82-.88,4.1-.44,8.77,1.5,11.51,4.5,1.71,1.87,3.38,3.93,4.66,6.12,.02,.03,.04,.07,.06,.1,.17,.32,.27,.54,.24,.61-.13,.31-6.43,5.23-11.42,9.1-3.28,2.54-5.99,4.62-5.99,4.62-.48,.5-.95,.99-1.41,1.44Z"/><path class="k" d="M215.99,76.68c-.66-.22-1.37-.35-2.1-.4-.8-.06-1.6-.03-2.37,.04-2.23,.21-4.43,.69-6.55,1.43-1.52,.52-3.21,1.17-4.67,.49-1.18-.55-1.83-1.85-2.86-2.66-1.3-1.02-3.09-1.17-4.74-1-.4,.04-.81,.09-1.21,.13-1.97,.97-3.96,1.89-5.91,2.89-1.64,.84-2.92,1.98-2.48,4.04,.25,1.16,.96,2.16,1.72,3.05,2.19,2.56,4.99,4.59,8.1,5.87,3.82,1.57,8.16-1.55,11.08-3.78,1.62-1.24,3.15-2.6,4.59-4.04,.46-.46,.93-.94,1.41-1.44,0,0,2.71-2.08,5.99-4.62Z"/><path class="i" d="M183.75,78.91c.73-.74,2.32-1.01,3.11-1.07,1.21-.1,4.83,.16,4.48,1.95-.08,.39-.28,.74-.49,1.08-.45,.7-.99,1.36-1.67,1.84s-1.53,.76-2.36,.66c-1.16-.14-2.25-1.36-2.92-2.26-.31-.42-.58-.93-.53-1.45,.03-.29,.17-.53,.37-.74Z"/><path class="k" d="M213.73,64.17c.2-.12-.32-1.05-.42-1.28-.16-.34-.57-.64-.87-.83-.7-.44-1.5-.71-2.32-.83-.78-.12-3.88-.42-3.8,.98,.02,.42,.48,.66,.89,.76,.76,.17,1.54,.12,2.32,.16,1.32,.07,2.62,.41,3.81,.99,.13,.06,.28,.13,.4,.05Z"/><path class="k" d="M198.98,62.69c.41,.07,.82,.32,.94,.75,.02,.09,.04,.19,.01,.28-.04,.15-.18,.26-.32,.32-.79,.29-1.57-.09-2.4,.27-.22,.09-1.03,.46-1.09,.74,.49-2.47,2.12-2.5,2.86-2.37Z"/><path class="g" d="M330.4,48.45s-28.82,9.27-52.45,32.14c-21.84,21.13-31.21,38.26-48.06,41.34v-4.2s10.71-5.73,17.42-18.74c4.82-9.34,5.75-15.85,3.24-19.47l53.41-46.28s21.97-4.42,26.44,15.21Z"/><path class="i" d="M257.48,112.42s-11.48,3.34-8.75,28.65c0,0,.86,4.71-1.01,7.75-1.87,3.04-6.33,10.23-7.33,12.39s-1.58,7.62,1.73,10.07c.13,0,.27-.02,.4-.03,1.95-.19,3.88-.8,5.68-1.56,1.59-.67,3.1-1.51,4.54-2.46,.42-.28,.81-.6,1.23-.87,.35-.22,.49-.49,.67-.88,.37-.82,.56-1.71,.69-2.59,.17-1.15,.28-2.32,.61-3.44,.28-.94,.52-1.79,1.21-2.54,1.62-1.77,17.61-10,20.54-24.92,2.93-14.92-.2-18.88-.61-19.57-.4-.7-9.09-4.23-19.59,0Z"/><path class="k" d="M257.6,156.49c-.21,.17-.37,.3-.47,.41-.23,.25-.42,.52-.58,.81-.65,1.17-.81,2.61-.9,3.91-.12,1.88-.19,3.67-1.31,5.29-.49,.7-1.14,1.29-1.91,1.68-.38,.19-.77,.33-1.19,.41-.12,.02-1.16,.1-1.17,.13-.39,.77-1.1,1.37-1.92,1.63-.82,.26-1.75,.18-2.51-.22-.38,.62-1.03,1.06-1.75,1.19-1.24,.21-2.21-.5-2.9-1.51,0,0,0,0,0,0-.71-1.03-1.14-2.37-1.29-3.38-.26-1.83-.11-3.94,.68-5.64,.95-2.04,5-8.59,7.01-11.86,.88-.22,1.78-.36,2.74-.3,1.04,.06,2.2,.33,2.76,1.21,.92,1.48-.42,3.79,.81,5.02,.41,.41,1,.57,1.56,.69,.77,.17,1.58,.32,2.36,.53Z"/><path class="i" d="M326,63.22c-6.46,1.5-10.76,7.89-9.19,14.33,.5,2.05,1.57,3.93,3.6,5.19,7.2,4.47,7.81,10.59,16.54,13.9,8.73,3.31,23.56-3.71,30.04-7.68,0,0,5.2-3.8,8.01-3.75,3.4,.06,9.22,.68,9.5-6.8,0,0,0-1.51-2.08-1.52-1.4,0-6.65,.42-8.17-.35-1.52-.76-3.95-1.45-4.91,0-.97,1.45-3.81,2.77-5.88,2.77s-7.96-19.92-24.43-18.16c-5.64,.6-9.88,1.35-13.01,2.08Z"/><path class="i" d="M377.71,85.64c1.1,.1,2.21-.01,3.27-.33,1.04-.31,2.12-.94,2.41-1.98,.04-.15,.07-.31,.15-.44,.11-.16,.29-.26,.45-.37,.99-.69,1.27-2.21,.59-3.21,.57-1.42-.94-2.41-2.16-2.42-1.4,0-6.65,.42-8.17-.35-1.52-.76-3.95-1.45-4.91,0-.97,1.45-3.81,2.77-5.88,2.77-.14,0-.31-.11-.49-.28-2,3.97-5.24,7.32-9.18,9.4-4.89,2.57-10.79,3.15-16.09,1.58-2.09-.62-4.11-1.57-6.28-1.82-1.69-.19-3.25,0-4.51,.51,2.54,3.02,4.87,5.98,10.06,7.95,8.73,3.31,23.56-3.71,30.04-7.68,1-.73,2.05-1.39,3.13-2,.88-.49,1.78-.95,2.72-1.3,1.52-.56,3.3-.16,4.87-.02Z"/><g><g><path class="f" d="M205.6,70.53c0,2.38,2.1,4.31,4.69,4.31s4.69-1.93,4.69-4.31-1.58-4.64-4.17-4.64-5.21,2.26-5.21,4.64Z"/><path class="i" d="M207.46,70.88c0,1.99,1.62,3.61,3.61,3.61s3.61-1.62,3.61-3.61-1.62-3.61-3.61-3.61-3.61,1.62-3.61,3.61Z"/><g><circle class="f" cx="208.56" cy="69.14" r=".89"/><path class="f" d="M214.12,73.01s-.03-.09-.05-.13c-.13-.24-.38-.4-.66-.4-.41,0-.75,.33-.75,.75,0,.29,.16,.53,.4,.66,.03,.02,.07,.03,.1,.05l.97-.93Z"/></g></g><g><path class="f" d="M193.54,70.53c0,2.38,1.41,4.31,3.14,4.31,.71,0,1.37-.33,1.9-.87,.26-.27,.49-.61,.68-.98,.36-.7,.57-1.55,.57-2.46,0-2.38-1.75-4.64-3.49-4.64s-2.79,2.26-2.79,4.64Z"/><path class="i" d="M194.09,70.88c0,1.99,1.26,3.61,2.81,3.61s2.81-1.62,2.81-3.61-1.26-3.61-2.81-3.61-2.81,1.62-2.81,3.61Z"/><g><path class="f" d="M194.25,69.14c0,.49,.31,.89,.69,.89s.69-.4,.69-.89-.31-.89-.69-.89-.69,.4-.69,.89Z"/><path class="f" d="M198.13,73.24c0,.29,.12,.53,.31,.66,.04,.03,.09,.05,.15,.07,.26-.27,.49-.61,.68-.98,0-.04-.02-.07-.03-.1-.1-.24-.29-.4-.52-.4-.32,0-.58,.33-.58,.75Z"/></g></g></g><path class="k" d="M256.55,157.72c-.65,1.17-.81,2.61-.9,3.91-.12,1.88-.19,3.67-1.31,5.29-.49,.7-1.14,1.29-1.91,1.68-.38,.19-.77,.33-1.19,.41-.12,.02-1.16,.1-1.17,.13-.39,.77-1.1,1.37-1.92,1.63-.82,.26-1.75,.18-2.51-.22-.38,.62-1.03,1.06-1.75,1.19-1.24,.21-2.21-.5-2.9-1.51,.54,.31,1.26,.29,1.89,.16,.8-.15,1.71-.61,1.75-1.42,.77,.54,1.78,.71,2.68,.45,.9-.26,1.66-.94,2.02-1.8,.81,.27,1.69-.16,2.32-.72,1.19-1.05,1.89-2.53,2.45-4.02,.56-1.48,1.02-3.03,1.87-4.37,.17-.27,.36-.53,.57-.78Z"/><path class="k" d="M213.38,149.99c-.21,1.2-.56,2.36-.87,3.54-.38,1.43-.28,2.84-1.06,4.19-.57,.98-1.57,1.78-2.7,1.81-.58,1.93-2.52,3.36-4.54,3.34-.26,.76-1.11,1.18-1.91,1.2-1.09,.02-2.18-.41-2.91-1.21,0-.01-.02-.02-.03-.03,.62,0,1.23-.14,1.78-.42,.78-.41,1.41-1.15,1.59-2.01,.36,.47,1.05,.57,1.64,.48,1.44-.23,3.3-1.72,2.99-3.32,.4,.22,.9,.18,1.32,0,.41-.18,.76-.5,1.05-.84,1.35-1.57,1.78-3.72,2.82-5.51,.25-.42,.53-.83,.85-1.21Z"/><g><path class="i" d="M257.8,57.69c-.34,2.21-1.77,4.02-2.99,5.93-.54,.84-1.03,1.7-1.37,2.63-.37,1-.55,2.07-1,3.04-.46,.97-1.28,1.86-2.34,1.99-1.16,.14-2.21-.64-3.17-1.32-4.39-3.12-9.59-4.82-14.87-5.71-2.68-.46-5.38-.69-8.09-.85-.09,0-.27-.03-.52-.07-1.41-.24-4.94-.98-4.96-1.06-.12-.66,.33-1.27,.76-1.79,.17-.2,.34-.4,.52-.6,5.4-6.14,13.53-11.92,21.91-12.01,5.9-.06,17.44,1.13,16.1,9.82Z"/><path class="i" d="M249.45,61.36c.35,.12,.7,.25,1.05,.39l-.36-.15c.73,.31,1.43,.68,2.09,1.11,.16,.1,.31,.21,.46,.31,.09,.07,.19,.14,.28,.2,.23,.16-.26-.21-.03-.02,.31,.25,.62,.51,.91,.79,.57,.54,1.56,.61,2.12,0s.61-1.55,0-2.12c-1.64-1.55-3.59-2.7-5.73-3.41-.75-.25-1.67,.29-1.85,1.05-.19,.83,.25,1.58,1.05,1.85h0Z"/><path class="k" d="M254.81,63.62c-.54,.84-1.03,1.7-1.37,2.63-.37,1-.55,2.07-1,3.04-.46,.97-1.28,1.86-2.34,1.99-1.16,.14-2.21-.64-3.17-1.32-4.39-3.12-9.59-4.82-14.87-5.71-2.68-.46-5.38-.69-8.09-.85-.09,0-.27-.03-.52-.07,1.17-.33,2.36-.61,3.55-.92,1.77-.46,3.37-.14,5.17,.22,3.91,.8,7.68,2.18,11.29,3.88,1.38,.65,2.76,1.35,4.26,1.63,1.49,.28,3.17,.07,4.32-.92,.98-.85,1.45-2.14,2.14-3.24,.14-.22,.42-.45,.63-.36Z"/></g><path class="i" d="M199.27,63c3.09-2.76,6.95-4.5,11.03-5.12,.8-.12,1.24-1.13,1.05-1.85-.24-.86-1.04-1.17-1.85-1.05-4.6,.7-8.9,2.8-12.36,5.89-.6,.54-.55,1.57,0,2.12,.6,.6,1.52,.54,2.12,0h0Z"/></g><path class="i" d="M194.09,90.89s5.83-.21,9.26-4.57,3.11-8.37,4.36-7.14-.26,6.66-1.56,8.85c-1.51,2.54-4.05,8.27-7.16,5.71s-4.9-2.85-4.9-2.85Z"/></g><path class="f" d="M245.86,21.72c-3.28-1.71-5.82-4.93-7.02-8.9-.16-.53-.91-.53-1.07,0-1.2,3.97-3.74,7.19-7.02,8.9-.16,.08-.37,.18-.6,.27-.66,.27-.66,1.2,0,1.47,.23,.09,.44,.19,.6,.27,3.25,1.7,5.77,4.87,6.99,8.78,.17,.56,.97,.56,1.14,0,1.22-3.92,3.73-7.09,6.99-8.78,.17-.09,.41-.19,.66-.3,.64-.26,.64-1.16,0-1.42-.26-.1-.49-.21-.67-.3Z"/><path class="f" d="M337.86,141.72c-3.28-1.71-5.82-4.93-7.02-8.9-.16-.53-.91-.53-1.07,0-1.2,3.97-3.74,7.19-7.02,8.9-.16,.08-.37,.18-.6,.27-.66,.27-.66,1.2,0,1.47,.23,.09,.44,.19,.6,.27,3.25,1.7,5.77,4.87,6.99,8.78,.17,.56,.97,.56,1.14,0,1.22-3.92,3.73-7.09,6.99-8.78,.17-.09,.41-.19,.66-.3,.64-.26,.64-1.16,0-1.42-.26-.1-.49-.21-.67-.3Z"/></g></g><g id="d"/></svg>